SplineFontDB: 3.2
FontName: CommitMonoFont-Italic
FullName: CommitMonoFont Italic
FamilyName: CommitMonoFont
Weight: Italic
Copyright: Copyright 2023 Commit Mono authors (https://github.com/eigilnikolajsen/commit-mono)
Version: Version 1.143
ItalicAngle: -0.000137329
UnderlinePosition: -125
UnderlineWidth: 50
Ascent: 800
Descent: 200
InvalidEm: 0
sfntRevision: 0x00010000
LayerCount: 2
Layer: 0 0 "+gMxmbwAA" 1
Layer: 1 0 "+Uk1mbwAA" 0
XUID: [1021 689 -331905675 20644]
StyleMap: 0x0001
FSType: 0
OS2Version: 4
OS2_WeightWidthSlopeOnly: 0
OS2_UseTypoMetrics: 0
CreationTime: 1737275056
ModificationTime: 1737276247
PfmFamily: 81
TTFWeight: 400
TTFWidth: 5
LineGap: 0
VLineGap: 0
Panose: 0 0 0 0 0 0 0 0 0 0
OS2TypoAscent: 900
OS2TypoAOffset: 0
OS2TypoDescent: -200
OS2TypoDOffset: 0
OS2TypoLinegap: 0
OS2WinAscent: 900
OS2WinAOffset: 0
OS2WinDescent: 200
OS2WinDOffset: 0
HheadAscent: 900
HheadAOffset: 0
HheadDescent: -200
HheadDOffset: 0
OS2SubXSize: 650
OS2SubYSize: 600
OS2SubXOff: -13
OS2SubYOff: -75
OS2SupXSize: 650
OS2SupYSize: 600
OS2SupXOff: 59
OS2SupYOff: 350
OS2StrikeYSize: 50
OS2StrikeYPos: 324
OS2CapHeight: 700
OS2XHeight: 540
OS2Vendor: '    '
OS2CodePages: 4000009b.00000000
OS2UnicodeRanges: 800000a7.100039f3.00040020.00000000
Lookup: 1 0 0 "'cv01' +W1d7JlPYT1MA-01 +Z+VifgAA 0" { "'cv01' +W1d7JlPYT1MA-01 +Z+VifgAA 0+Zv9O44ho"  } ['cv01' ('DFLT' <'dflt' > ) ]
Lookup: 1 0 0 "'cv02' +W1d7JlPYT1MA-02 +Z+VifgAA 1" { "'cv02' +W1d7JlPYT1MA-02 +Z+VifgAA 1+Zv9O44ho"  } ['cv02' ('DFLT' <'dflt' > ) ]
Lookup: 1 0 0 "'cv03' +W1d7JlPYT1MA-03 +Z+VifgAA 2" { "'cv03' +W1d7JlPYT1MA-03 +Z+VifgAA 2+Zv9O44ho"  } ['cv03' ('DFLT' <'dflt' > ) ]
Lookup: 1 0 0 "'cv04' +W1d7JlPYT1MA-04 +Z+VifgAA 3" { "'cv04' +W1d7JlPYT1MA-04 +Z+VifgAA 3+Zv9O44ho"  } ['cv04' ('DFLT' <'dflt' > ) ]
Lookup: 1 0 0 "'cv05' +W1d7JlPYT1MA-05 +Z+VifgAA 4" { "'cv05' +W1d7JlPYT1MA-05 +Z+VifgAA 4+Zv9O44ho"  } ['cv05' ('DFLT' <'dflt' > ) ]

StartChar: .notdef
Encoding: 65536 -1 0
Width: 600
GlyphClass: 1
Flags: W
LayerCount: 2
Fore
SplineSet
222 38 m 1
 222 74 l 1
 296 203 l 1
 348 203 l 1
 348 71 l 1
 383 71 l 1
 383 38 l 1
 348 38 l 1
 348 -7 l 1
 312 -7 l 1
 312 38 l 1
 222 38 l 1
311 170 m 1
 255 71 l 1
 312 71 l 1
 312 170 l 1
 311 170 l 1
300 242 m 0
 253 242 225 282 225 350 c 0
 225 418 253 458 300 458 c 0
 347 458 375 418 375 350 c 0
 375 282 347 242 300 242 c 0
262 327 m 1
 330 402 l 1
 323 417 314 425 300 425 c 0
 275 425 261 398 261 350 c 0
 261 342 261 334 262 327 c 1
300 275 m 0
 325 275 339 302 339 350 c 0
 339 358 339 366 338 373 c 1
 270 298 l 1
 277 283 287 275 300 275 c 0
222 543 m 1
 222 579 l 1
 296 708 l 1
 348 708 l 1
 348 576 l 1
 383 576 l 1
 383 543 l 1
 348 543 l 1
 348 498 l 1
 312 498 l 1
 312 543 l 1
 222 543 l 1
311 675 m 1
 255 576 l 1
 312 576 l 1
 312 675 l 1
 311 675 l 1
67 -45 m 1
 533 -45 l 1
 533 745 l 1
 67 745 l 1
 67 -45 l 1
30 -80 m 1
 30 780 l 1
 570 780 l 1
 570 -80 l 1
 30 -80 l 1
EndSplineSet
Validated: 1
EndChar

StartChar: A
Encoding: 65 65 4
Width: 600
GlyphClass: 1
Flags: W
LayerCount: 2
Fore
SplineSet
63 0 m 1
 -22 0 l 1
 308 700 l 1
 426 700 l 1
 522 0 l 1
 435 0 l 1
 406 197 l 1
 155 197 l 1
 63 0 l 1
192 274 m 1
 398 274 l 1
 351 608 l 1
 347 608 l 1
 192 274 l 1
EndSplineSet
Validated: 1
Substitution2: "+U1VOAGb/Y2IA +Z+VifgAA 72+Zv9O44ho" A.rightS
Substitution2: "+U1VOAGb/Y2IA +Z+VifgAA 71+Zv9O44ho" A.rightM
Substitution2: "+U1VOAGb/Y2IA +Z+VifgAA 70+Zv9O44ho" A.rightL
Substitution2: "+U1VOAGb/Y2IA +Z+VifgAA 69+Zv9O44ho" A.leftS
Substitution2: "+U1VOAGb/Y2IA +Z+VifgAA 68+Zv9O44ho" A.leftM
Substitution2: "+U1VOAGb/Y2IA +Z+VifgAA 67+Zv9O44ho" A.leftL
Substitution2: "+U1VOAGb/Y2IA +Z+VifgAA 66+Zv9O44ho" A.rightS
Substitution2: "+U1VOAGb/Y2IA +Z+VifgAA 65+Zv9O44ho" A.rightM
Substitution2: "+U1VOAGb/Y2IA +Z+VifgAA 64+Zv9O44ho" A.rightS
Substitution2: "+U1VOAGb/Y2IA +Z+VifgAA 63+Zv9O44ho" A.rightM
Substitution2: "+U1VOAGb/Y2IA +Z+VifgAA 62+Zv9O44ho" A.rightL
Substitution2: "+U1VOAGb/Y2IA +Z+VifgAA 61+Zv9O44ho" A.leftS
Substitution2: "+U1VOAGb/Y2IA +Z+VifgAA 60+Zv9O44ho" A.leftM
Substitution2: "+U1VOAGb/Y2IA +Z+VifgAA 59+Zv9O44ho" A.leftL
EndChar

StartChar: A.leftL
Encoding: 65537 -1 5
Width: 600
GlyphClass: 1
Flags: W
LayerCount: 2
Fore
SplineSet
21 0 m 1
 -64 0 l 1
 266 700 l 1
 384 700 l 1
 480 0 l 1
 393 0 l 1
 364 197 l 1
 113 197 l 1
 21 0 l 1
150 274 m 1
 356 274 l 1
 309 608 l 1
 305 608 l 1
 150 274 l 1
EndSplineSet
Validated: 1
EndChar

StartChar: A.leftM
Encoding: 65538 -1 6
Width: 600
GlyphClass: 1
Flags: W
LayerCount: 2
Fore
SplineSet
36 0 m 1
 -49 0 l 1
 281 700 l 1
 399 700 l 1
 495 0 l 1
 408 0 l 1
 379 197 l 1
 128 197 l 1
 36 0 l 1
165 274 m 1
 371 274 l 1
 324 608 l 1
 320 608 l 1
 165 274 l 1
EndSplineSet
Validated: 1
EndChar

StartChar: A.leftS
Encoding: 65539 -1 7
Width: 600
GlyphClass: 1
Flags: W
LayerCount: 2
Fore
SplineSet
51 0 m 1
 -34 0 l 1
 296 700 l 1
 414 700 l 1
 510 0 l 1
 423 0 l 1
 394 197 l 1
 143 197 l 1
 51 0 l 1
180 274 m 1
 386 274 l 1
 339 608 l 1
 335 608 l 1
 180 274 l 1
EndSplineSet
Validated: 1
EndChar

StartChar: A.rightL
Encoding: 65540 -1 8
Width: 600
GlyphClass: 1
Flags: W
LayerCount: 2
Fore
SplineSet
105 0 m 1
 20 0 l 1
 350 700 l 1
 468 700 l 1
 564 0 l 1
 477 0 l 1
 448 197 l 1
 197 197 l 1
 105 0 l 1
234 274 m 1
 440 274 l 1
 393 608 l 1
 389 608 l 1
 234 274 l 1
EndSplineSet
Validated: 1
EndChar

StartChar: A.rightM
Encoding: 65541 -1 9
Width: 600
GlyphClass: 1
Flags: W
LayerCount: 2
Fore
SplineSet
90 0 m 1
 5 0 l 1
 335 700 l 1
 453 700 l 1
 549 0 l 1
 462 0 l 1
 433 197 l 1
 182 197 l 1
 90 0 l 1
219 274 m 1
 425 274 l 1
 378 608 l 1
 374 608 l 1
 219 274 l 1
EndSplineSet
Validated: 1
EndChar

StartChar: A.rightS
Encoding: 65542 -1 10
Width: 600
GlyphClass: 1
Flags: W
LayerCount: 2
Fore
SplineSet
75 0 m 1
 -10 0 l 1
 320 700 l 1
 438 700 l 1
 534 0 l 1
 447 0 l 1
 418 197 l 1
 167 197 l 1
 75 0 l 1
204 274 m 1
 410 274 l 1
 363 608 l 1
 359 608 l 1
 204 274 l 1
EndSplineSet
Validated: 1
EndChar

StartChar: AE
Encoding: 198 198 11
Width: 600
GlyphClass: 1
Flags: W
LayerCount: 2
Fore
SplineSet
-50 0 m 1
 284 700 l 1
 641 700 l 1
 627 622 l 1
 422 622 l 1
 386 402 l 1
 557 402 l 1
 544 324 l 1
 373 324 l 1
 332 78 l 1
 537 78 l 1
 524 0 l 1
 234 0 l 1
 269 211 l 1
 135 211 l 1
 34 0 l 1
 -50 0 l 1
171 288 m 1
 281 288 l 1
 337 623 l 1
 332 623 l 1
 171 288 l 1
EndSplineSet
Validated: 1
EndChar

StartChar: AEacute
Encoding: 508 508 12
Width: 600
GlyphClass: 1
Flags: W
LayerCount: 2
Fore
SplineSet
-50 0 m 1
 284 700 l 1
 641 700 l 1
 627 622 l 1
 422 622 l 1
 386 402 l 1
 557 402 l 1
 544 324 l 1
 373 324 l 1
 332 78 l 1
 537 78 l 1
 524 0 l 1
 234 0 l 1
 269 211 l 1
 135 211 l 1
 34 0 l 1
 -50 0 l 1
171 288 m 1
 281 288 l 1
 337 623 l 1
 332 623 l 1
 171 288 l 1
640 977 m 1
 494 792 l 1
 421 792 l 1
 529 977 l 1
 640 977 l 1
EndSplineSet
Validated: 1
EndChar

StartChar: Aacute
Encoding: 193 193 13
Width: 600
GlyphClass: 1
Flags: W
LayerCount: 2
Fore
SplineSet
63 0 m 1
 -22 0 l 1
 308 700 l 1
 426 700 l 1
 522 0 l 1
 435 0 l 1
 406 197 l 1
 155 197 l 1
 63 0 l 1
192 274 m 1
 398 274 l 1
 351 608 l 1
 347 608 l 1
 192 274 l 1
547 977 m 1
 401 792 l 1
 328 792 l 1
 436 977 l 1
 547 977 l 1
EndSplineSet
Validated: 1
EndChar

StartChar: Abreve
Encoding: 258 258 14
Width: 600
GlyphClass: 1
Flags: W
LayerCount: 2
Fore
SplineSet
63 0 m 1
 -22 0 l 1
 308 700 l 1
 426 700 l 1
 522 0 l 1
 435 0 l 1
 406 197 l 1
 155 197 l 1
 63 0 l 1
192 274 m 1
 398 274 l 1
 351 608 l 1
 347 608 l 1
 192 274 l 1
339 923 m 1
 336 879 357 850 392 850 c 0
 427 850 458 879 469 923 c 1
 538 923 l 1
 525 843 459 786 381 786 c 0
 303 786 257 843 270 923 c 1
 339 923 l 1
EndSplineSet
Validated: 33
EndChar

StartChar: Acircumflex
Encoding: 194 194 15
Width: 600
GlyphClass: 1
Flags: W
LayerCount: 2
Fore
SplineSet
63 0 m 1
 -22 0 l 1
 308 700 l 1
 426 700 l 1
 522 0 l 1
 435 0 l 1
 406 197 l 1
 155 197 l 1
 63 0 l 1
192 274 m 1
 398 274 l 1
 351 608 l 1
 347 608 l 1
 192 274 l 1
227 785 m 1
 366 961 l 1
 454 961 l 1
 536 785 l 1
 463 785 l 1
 398 889 l 1
 299 785 l 1
 227 785 l 1
EndSplineSet
Validated: 1
EndChar

StartChar: Adieresis
Encoding: 196 196 16
Width: 600
GlyphClass: 1
Flags: W
LayerCount: 2
Fore
SplineSet
63 0 m 1
 -22 0 l 1
 308 700 l 1
 426 700 l 1
 522 0 l 1
 435 0 l 1
 406 197 l 1
 155 197 l 1
 63 0 l 1
192 274 m 1
 398 274 l 1
 351 608 l 1
 347 608 l 1
 192 274 l 1
223 875 m 0
 230 913 265 943 303 943 c 0
 342 943 367 913 360 875 c 0
 354 837 319 806 281 806 c 0
 243 806 217 837 223 875 c 0
431 875 m 0
 438 913 473 943 511 943 c 0
 550 943 575 913 568 875 c 0
 562 837 527 806 489 806 c 0
 451 806 425 837 431 875 c 0
EndSplineSet
Validated: 33
Substitution2: "'cv03' +W1d7JlPYT1MA-03 +Z+VifgAA 2+Zv9O44ho" Adieresis.square
EndChar

StartChar: Adieresis.square
Encoding: 65543 -1 17
Width: 600
GlyphClass: 1
Flags: W
LayerCount: 2
Fore
SplineSet
63 0 m 1
 -22 0 l 1
 308 700 l 1
 426 700 l 1
 522 0 l 1
 435 0 l 1
 406 197 l 1
 155 197 l 1
 63 0 l 1
192 274 m 1
 398 274 l 1
 351 608 l 1
 347 608 l 1
 192 274 l 1
220 810 m 1
 241 931 l 1
 362 931 l 1
 342 810 l 1
 220 810 l 1
428 810 m 1
 449 931 l 1
 570 931 l 1
 550 810 l 1
 428 810 l 1
EndSplineSet
Validated: 1
EndChar

StartChar: Agrave
Encoding: 192 192 18
Width: 600
GlyphClass: 1
Flags: W
LayerCount: 2
Fore
SplineSet
63 0 m 1
 -22 0 l 1
 308 700 l 1
 426 700 l 1
 522 0 l 1
 435 0 l 1
 406 197 l 1
 155 197 l 1
 63 0 l 1
192 274 m 1
 398 274 l 1
 351 608 l 1
 347 608 l 1
 192 274 l 1
437 792 m 1
 364 792 l 1
 280 977 l 1
 391 977 l 1
 437 792 l 1
EndSplineSet
Validated: 1
EndChar

StartChar: Alpha
Encoding: 913 913 19
Width: 600
GlyphClass: 1
Flags: W
LayerCount: 2
Fore
SplineSet
63 0 m 1
 -22 0 l 1
 308 700 l 1
 426 700 l 1
 522 0 l 1
 435 0 l 1
 406 197 l 1
 155 197 l 1
 63 0 l 1
192 274 m 1
 398 274 l 1
 351 608 l 1
 347 608 l 1
 192 274 l 1
EndSplineSet
Validated: 1
EndChar

StartChar: Alphatonos
Encoding: 902 902 20
Width: 600
GlyphClass: 1
Flags: W
LayerCount: 2
Fore
SplineSet
63 0 m 1
 -22 0 l 1
 308 700 l 1
 426 700 l 1
 522 0 l 1
 435 0 l 1
 406 197 l 1
 155 197 l 1
 63 0 l 1
192 274 m 1
 398 274 l 1
 351 608 l 1
 347 608 l 1
 192 274 l 1
281 774 m 1
 180 572 l 1
 114 572 l 1
 181 774 l 1
 281 774 l 1
EndSplineSet
Validated: 1
EndChar

StartChar: Amacron
Encoding: 256 256 21
Width: 600
GlyphClass: 1
Flags: W
LayerCount: 2
Fore
SplineSet
63 0 m 1
 -22 0 l 1
 308 700 l 1
 426 700 l 1
 522 0 l 1
 435 0 l 1
 406 197 l 1
 155 197 l 1
 63 0 l 1
192 274 m 1
 398 274 l 1
 351 608 l 1
 347 608 l 1
 192 274 l 1
234 830 m 1
 246 900 l 1
 554 900 l 1
 542 830 l 1
 234 830 l 1
EndSplineSet
Validated: 1
EndChar

StartChar: Aogonek
Encoding: 260 260 22
Width: 600
GlyphClass: 1
Flags: W
LayerCount: 2
Fore
SplineSet
63 0 m 1
 -22 0 l 1
 308 700 l 1
 426 700 l 1
 522 0 l 1
 478 0 l 1
 414 -23 379 -52 373 -87 c 0
 368 -120 390 -142 425 -142 c 0
 433 -142 443 -141 452 -139 c 1
 442 -200 l 1
 430 -203 416 -205 400 -205 c 0
 329 -205 288 -162 298 -101 c 0
 307 -47 352 -2 431 28 c 1
 406 197 l 1
 155 197 l 1
 63 0 l 1
192 274 m 1
 398 274 l 1
 351 608 l 1
 347 608 l 1
 192 274 l 1
EndSplineSet
Validated: 33
EndChar

StartChar: Aring
Encoding: 197 197 23
Width: 600
GlyphClass: 1
Flags: W
LayerCount: 2
Fore
SplineSet
63 0 m 1
 -22 0 l 1
 308 700 l 1
 426 700 l 1
 522 0 l 1
 435 0 l 1
 406 197 l 1
 155 197 l 1
 63 0 l 1
192 274 m 1
 398 274 l 1
 351 608 l 1
 347 608 l 1
 192 274 l 1
283 889 m 0
 293 953 351 1003 417 1003 c 0
 483 1003 526 953 515 888 c 0
 504 824 444 773 379 773 c 0
 314 773 272 824 283 889 c 0
389 830 m 0
 421 830 449 854 455 888 c 0
 460 922 441 946 409 946 c 0
 376 946 348 922 342 888 c 0
 337 854 356 830 389 830 c 0
EndSplineSet
Validated: 33
EndChar

StartChar: Aringacute
Encoding: 506 506 24
Width: 600
GlyphClass: 1
Flags: W
LayerCount: 2
Fore
SplineSet
63 0 m 1
 -22 0 l 1
 291 665 l 1
 263 685 249 721 255 762 c 0
 264 814 304 857 354 871 c 1
 434 1007 l 1
 545 1007 l 1
 434 867 l 1
 474 850 496 810 488 762 c 0
 482 725 460 693 430 672 c 1
 522 0 l 1
 435 0 l 1
 406 197 l 1
 155 197 l 1
 63 0 l 1
192 274 m 1
 398 274 l 1
 351 608 l 1
 347 608 l 1
 192 274 l 1
361 703 m 0
 394 703 422 727 428 761 c 0
 433 795 414 819 381 819 c 0
 349 819 321 795 315 761 c 0
 310 727 329 703 361 703 c 0
EndSplineSet
Validated: 33
EndChar

StartChar: Atilde
Encoding: 195 195 25
Width: 600
GlyphClass: 1
Flags: W
LayerCount: 2
Fore
SplineSet
63 0 m 1
 -22 0 l 1
 308 700 l 1
 426 700 l 1
 522 0 l 1
 435 0 l 1
 406 197 l 1
 155 197 l 1
 63 0 l 1
192 274 m 1
 398 274 l 1
 351 608 l 1
 347 608 l 1
 192 274 l 1
212 824 m 1
 216 851 l 2
 229 923 277 968 341 968 c 0
 432 968 426 877 470 877 c 0
 489 877 502 895 510 933 c 2
 514 954 l 1
 585 954 l 1
 580 927 l 2
 568 855 521 810 457 810 c 0
 365 810 371 901 328 901 c 0
 309 901 295 883 288 845 c 2
 283 824 l 1
 212 824 l 1
EndSplineSet
Validated: 1
EndChar

StartChar: B
Encoding: 66 66 26
Width: 600
GlyphClass: 1
Flags: W
LayerCount: 2
Fore
SplineSet
40 0 m 1
 157 700 l 1
 393 700 l 2
 505 700 573 625 556 521 c 0
 545 452 499 396 437 368 c 1
 436 364 l 1
 503 338 536 275 523 193 c 0
 505 81 406 0 289 0 c 2
 40 0 l 1
194 402 m 1
 347 402 l 2
 408 402 458 449 469 514 c 0
 479 579 445 622 384 622 c 2
 230 622 l 1
 194 402 l 1
140 78 m 1
 305 78 l 2
 371 78 424 128 437 201 c 0
 449 274 412 324 346 324 c 2
 181 324 l 1
 140 78 l 1
EndSplineSet
Validated: 33
Substitution2: "+U1VOAGb/Y2IA +Z+VifgAA 72+Zv9O44ho" B.rightS
Substitution2: "+U1VOAGb/Y2IA +Z+VifgAA 71+Zv9O44ho" B.rightM
Substitution2: "+U1VOAGb/Y2IA +Z+VifgAA 70+Zv9O44ho" B.rightL
Substitution2: "+U1VOAGb/Y2IA +Z+VifgAA 69+Zv9O44ho" B.leftS
Substitution2: "+U1VOAGb/Y2IA +Z+VifgAA 68+Zv9O44ho" B.leftM
Substitution2: "+U1VOAGb/Y2IA +Z+VifgAA 67+Zv9O44ho" B.leftL
Substitution2: "+U1VOAGb/Y2IA +Z+VifgAA 66+Zv9O44ho" B.rightS
Substitution2: "+U1VOAGb/Y2IA +Z+VifgAA 65+Zv9O44ho" B.rightM
Substitution2: "+U1VOAGb/Y2IA +Z+VifgAA 64+Zv9O44ho" B.rightS
Substitution2: "+U1VOAGb/Y2IA +Z+VifgAA 63+Zv9O44ho" B.rightM
Substitution2: "+U1VOAGb/Y2IA +Z+VifgAA 62+Zv9O44ho" B.rightL
Substitution2: "+U1VOAGb/Y2IA +Z+VifgAA 61+Zv9O44ho" B.leftS
Substitution2: "+U1VOAGb/Y2IA +Z+VifgAA 60+Zv9O44ho" B.leftM
Substitution2: "+U1VOAGb/Y2IA +Z+VifgAA 59+Zv9O44ho" B.leftL
EndChar

StartChar: B.leftL
Encoding: 65544 -1 27
Width: 600
GlyphClass: 1
Flags: W
LayerCount: 2
Fore
SplineSet
-4 0 m 1
 113 700 l 1
 349 700 l 2
 461 700 529 625 512 521 c 0
 501 452 455 396 393 368 c 1
 392 364 l 1
 459 338 492 275 479 193 c 0
 461 81 362 0 245 0 c 2
 -4 0 l 1
150 402 m 1
 303 402 l 2
 364 402 414 449 425 514 c 0
 435 579 401 622 340 622 c 2
 186 622 l 1
 150 402 l 1
96 78 m 1
 261 78 l 2
 327 78 380 128 393 201 c 0
 405 274 368 324 302 324 c 2
 137 324 l 1
 96 78 l 1
EndSplineSet
Validated: 33
EndChar

StartChar: B.leftM
Encoding: 65545 -1 28
Width: 600
GlyphClass: 1
Flags: W
LayerCount: 2
Fore
SplineSet
10 0 m 1
 127 700 l 1
 363 700 l 2
 475 700 543 625 526 521 c 0
 515 452 469 396 407 368 c 1
 406 364 l 1
 473 338 506 275 493 193 c 0
 475 81 376 0 259 0 c 2
 10 0 l 1
164 402 m 1
 317 402 l 2
 378 402 428 449 439 514 c 0
 449 579 415 622 354 622 c 2
 200 622 l 1
 164 402 l 1
110 78 m 1
 275 78 l 2
 341 78 394 128 407 201 c 0
 419 274 382 324 316 324 c 2
 151 324 l 1
 110 78 l 1
EndSplineSet
Validated: 33
EndChar

StartChar: B.leftS
Encoding: 65546 -1 29
Width: 600
GlyphClass: 1
Flags: W
LayerCount: 2
Fore
SplineSet
22 0 m 1
 139 700 l 1
 375 700 l 2
 487 700 555 625 538 521 c 0
 527 452 481 396 419 368 c 1
 418 364 l 1
 485 338 518 275 505 193 c 0
 487 81 388 0 271 0 c 2
 22 0 l 1
176 402 m 1
 329 402 l 2
 390 402 440 449 451 514 c 0
 461 579 427 622 366 622 c 2
 212 622 l 1
 176 402 l 1
122 78 m 1
 287 78 l 2
 353 78 406 128 419 201 c 0
 431 274 394 324 328 324 c 2
 163 324 l 1
 122 78 l 1
EndSplineSet
Validated: 33
EndChar

StartChar: B.rightL
Encoding: 65547 -1 30
Width: 600
GlyphClass: 1
Flags: W
LayerCount: 2
Fore
SplineSet
84 0 m 1
 201 700 l 1
 437 700 l 2
 549 700 617 625 600 521 c 0
 589 452 543 396 481 368 c 1
 480 364 l 1
 547 338 580 275 567 193 c 0
 549 81 450 0 333 0 c 2
 84 0 l 1
238 402 m 1
 391 402 l 2
 452 402 502 449 513 514 c 0
 523 579 489 622 428 622 c 2
 274 622 l 1
 238 402 l 1
184 78 m 1
 349 78 l 2
 415 78 468 128 481 201 c 0
 493 274 456 324 390 324 c 2
 225 324 l 1
 184 78 l 1
EndSplineSet
Validated: 33
EndChar

StartChar: B.rightM
Encoding: 65548 -1 31
Width: 600
GlyphClass: 1
Flags: W
LayerCount: 2
Fore
SplineSet
70 0 m 1
 187 700 l 1
 423 700 l 2
 535 700 603 625 586 521 c 0
 575 452 529 396 467 368 c 1
 466 364 l 1
 533 338 566 275 553 193 c 0
 535 81 436 0 319 0 c 2
 70 0 l 1
224 402 m 1
 377 402 l 2
 438 402 488 449 499 514 c 0
 509 579 475 622 414 622 c 2
 260 622 l 1
 224 402 l 1
170 78 m 1
 335 78 l 2
 401 78 454 128 467 201 c 0
 479 274 442 324 376 324 c 2
 211 324 l 1
 170 78 l 1
EndSplineSet
Validated: 33
EndChar

StartChar: B.rightS
Encoding: 65549 -1 32
Width: 600
GlyphClass: 1
Flags: W
LayerCount: 2
Fore
SplineSet
52 0 m 1
 169 700 l 1
 405 700 l 2
 517 700 585 625 568 521 c 0
 557 452 511 396 449 368 c 1
 448 364 l 1
 515 338 548 275 535 193 c 0
 517 81 418 0 301 0 c 2
 52 0 l 1
206 402 m 1
 359 402 l 2
 420 402 470 449 481 514 c 0
 491 579 457 622 396 622 c 2
 242 622 l 1
 206 402 l 1
152 78 m 1
 317 78 l 2
 383 78 436 128 449 201 c 0
 461 274 424 324 358 324 c 2
 193 324 l 1
 152 78 l 1
EndSplineSet
Validated: 33
EndChar

StartChar: Beta
Encoding: 914 914 33
Width: 600
GlyphClass: 1
Flags: W
LayerCount: 2
Fore
SplineSet
40 0 m 1
 157 700 l 1
 393 700 l 2
 505 700 573 625 556 521 c 0
 545 452 499 396 437 368 c 1
 436 364 l 1
 503 338 536 275 523 193 c 0
 505 81 406 0 289 0 c 2
 40 0 l 1
194 402 m 1
 347 402 l 2
 408 402 458 449 469 514 c 0
 479 579 445 622 384 622 c 2
 230 622 l 1
 194 402 l 1
140 78 m 1
 305 78 l 2
 371 78 424 128 437 201 c 0
 449 274 412 324 346 324 c 2
 181 324 l 1
 140 78 l 1
EndSplineSet
Validated: 33
EndChar

StartChar: C
Encoding: 67 67 34
Width: 600
GlyphClass: 1
Flags: W
LayerCount: 2
Fore
SplineSet
445 178 m 1
 529 178 l 1
 496 68 389 -10 274 -10 c 0
 116 -10 31 137 66 350 c 0
 102 564 235 710 392 710 c 0
 504 710 583 636 581 532 c 1
 498 532 l 1
 494 591 447 630 382 630 c 0
 272 630 183 519 154 349 c 0
 126 179 179 70 290 70 c 0
 359 70 421 113 445 178 c 1
EndSplineSet
Validated: 33
Substitution2: "+U1VOAGb/Y2IA +Z+VifgAA 72+Zv9O44ho" C.rightS
Substitution2: "+U1VOAGb/Y2IA +Z+VifgAA 71+Zv9O44ho" C.rightM
Substitution2: "+U1VOAGb/Y2IA +Z+VifgAA 70+Zv9O44ho" C.rightL
Substitution2: "+U1VOAGb/Y2IA +Z+VifgAA 69+Zv9O44ho" C.leftS
Substitution2: "+U1VOAGb/Y2IA +Z+VifgAA 68+Zv9O44ho" C.leftM
Substitution2: "+U1VOAGb/Y2IA +Z+VifgAA 67+Zv9O44ho" C.leftL
Substitution2: "+U1VOAGb/Y2IA +Z+VifgAA 66+Zv9O44ho" C.rightS
Substitution2: "+U1VOAGb/Y2IA +Z+VifgAA 65+Zv9O44ho" C.rightM
Substitution2: "+U1VOAGb/Y2IA +Z+VifgAA 64+Zv9O44ho" C.rightS
Substitution2: "+U1VOAGb/Y2IA +Z+VifgAA 63+Zv9O44ho" C.rightM
Substitution2: "+U1VOAGb/Y2IA +Z+VifgAA 62+Zv9O44ho" C.rightL
Substitution2: "+U1VOAGb/Y2IA +Z+VifgAA 61+Zv9O44ho" C.leftS
Substitution2: "+U1VOAGb/Y2IA +Z+VifgAA 60+Zv9O44ho" C.leftM
Substitution2: "+U1VOAGb/Y2IA +Z+VifgAA 59+Zv9O44ho" C.leftL
EndChar

StartChar: C.leftL
Encoding: 65550 -1 35
Width: 600
GlyphClass: 1
Flags: W
LayerCount: 2
Fore
SplineSet
401 178 m 1
 485 178 l 1
 452 68 345 -10 230 -10 c 0
 72 -10 -13 137 22 350 c 0
 58 564 191 710 348 710 c 0
 460 710 539 636 537 532 c 1
 454 532 l 1
 450 591 403 630 338 630 c 0
 228 630 139 519 110 349 c 0
 82 179 135 70 246 70 c 0
 315 70 377 113 401 178 c 1
EndSplineSet
Validated: 33
EndChar

StartChar: C.leftM
Encoding: 65551 -1 36
Width: 600
GlyphClass: 1
Flags: W
LayerCount: 2
Fore
SplineSet
415 178 m 1
 499 178 l 1
 466 68 359 -10 244 -10 c 0
 86 -10 1 137 36 350 c 0
 72 564 205 710 362 710 c 0
 474 710 553 636 551 532 c 1
 468 532 l 1
 464 591 417 630 352 630 c 0
 242 630 153 519 124 349 c 0
 96 179 149 70 260 70 c 0
 329 70 391 113 415 178 c 1
EndSplineSet
Validated: 33
EndChar

StartChar: C.leftS
Encoding: 65552 -1 37
Width: 600
GlyphClass: 1
Flags: W
LayerCount: 2
Fore
SplineSet
433 178 m 1
 517 178 l 1
 484 68 377 -10 262 -10 c 0
 104 -10 19 137 54 350 c 0
 90 564 223 710 380 710 c 0
 492 710 571 636 569 532 c 1
 486 532 l 1
 482 591 435 630 370 630 c 0
 260 630 171 519 142 349 c 0
 114 179 167 70 278 70 c 0
 347 70 409 113 433 178 c 1
EndSplineSet
Validated: 33
EndChar

StartChar: C.rightL
Encoding: 65553 -1 38
Width: 600
GlyphClass: 1
Flags: W
LayerCount: 2
Fore
SplineSet
489 178 m 1
 573 178 l 1
 540 68 433 -10 318 -10 c 0
 160 -10 75 137 110 350 c 0
 146 564 279 710 436 710 c 0
 548 710 627 636 625 532 c 1
 542 532 l 1
 538 591 491 630 426 630 c 0
 316 630 227 519 198 349 c 0
 170 179 223 70 334 70 c 0
 403 70 465 113 489 178 c 1
EndSplineSet
Validated: 33
EndChar

StartChar: C.rightM
Encoding: 65554 -1 39
Width: 600
GlyphClass: 1
Flags: W
LayerCount: 2
Fore
SplineSet
475 178 m 1
 559 178 l 1
 526 68 419 -10 304 -10 c 0
 146 -10 61 137 96 350 c 0
 132 564 265 710 422 710 c 0
 534 710 613 636 611 532 c 1
 528 532 l 1
 524 591 477 630 412 630 c 0
 302 630 213 519 184 349 c 0
 156 179 209 70 320 70 c 0
 389 70 451 113 475 178 c 1
EndSplineSet
Validated: 33
EndChar

StartChar: C.rightS
Encoding: 65555 -1 40
Width: 600
GlyphClass: 1
Flags: W
LayerCount: 2
Fore
SplineSet
463 178 m 1
 547 178 l 1
 514 68 407 -10 292 -10 c 0
 134 -10 49 137 84 350 c 0
 120 564 253 710 410 710 c 0
 522 710 601 636 599 532 c 1
 516 532 l 1
 512 591 465 630 400 630 c 0
 290 630 201 519 172 349 c 0
 144 179 197 70 308 70 c 0
 377 70 439 113 463 178 c 1
EndSplineSet
Validated: 33
EndChar

StartChar: Cacute
Encoding: 262 262 41
Width: 600
GlyphClass: 1
Flags: W
LayerCount: 2
Fore
SplineSet
445 178 m 1
 529 178 l 1
 496 68 389 -10 274 -10 c 0
 116 -10 31 137 66 350 c 0
 102 564 235 710 392 710 c 0
 504 710 583 636 581 532 c 1
 498 532 l 1
 494 591 447 630 382 630 c 0
 272 630 183 519 154 349 c 0
 126 179 179 70 290 70 c 0
 359 70 421 113 445 178 c 1
566 977 m 1
 420 792 l 1
 347 792 l 1
 455 977 l 1
 566 977 l 1
EndSplineSet
Validated: 33
EndChar

StartChar: Ccaron
Encoding: 268 268 42
Width: 600
GlyphClass: 1
Flags: W
LayerCount: 2
Fore
SplineSet
445 178 m 1
 529 178 l 1
 496 68 389 -10 274 -10 c 0
 116 -10 31 137 66 350 c 0
 102 564 235 710 392 710 c 0
 504 710 583 636 581 532 c 1
 498 532 l 1
 494 591 447 630 382 630 c 0
 272 630 183 519 154 349 c 0
 126 179 179 70 290 70 c 0
 359 70 421 113 445 178 c 1
356 785 m 1
 274 961 l 1
 347 961 l 1
 412 858 l 1
 511 961 l 1
 584 961 l 1
 445 785 l 1
 356 785 l 1
EndSplineSet
Validated: 33
EndChar

StartChar: Ccedilla
Encoding: 199 199 43
Width: 600
GlyphClass: 1
Flags: W
LayerCount: 2
Fore
SplineSet
207 -159 m 1
 207 -185 226 -203 256 -203 c 0
 287 -203 312 -183 317 -154 c 0
 322 -124 302 -104 271 -104 c 0
 256 -104 243 -109 233 -116 c 1
 192 -101 l 1
 225 -5 l 1
 99 23 35 160 66 350 c 0
 102 564 235 710 392 710 c 0
 504 710 583 636 581 532 c 1
 498 532 l 1
 494 591 447 630 382 630 c 0
 272 630 183 519 154 349 c 0
 126 179 179 70 290 70 c 0
 359 70 421 113 445 178 c 1
 529 178 l 1
 498 75 402 0 296 -9 c 1
 281 -53 l 1
 351 -44 396 -87 386 -151 c 0
 375 -214 315 -261 244 -261 c 0
 176 -261 133 -218 140 -159 c 1
 207 -159 l 1
EndSplineSet
Validated: 33
EndChar

StartChar: Ccircumflex
Encoding: 264 264 44
Width: 600
GlyphClass: 1
Flags: W
LayerCount: 2
Fore
SplineSet
445 178 m 1
 529 178 l 1
 496 68 389 -10 274 -10 c 0
 116 -10 31 137 66 350 c 0
 102 564 235 710 392 710 c 0
 504 710 583 636 581 532 c 1
 498 532 l 1
 494 591 447 630 382 630 c 0
 272 630 183 519 154 349 c 0
 126 179 179 70 290 70 c 0
 359 70 421 113 445 178 c 1
246 785 m 1
 385 961 l 1
 473 961 l 1
 555 785 l 1
 482 785 l 1
 417 889 l 1
 318 785 l 1
 246 785 l 1
EndSplineSet
Validated: 33
EndChar

StartChar: Cdotaccent
Encoding: 266 266 45
Width: 600
GlyphClass: 1
Flags: W
LayerCount: 2
Fore
SplineSet
445 178 m 1
 529 178 l 1
 496 68 389 -10 274 -10 c 0
 116 -10 31 137 66 350 c 0
 102 564 235 710 392 710 c 0
 504 710 583 636 581 532 c 1
 498 532 l 1
 494 591 447 630 382 630 c 0
 272 630 183 519 154 349 c 0
 126 179 179 70 290 70 c 0
 359 70 421 113 445 178 c 1
341 874 m 0
 348 915 387 947 427 947 c 0
 469 947 496 915 488 874 c 0
 482 833 444 800 403 800 c 0
 362 800 334 833 341 874 c 0
EndSplineSet
Validated: 33
Substitution2: "'cv03' +W1d7JlPYT1MA-03 +Z+VifgAA 2+Zv9O44ho" Cdotaccent.square
EndChar

StartChar: Cdotaccent.square
Encoding: 65556 -1 46
Width: 600
GlyphClass: 1
Flags: W
LayerCount: 2
Fore
SplineSet
445 178 m 1
 529 178 l 1
 496 68 389 -10 274 -10 c 0
 116 -10 31 137 66 350 c 0
 102 564 235 710 392 710 c 0
 504 710 583 636 581 532 c 1
 498 532 l 1
 494 591 447 630 382 630 c 0
 272 630 183 519 154 349 c 0
 126 179 179 70 290 70 c 0
 359 70 421 113 445 178 c 1
342 814 m 1
 363 941 l 1
 489 941 l 1
 469 814 l 1
 342 814 l 1
EndSplineSet
Validated: 33
EndChar

StartChar: Chi
Encoding: 935 935 47
Width: 600
GlyphClass: 1
Flags: W
LayerCount: 2
Fore
SplineSet
-39 0 m 1
 257 364 l 1
 94 700 l 1
 193 700 l 1
 323 435 l 1
 541 700 l 1
 638 700 l 1
 364 365 l 1
 539 0 l 1
 440 0 l 1
 298 293 l 1
 58 0 l 1
 -39 0 l 1
EndSplineSet
Validated: 1
EndChar

StartChar: D
Encoding: 68 68 48
Width: 600
GlyphClass: 1
Flags: W
LayerCount: 2
Fore
SplineSet
30 0 m 1
 147 700 l 1
 346 700 l 2
 515 700 606 558 571 350 c 0
 536 142 398 0 229 0 c 2
 30 0 l 1
130 78 m 1
 242 78 l 2
 361 78 456 184 483 350 c 0
 511 516 452 622 333 622 c 2
 221 622 l 1
 130 78 l 1
EndSplineSet
Validated: 33
Substitution2: "+U1VOAGb/Y2IA +Z+VifgAA 72+Zv9O44ho" D.rightS
Substitution2: "+U1VOAGb/Y2IA +Z+VifgAA 71+Zv9O44ho" D.rightM
Substitution2: "+U1VOAGb/Y2IA +Z+VifgAA 70+Zv9O44ho" D.rightL
Substitution2: "+U1VOAGb/Y2IA +Z+VifgAA 69+Zv9O44ho" D.leftS
Substitution2: "+U1VOAGb/Y2IA +Z+VifgAA 68+Zv9O44ho" D.leftM
Substitution2: "+U1VOAGb/Y2IA +Z+VifgAA 67+Zv9O44ho" D.leftL
Substitution2: "+U1VOAGb/Y2IA +Z+VifgAA 66+Zv9O44ho" D.rightS
Substitution2: "+U1VOAGb/Y2IA +Z+VifgAA 65+Zv9O44ho" D.rightM
Substitution2: "+U1VOAGb/Y2IA +Z+VifgAA 64+Zv9O44ho" D.rightS
Substitution2: "+U1VOAGb/Y2IA +Z+VifgAA 63+Zv9O44ho" D.rightM
Substitution2: "+U1VOAGb/Y2IA +Z+VifgAA 62+Zv9O44ho" D.rightL
Substitution2: "+U1VOAGb/Y2IA +Z+VifgAA 61+Zv9O44ho" D.leftS
Substitution2: "+U1VOAGb/Y2IA +Z+VifgAA 60+Zv9O44ho" D.leftM
Substitution2: "+U1VOAGb/Y2IA +Z+VifgAA 59+Zv9O44ho" D.leftL
EndChar

StartChar: D.leftL
Encoding: 65557 -1 49
Width: 600
GlyphClass: 1
Flags: W
LayerCount: 2
Fore
SplineSet
-14 0 m 1
 103 700 l 1
 302 700 l 2
 471 700 562 558 527 350 c 0
 492 142 354 0 185 0 c 2
 -14 0 l 1
86 78 m 1
 198 78 l 2
 317 78 412 184 439 350 c 0
 467 516 408 622 289 622 c 2
 177 622 l 1
 86 78 l 1
EndSplineSet
Validated: 33
EndChar

StartChar: D.leftM
Encoding: 65558 -1 50
Width: 600
GlyphClass: 1
Flags: W
LayerCount: 2
Fore
SplineSet
0 0 m 1
 117 700 l 1
 316 700 l 2
 485 700 576 558 541 350 c 0
 506 142 368 0 199 0 c 2
 0 0 l 1
100 78 m 1
 212 78 l 2
 331 78 426 184 453 350 c 0
 481 516 422 622 303 622 c 2
 191 622 l 1
 100 78 l 1
EndSplineSet
Validated: 33
EndChar

StartChar: D.leftS
Encoding: 65559 -1 51
Width: 600
GlyphClass: 1
Flags: W
LayerCount: 2
Fore
SplineSet
18 0 m 1
 135 700 l 1
 334 700 l 2
 503 700 594 558 559 350 c 0
 524 142 386 0 217 0 c 2
 18 0 l 1
118 78 m 1
 230 78 l 2
 349 78 444 184 471 350 c 0
 499 516 440 622 321 622 c 2
 209 622 l 1
 118 78 l 1
EndSplineSet
Validated: 33
EndChar

StartChar: D.rightL
Encoding: 65560 -1 52
Width: 600
GlyphClass: 1
Flags: W
LayerCount: 2
Fore
SplineSet
74 0 m 1
 191 700 l 1
 390 700 l 2
 559 700 650 558 615 350 c 0
 580 142 442 0 273 0 c 2
 74 0 l 1
174 78 m 1
 286 78 l 2
 405 78 500 184 527 350 c 0
 555 516 496 622 377 622 c 2
 265 622 l 1
 174 78 l 1
EndSplineSet
Validated: 33
EndChar

StartChar: D.rightM
Encoding: 65561 -1 53
Width: 600
GlyphClass: 1
Flags: W
LayerCount: 2
Fore
SplineSet
60 0 m 1
 177 700 l 1
 376 700 l 2
 545 700 636 558 601 350 c 0
 566 142 428 0 259 0 c 2
 60 0 l 1
160 78 m 1
 272 78 l 2
 391 78 486 184 513 350 c 0
 541 516 482 622 363 622 c 2
 251 622 l 1
 160 78 l 1
EndSplineSet
Validated: 33
EndChar

StartChar: D.rightS
Encoding: 65562 -1 54
Width: 600
GlyphClass: 1
Flags: W
LayerCount: 2
Fore
SplineSet
48 0 m 1
 165 700 l 1
 364 700 l 2
 533 700 624 558 589 350 c 0
 554 142 416 0 247 0 c 2
 48 0 l 1
148 78 m 1
 260 78 l 2
 379 78 474 184 501 350 c 0
 529 516 470 622 351 622 c 2
 239 622 l 1
 148 78 l 1
EndSplineSet
Validated: 33
EndChar

StartChar: Dcaron
Encoding: 270 270 55
Width: 600
GlyphClass: 1
Flags: W
LayerCount: 2
Fore
SplineSet
30 0 m 1
 147 700 l 1
 346 700 l 2
 515 700 606 558 571 350 c 0
 536 142 398 0 229 0 c 2
 30 0 l 1
130 78 m 1
 242 78 l 2
 361 78 456 184 483 350 c 0
 511 516 452 622 333 622 c 2
 221 622 l 1
 130 78 l 1
373 785 m 1
 291 961 l 1
 364 961 l 1
 429 858 l 1
 528 961 l 1
 601 961 l 1
 462 785 l 1
 373 785 l 1
EndSplineSet
Validated: 33
EndChar

StartChar: Dcroat
Encoding: 272 272 56
Width: 600
GlyphClass: 1
Flags: W
LayerCount: 2
Fore
SplineSet
30 0 m 1
 83 314 l 1
 22 314 l 1
 35 387 l 1
 95 387 l 1
 147 700 l 1
 346 700 l 2
 515 700 606 558 571 350 c 0
 536 142 398 0 229 0 c 2
 30 0 l 1
130 78 m 1
 242 78 l 2
 361 78 456 184 483 350 c 0
 511 516 452 622 333 622 c 2
 221 622 l 1
 182 387 l 1
 335 387 l 1
 322 314 l 1
 169 314 l 1
 130 78 l 1
EndSplineSet
Validated: 33
EndChar

StartChar: uni0394
Encoding: 916 916 57
Width: 600
GlyphClass: 1
Flags: W
LayerCount: 2
Fore
SplineSet
-22 0 m 1
 308 700 l 1
 426 700 l 1
 522 0 l 1
 -22 0 l 1
99 78 m 1
 425 78 l 1
 352 608 l 1
 348 608 l 1
 99 78 l 1
EndSplineSet
Validated: 1
EndChar

StartChar: E
Encoding: 69 69 58
Width: 600
GlyphClass: 1
Flags: W
LayerCount: 2
Fore
SplineSet
63 0 m 1
 180 700 l 1
 596 700 l 1
 582 622 l 1
 253 622 l 1
 217 402 l 1
 502 402 l 1
 489 324 l 1
 204 324 l 1
 163 78 l 1
 491 78 l 1
 479 0 l 1
 63 0 l 1
EndSplineSet
Validated: 1
Substitution2: "+U1VOAGb/Y2IA +Z+VifgAA 72+Zv9O44ho" E.rightS
Substitution2: "+U1VOAGb/Y2IA +Z+VifgAA 71+Zv9O44ho" E.rightM
Substitution2: "+U1VOAGb/Y2IA +Z+VifgAA 70+Zv9O44ho" E.rightL
Substitution2: "+U1VOAGb/Y2IA +Z+VifgAA 69+Zv9O44ho" E.leftS
Substitution2: "+U1VOAGb/Y2IA +Z+VifgAA 68+Zv9O44ho" E.leftM
Substitution2: "+U1VOAGb/Y2IA +Z+VifgAA 67+Zv9O44ho" E.leftL
Substitution2: "+U1VOAGb/Y2IA +Z+VifgAA 66+Zv9O44ho" E.rightS
Substitution2: "+U1VOAGb/Y2IA +Z+VifgAA 65+Zv9O44ho" E.rightM
Substitution2: "+U1VOAGb/Y2IA +Z+VifgAA 64+Zv9O44ho" E.rightS
Substitution2: "+U1VOAGb/Y2IA +Z+VifgAA 63+Zv9O44ho" E.rightM
Substitution2: "+U1VOAGb/Y2IA +Z+VifgAA 62+Zv9O44ho" E.rightL
Substitution2: "+U1VOAGb/Y2IA +Z+VifgAA 61+Zv9O44ho" E.leftS
Substitution2: "+U1VOAGb/Y2IA +Z+VifgAA 60+Zv9O44ho" E.leftM
Substitution2: "+U1VOAGb/Y2IA +Z+VifgAA 59+Zv9O44ho" E.leftL
EndChar

StartChar: E.leftL
Encoding: 65563 -1 59
Width: 600
GlyphClass: 1
Flags: W
LayerCount: 2
Fore
SplineSet
19 0 m 1
 136 700 l 1
 552 700 l 1
 538 622 l 1
 209 622 l 1
 173 402 l 1
 458 402 l 1
 445 324 l 1
 160 324 l 1
 119 78 l 1
 447 78 l 1
 435 0 l 1
 19 0 l 1
EndSplineSet
Validated: 1
EndChar

StartChar: E.leftM
Encoding: 65564 -1 60
Width: 600
GlyphClass: 1
Flags: W
LayerCount: 2
Fore
SplineSet
33 0 m 1
 150 700 l 1
 566 700 l 1
 552 622 l 1
 223 622 l 1
 187 402 l 1
 472 402 l 1
 459 324 l 1
 174 324 l 1
 133 78 l 1
 461 78 l 1
 449 0 l 1
 33 0 l 1
EndSplineSet
Validated: 1
EndChar

StartChar: E.leftS
Encoding: 65565 -1 61
Width: 600
GlyphClass: 1
Flags: W
LayerCount: 2
Fore
SplineSet
45 0 m 1
 162 700 l 1
 578 700 l 1
 564 622 l 1
 235 622 l 1
 199 402 l 1
 484 402 l 1
 471 324 l 1
 186 324 l 1
 145 78 l 1
 473 78 l 1
 461 0 l 1
 45 0 l 1
EndSplineSet
Validated: 1
EndChar

StartChar: E.rightL
Encoding: 65566 -1 62
Width: 600
GlyphClass: 1
Flags: W
LayerCount: 2
Fore
SplineSet
107 0 m 1
 224 700 l 1
 640 700 l 1
 626 622 l 1
 297 622 l 1
 261 402 l 1
 546 402 l 1
 533 324 l 1
 248 324 l 1
 207 78 l 1
 535 78 l 1
 523 0 l 1
 107 0 l 1
EndSplineSet
Validated: 1
EndChar

StartChar: E.rightM
Encoding: 65567 -1 63
Width: 600
GlyphClass: 1
Flags: W
LayerCount: 2
Fore
SplineSet
93 0 m 1
 210 700 l 1
 626 700 l 1
 612 622 l 1
 283 622 l 1
 247 402 l 1
 532 402 l 1
 519 324 l 1
 234 324 l 1
 193 78 l 1
 521 78 l 1
 509 0 l 1
 93 0 l 1
EndSplineSet
Validated: 1
EndChar

StartChar: E.rightS
Encoding: 65568 -1 64
Width: 600
GlyphClass: 1
Flags: W
LayerCount: 2
Fore
SplineSet
81 0 m 1
 198 700 l 1
 614 700 l 1
 600 622 l 1
 271 622 l 1
 235 402 l 1
 520 402 l 1
 507 324 l 1
 222 324 l 1
 181 78 l 1
 509 78 l 1
 497 0 l 1
 81 0 l 1
EndSplineSet
Validated: 1
EndChar

StartChar: Eacute
Encoding: 201 201 65
Width: 600
GlyphClass: 1
Flags: W
LayerCount: 2
Fore
SplineSet
63 0 m 1
 180 700 l 1
 596 700 l 1
 582 622 l 1
 253 622 l 1
 217 402 l 1
 502 402 l 1
 489 324 l 1
 204 324 l 1
 163 78 l 1
 491 78 l 1
 479 0 l 1
 63 0 l 1
566 977 m 1
 420 792 l 1
 347 792 l 1
 455 977 l 1
 566 977 l 1
EndSplineSet
Validated: 1
EndChar

StartChar: Ebreve
Encoding: 276 276 66
Width: 600
GlyphClass: 1
Flags: W
LayerCount: 2
Fore
SplineSet
63 0 m 1
 180 700 l 1
 596 700 l 1
 582 622 l 1
 253 622 l 1
 217 402 l 1
 502 402 l 1
 489 324 l 1
 204 324 l 1
 163 78 l 1
 491 78 l 1
 479 0 l 1
 63 0 l 1
358 923 m 1
 355 879 376 850 411 850 c 0
 446 850 477 879 488 923 c 1
 557 923 l 1
 544 843 478 786 400 786 c 0
 322 786 276 843 289 923 c 1
 358 923 l 1
EndSplineSet
Validated: 33
EndChar

StartChar: Ecaron
Encoding: 282 282 67
Width: 600
GlyphClass: 1
Flags: W
LayerCount: 2
Fore
SplineSet
63 0 m 1
 180 700 l 1
 596 700 l 1
 582 622 l 1
 253 622 l 1
 217 402 l 1
 502 402 l 1
 489 324 l 1
 204 324 l 1
 163 78 l 1
 491 78 l 1
 479 0 l 1
 63 0 l 1
356 785 m 1
 274 961 l 1
 347 961 l 1
 412 858 l 1
 511 961 l 1
 584 961 l 1
 445 785 l 1
 356 785 l 1
EndSplineSet
Validated: 1
EndChar

StartChar: Ecircumflex
Encoding: 202 202 68
Width: 600
GlyphClass: 1
Flags: W
LayerCount: 2
Fore
SplineSet
63 0 m 1
 180 700 l 1
 596 700 l 1
 582 622 l 1
 253 622 l 1
 217 402 l 1
 502 402 l 1
 489 324 l 1
 204 324 l 1
 163 78 l 1
 491 78 l 1
 479 0 l 1
 63 0 l 1
246 785 m 1
 385 961 l 1
 473 961 l 1
 555 785 l 1
 482 785 l 1
 417 889 l 1
 318 785 l 1
 246 785 l 1
EndSplineSet
Validated: 1
EndChar

StartChar: Edieresis
Encoding: 203 203 69
Width: 600
GlyphClass: 1
Flags: W
LayerCount: 2
Fore
SplineSet
63 0 m 1
 180 700 l 1
 596 700 l 1
 582 622 l 1
 253 622 l 1
 217 402 l 1
 502 402 l 1
 489 324 l 1
 204 324 l 1
 163 78 l 1
 491 78 l 1
 479 0 l 1
 63 0 l 1
242 875 m 0
 249 913 284 943 322 943 c 0
 361 943 386 913 379 875 c 0
 373 837 338 806 300 806 c 0
 262 806 236 837 242 875 c 0
450 875 m 0
 457 913 492 943 530 943 c 0
 569 943 594 913 587 875 c 0
 581 837 546 806 508 806 c 0
 470 806 444 837 450 875 c 0
EndSplineSet
Validated: 33
Substitution2: "'cv03' +W1d7JlPYT1MA-03 +Z+VifgAA 2+Zv9O44ho" Edieresis.square
EndChar

StartChar: Edieresis.square
Encoding: 65569 -1 70
Width: 600
GlyphClass: 1
Flags: W
LayerCount: 2
Fore
SplineSet
63 0 m 1
 180 700 l 1
 596 700 l 1
 582 622 l 1
 253 622 l 1
 217 402 l 1
 502 402 l 1
 489 324 l 1
 204 324 l 1
 163 78 l 1
 491 78 l 1
 479 0 l 1
 63 0 l 1
239 810 m 1
 260 931 l 1
 381 931 l 1
 361 810 l 1
 239 810 l 1
447 810 m 1
 468 931 l 1
 589 931 l 1
 569 810 l 1
 447 810 l 1
EndSplineSet
Validated: 1
EndChar

StartChar: Edotaccent
Encoding: 278 278 71
Width: 600
GlyphClass: 1
Flags: W
LayerCount: 2
Fore
SplineSet
63 0 m 1
 180 700 l 1
 596 700 l 1
 582 622 l 1
 253 622 l 1
 217 402 l 1
 502 402 l 1
 489 324 l 1
 204 324 l 1
 163 78 l 1
 491 78 l 1
 479 0 l 1
 63 0 l 1
341 874 m 0
 348 915 387 947 427 947 c 0
 469 947 496 915 488 874 c 0
 482 833 444 800 403 800 c 0
 362 800 334 833 341 874 c 0
EndSplineSet
Validated: 33
Substitution2: "'cv03' +W1d7JlPYT1MA-03 +Z+VifgAA 2+Zv9O44ho" Edotaccent.square
EndChar

StartChar: Edotaccent.square
Encoding: 65570 -1 72
Width: 600
GlyphClass: 1
Flags: W
LayerCount: 2
Fore
SplineSet
63 0 m 1
 180 700 l 1
 596 700 l 1
 582 622 l 1
 253 622 l 1
 217 402 l 1
 502 402 l 1
 489 324 l 1
 204 324 l 1
 163 78 l 1
 491 78 l 1
 479 0 l 1
 63 0 l 1
342 814 m 1
 363 941 l 1
 489 941 l 1
 469 814 l 1
 342 814 l 1
EndSplineSet
Validated: 1
EndChar

StartChar: Egrave
Encoding: 200 200 73
Width: 600
GlyphClass: 1
Flags: W
LayerCount: 2
Fore
SplineSet
63 0 m 1
 180 700 l 1
 596 700 l 1
 582 622 l 1
 253 622 l 1
 217 402 l 1
 502 402 l 1
 489 324 l 1
 204 324 l 1
 163 78 l 1
 491 78 l 1
 479 0 l 1
 63 0 l 1
456 792 m 1
 383 792 l 1
 299 977 l 1
 410 977 l 1
 456 792 l 1
EndSplineSet
Validated: 1
EndChar

StartChar: Emacron
Encoding: 274 274 74
Width: 600
GlyphClass: 1
Flags: W
LayerCount: 2
Fore
SplineSet
63 0 m 1
 180 700 l 1
 596 700 l 1
 582 622 l 1
 253 622 l 1
 217 402 l 1
 502 402 l 1
 489 324 l 1
 204 324 l 1
 163 78 l 1
 491 78 l 1
 479 0 l 1
 63 0 l 1
253 830 m 1
 265 900 l 1
 573 900 l 1
 561 830 l 1
 253 830 l 1
EndSplineSet
Validated: 1
EndChar

StartChar: Eng
Encoding: 330 330 75
Width: 600
GlyphClass: 1
Flags: W
LayerCount: 2
Fore
SplineSet
428 127 m 1
 524 700 l 1
 605 700 l 1
 489 9 l 1
 490 9 l 1
 485 -19 l 2
 470 -111 423 -210 276 -210 c 0
 229 -210 197 -200 176 -187 c 1
 187 -117 l 1
 211 -130 240 -139 275 -139 c 0
 365 -139 391 -77 401 -19 c 2
 404 0 l 1
 376 0 l 1
 198 610 l 1
 194 610 l 1
 93 0 l 1
 12 0 l 1
 129 700 l 1
 257 700 l 1
 424 127 l 1
 428 127 l 1
EndSplineSet
Validated: 1
EndChar

StartChar: Eogonek
Encoding: 280 280 76
Width: 600
GlyphClass: 1
Flags: W
LayerCount: 2
Fore
SplineSet
63 0 m 1
 180 700 l 1
 596 700 l 1
 582 622 l 1
 253 622 l 1
 217 402 l 1
 502 402 l 1
 489 324 l 1
 204 324 l 1
 163 78 l 1
 491 78 l 1
 479 1 l 1
 481 0 l 1
 417 -23 382 -52 376 -87 c 0
 371 -120 393 -142 428 -142 c 0
 436 -142 446 -141 455 -139 c 1
 445 -200 l 1
 433 -203 419 -205 403 -205 c 0
 332 -205 291 -162 301 -101 c 0
 307 -62 333 -28 377 0 c 1
 63 0 l 1
EndSplineSet
Validated: 33
EndChar

StartChar: Epsilon
Encoding: 917 917 77
Width: 600
GlyphClass: 1
Flags: W
LayerCount: 2
Fore
SplineSet
63 0 m 1
 180 700 l 1
 596 700 l 1
 582 622 l 1
 253 622 l 1
 217 402 l 1
 502 402 l 1
 489 324 l 1
 204 324 l 1
 163 78 l 1
 491 78 l 1
 479 0 l 1
 63 0 l 1
EndSplineSet
Validated: 1
EndChar

StartChar: Epsilontonos
Encoding: 904 904 78
Width: 600
GlyphClass: 1
Flags: W
LayerCount: 2
Fore
SplineSet
63 0 m 1
 180 700 l 1
 596 700 l 1
 582 622 l 1
 253 622 l 1
 217 402 l 1
 502 402 l 1
 489 324 l 1
 204 324 l 1
 163 78 l 1
 491 78 l 1
 479 0 l 1
 63 0 l 1
178 774 m 1
 77 572 l 1
 11 572 l 1
 78 774 l 1
 178 774 l 1
EndSplineSet
Validated: 1
EndChar

StartChar: Eta
Encoding: 919 919 79
Width: 600
GlyphClass: 1
Flags: W
LayerCount: 2
Fore
SplineSet
16 0 m 1
 133 700 l 1
 220 700 l 1
 170 402 l 1
 464 402 l 1
 514 700 l 1
 601 700 l 1
 484 0 l 1
 397 0 l 1
 450 322 l 1
 157 322 l 1
 103 0 l 1
 16 0 l 1
EndSplineSet
Validated: 1
EndChar

StartChar: Etatonos
Encoding: 905 905 80
Width: 600
GlyphClass: 1
Flags: W
LayerCount: 2
Fore
SplineSet
16 0 m 1
 133 700 l 1
 220 700 l 1
 170 402 l 1
 464 402 l 1
 514 700 l 1
 601 700 l 1
 484 0 l 1
 397 0 l 1
 450 322 l 1
 157 322 l 1
 103 0 l 1
 16 0 l 1
132 774 m 1
 31 572 l 1
 -35 572 l 1
 32 774 l 1
 132 774 l 1
EndSplineSet
Validated: 1
EndChar

StartChar: Eth
Encoding: 208 208 81
Width: 600
GlyphClass: 1
Flags: W
LayerCount: 2
Fore
SplineSet
30 0 m 1
 83 314 l 1
 22 314 l 1
 35 387 l 1
 95 387 l 1
 147 700 l 1
 346 700 l 2
 515 700 606 558 571 350 c 0
 536 142 398 0 229 0 c 2
 30 0 l 1
130 78 m 1
 242 78 l 2
 361 78 456 184 483 350 c 0
 511 516 452 622 333 622 c 2
 221 622 l 1
 182 387 l 1
 335 387 l 1
 322 314 l 1
 169 314 l 1
 130 78 l 1
EndSplineSet
Validated: 33
EndChar

StartChar: Euro
Encoding: 8364 8364 82
Width: 600
GlyphClass: 1
Flags: W
LayerCount: 2
Fore
SplineSet
29 389 m 1
 40 457 l 1
 94 457 l 1
 150 611 263 710 393 710 c 0
 504 710 583 636 581 532 c 1
 498 532 l 1
 494 591 447 630 381 630 c 0
 297 630 225 565 183 457 c 1
 451 457 l 1
 422 389 l 1
 162 389 l 1
 159 376 157 363 154 349 c 0
 153 339 151 330 150 321 c 1
 397 321 l 1
 368 253 l 1
 147 253 l 1
 150 139 201 70 289 70 c 0
 359 70 421 113 445 178 c 1
 529 178 l 1
 496 68 389 -10 274 -10 c 0
 141 -10 60 94 59 253 c 1
 6 253 l 1
 17 321 l 1
 62 321 l 1
 63 331 65 340 66 350 c 0
 69 363 71 376 74 389 c 1
 29 389 l 1
EndSplineSet
Validated: 33
EndChar

StartChar: F
Encoding: 70 70 83
Width: 600
GlyphClass: 1
Flags: W
LayerCount: 2
Fore
SplineSet
66 0 m 1
 183 700 l 1
 599 700 l 1
 586 622 l 1
 257 622 l 1
 218 389 l 1
 503 389 l 1
 490 311 l 1
 205 311 l 1
 154 0 l 1
 66 0 l 1
EndSplineSet
Validated: 1
Substitution2: "+U1VOAGb/Y2IA +Z+VifgAA 72+Zv9O44ho" F.rightS
Substitution2: "+U1VOAGb/Y2IA +Z+VifgAA 71+Zv9O44ho" F.rightM
Substitution2: "+U1VOAGb/Y2IA +Z+VifgAA 70+Zv9O44ho" F.rightL
Substitution2: "+U1VOAGb/Y2IA +Z+VifgAA 69+Zv9O44ho" F.leftS
Substitution2: "+U1VOAGb/Y2IA +Z+VifgAA 68+Zv9O44ho" F.leftM
Substitution2: "+U1VOAGb/Y2IA +Z+VifgAA 67+Zv9O44ho" F.leftL
Substitution2: "+U1VOAGb/Y2IA +Z+VifgAA 66+Zv9O44ho" F.rightS
Substitution2: "+U1VOAGb/Y2IA +Z+VifgAA 65+Zv9O44ho" F.rightM
Substitution2: "+U1VOAGb/Y2IA +Z+VifgAA 64+Zv9O44ho" F.rightS
Substitution2: "+U1VOAGb/Y2IA +Z+VifgAA 63+Zv9O44ho" F.rightM
Substitution2: "+U1VOAGb/Y2IA +Z+VifgAA 62+Zv9O44ho" F.rightL
Substitution2: "+U1VOAGb/Y2IA +Z+VifgAA 61+Zv9O44ho" F.leftS
Substitution2: "+U1VOAGb/Y2IA +Z+VifgAA 60+Zv9O44ho" F.leftM
Substitution2: "+U1VOAGb/Y2IA +Z+VifgAA 59+Zv9O44ho" F.leftL
EndChar

StartChar: F.leftL
Encoding: 65571 -1 84
Width: 600
GlyphClass: 1
Flags: W
LayerCount: 2
Fore
SplineSet
22 0 m 1
 139 700 l 1
 555 700 l 1
 542 622 l 1
 213 622 l 1
 174 389 l 1
 459 389 l 1
 446 311 l 1
 161 311 l 1
 110 0 l 1
 22 0 l 1
EndSplineSet
Validated: 1
EndChar

StartChar: F.leftM
Encoding: 65572 -1 85
Width: 600
GlyphClass: 1
Flags: W
LayerCount: 2
Fore
SplineSet
36 0 m 1
 153 700 l 1
 569 700 l 1
 556 622 l 1
 227 622 l 1
 188 389 l 1
 473 389 l 1
 460 311 l 1
 175 311 l 1
 124 0 l 1
 36 0 l 1
EndSplineSet
Validated: 1
EndChar

StartChar: F.leftS
Encoding: 65573 -1 86
Width: 600
GlyphClass: 1
Flags: W
LayerCount: 2
Fore
SplineSet
48 0 m 1
 165 700 l 1
 581 700 l 1
 568 622 l 1
 239 622 l 1
 200 389 l 1
 485 389 l 1
 472 311 l 1
 187 311 l 1
 136 0 l 1
 48 0 l 1
EndSplineSet
Validated: 1
EndChar

StartChar: F.rightL
Encoding: 65574 -1 87
Width: 600
GlyphClass: 1
Flags: W
LayerCount: 2
Fore
SplineSet
110 0 m 1
 227 700 l 1
 643 700 l 1
 630 622 l 1
 301 622 l 1
 262 389 l 1
 547 389 l 1
 534 311 l 1
 249 311 l 1
 198 0 l 1
 110 0 l 1
EndSplineSet
Validated: 1
EndChar

StartChar: F.rightM
Encoding: 65575 -1 88
Width: 600
GlyphClass: 1
Flags: W
LayerCount: 2
Fore
SplineSet
96 0 m 1
 213 700 l 1
 629 700 l 1
 616 622 l 1
 287 622 l 1
 248 389 l 1
 533 389 l 1
 520 311 l 1
 235 311 l 1
 184 0 l 1
 96 0 l 1
EndSplineSet
Validated: 1
EndChar

StartChar: F.rightS
Encoding: 65576 -1 89
Width: 600
GlyphClass: 1
Flags: W
LayerCount: 2
Fore
SplineSet
84 0 m 1
 201 700 l 1
 617 700 l 1
 604 622 l 1
 275 622 l 1
 236 389 l 1
 521 389 l 1
 508 311 l 1
 223 311 l 1
 172 0 l 1
 84 0 l 1
EndSplineSet
Validated: 1
EndChar

StartChar: G
Encoding: 71 71 90
Width: 600
GlyphClass: 1
Flags: W
LayerCount: 2
Fore
SplineSet
297 299 m 1
 310 377 l 1
 551 377 l 1
 488 0 l 1
 409 0 l 1
 427 106 l 1
 423 106 l 1
 375 34 307 -10 231 -10 c 0
 92 -10 15 138 49 346 c 0
 85 562 219 710 378 710 c 0
 491 710 572 636 571 532 c 1
 487 532 l 1
 482 591 434 630 368 630 c 0
 256 630 166 520 137 348 c 0
 109 181 158 68 258 68 c 0
 350 68 431 163 454 299 c 1
 297 299 l 1
EndSplineSet
Validated: 33
Substitution2: "+U1VOAGb/Y2IA +Z+VifgAA 72+Zv9O44ho" G.rightS
Substitution2: "+U1VOAGb/Y2IA +Z+VifgAA 71+Zv9O44ho" G.rightM
Substitution2: "+U1VOAGb/Y2IA +Z+VifgAA 70+Zv9O44ho" G.rightL
Substitution2: "+U1VOAGb/Y2IA +Z+VifgAA 69+Zv9O44ho" G.leftS
Substitution2: "+U1VOAGb/Y2IA +Z+VifgAA 68+Zv9O44ho" G.leftM
Substitution2: "+U1VOAGb/Y2IA +Z+VifgAA 67+Zv9O44ho" G.leftL
Substitution2: "+U1VOAGb/Y2IA +Z+VifgAA 66+Zv9O44ho" G.rightS
Substitution2: "+U1VOAGb/Y2IA +Z+VifgAA 65+Zv9O44ho" G.rightM
Substitution2: "+U1VOAGb/Y2IA +Z+VifgAA 64+Zv9O44ho" G.rightS
Substitution2: "+U1VOAGb/Y2IA +Z+VifgAA 63+Zv9O44ho" G.rightM
Substitution2: "+U1VOAGb/Y2IA +Z+VifgAA 62+Zv9O44ho" G.rightL
Substitution2: "+U1VOAGb/Y2IA +Z+VifgAA 61+Zv9O44ho" G.leftS
Substitution2: "+U1VOAGb/Y2IA +Z+VifgAA 60+Zv9O44ho" G.leftM
Substitution2: "+U1VOAGb/Y2IA +Z+VifgAA 59+Zv9O44ho" G.leftL
EndChar

StartChar: G.leftL
Encoding: 65577 -1 91
Width: 600
GlyphClass: 1
Flags: W
LayerCount: 2
Fore
SplineSet
253 299 m 1
 266 377 l 1
 507 377 l 1
 444 0 l 1
 365 0 l 1
 383 106 l 1
 379 106 l 1
 331 34 263 -10 187 -10 c 0
 48 -10 -29 138 5 346 c 0
 41 562 175 710 334 710 c 0
 447 710 528 636 527 532 c 1
 443 532 l 1
 438 591 390 630 324 630 c 0
 212 630 122 520 93 348 c 0
 65 181 114 68 214 68 c 0
 306 68 387 163 410 299 c 1
 253 299 l 1
EndSplineSet
Validated: 33
EndChar

StartChar: G.leftM
Encoding: 65578 -1 92
Width: 600
GlyphClass: 1
Flags: W
LayerCount: 2
Fore
SplineSet
267 299 m 1
 280 377 l 1
 521 377 l 1
 458 0 l 1
 379 0 l 1
 397 106 l 1
 393 106 l 1
 345 34 277 -10 201 -10 c 0
 62 -10 -15 138 19 346 c 0
 55 562 189 710 348 710 c 0
 461 710 542 636 541 532 c 1
 457 532 l 1
 452 591 404 630 338 630 c 0
 226 630 136 520 107 348 c 0
 79 181 128 68 228 68 c 0
 320 68 401 163 424 299 c 1
 267 299 l 1
EndSplineSet
Validated: 33
EndChar

StartChar: G.leftS
Encoding: 65579 -1 93
Width: 600
GlyphClass: 1
Flags: W
LayerCount: 2
Fore
SplineSet
279 299 m 1
 292 377 l 1
 533 377 l 1
 470 0 l 1
 391 0 l 1
 409 106 l 1
 405 106 l 1
 357 34 289 -10 213 -10 c 0
 74 -10 -3 138 31 346 c 0
 67 562 201 710 360 710 c 0
 473 710 554 636 553 532 c 1
 469 532 l 1
 464 591 416 630 350 630 c 0
 238 630 148 520 119 348 c 0
 91 181 140 68 240 68 c 0
 332 68 413 163 436 299 c 1
 279 299 l 1
EndSplineSet
Validated: 33
EndChar

StartChar: G.rightL
Encoding: 65580 -1 94
Width: 600
GlyphClass: 1
Flags: W
LayerCount: 2
Fore
SplineSet
341 299 m 1
 354 377 l 1
 595 377 l 1
 532 0 l 1
 453 0 l 1
 471 106 l 1
 467 106 l 1
 419 34 351 -10 275 -10 c 0
 136 -10 59 138 93 346 c 0
 129 562 263 710 422 710 c 0
 535 710 616 636 615 532 c 1
 531 532 l 1
 526 591 478 630 412 630 c 0
 300 630 210 520 181 348 c 0
 153 181 202 68 302 68 c 0
 394 68 475 163 498 299 c 1
 341 299 l 1
EndSplineSet
Validated: 33
EndChar

StartChar: G.rightM
Encoding: 65581 -1 95
Width: 600
GlyphClass: 1
Flags: W
LayerCount: 2
Fore
SplineSet
327 299 m 1
 340 377 l 1
 581 377 l 1
 518 0 l 1
 439 0 l 1
 457 106 l 1
 453 106 l 1
 405 34 337 -10 261 -10 c 0
 122 -10 45 138 79 346 c 0
 115 562 249 710 408 710 c 0
 521 710 602 636 601 532 c 1
 517 532 l 1
 512 591 464 630 398 630 c 0
 286 630 196 520 167 348 c 0
 139 181 188 68 288 68 c 0
 380 68 461 163 484 299 c 1
 327 299 l 1
EndSplineSet
Validated: 33
EndChar

StartChar: G.rightS
Encoding: 65582 -1 96
Width: 600
GlyphClass: 1
Flags: W
LayerCount: 2
Fore
SplineSet
315 299 m 1
 328 377 l 1
 569 377 l 1
 506 0 l 1
 427 0 l 1
 445 106 l 1
 441 106 l 1
 393 34 325 -10 249 -10 c 0
 110 -10 33 138 67 346 c 0
 103 562 237 710 396 710 c 0
 509 710 590 636 589 532 c 1
 505 532 l 1
 500 591 452 630 386 630 c 0
 274 630 184 520 155 348 c 0
 127 181 176 68 276 68 c 0
 368 68 449 163 472 299 c 1
 315 299 l 1
EndSplineSet
Validated: 33
EndChar

StartChar: Gamma
Encoding: 915 915 97
Width: 600
GlyphClass: 1
Flags: W
LayerCount: 2
Fore
SplineSet
70 0 m 1
 187 700 l 1
 603 700 l 1
 590 622 l 1
 261 622 l 1
 158 0 l 1
 70 0 l 1
EndSplineSet
Validated: 1
EndChar

StartChar: Gbreve
Encoding: 286 286 98
Width: 600
GlyphClass: 1
Flags: W
LayerCount: 2
Fore
SplineSet
297 299 m 1
 310 377 l 1
 551 377 l 1
 488 0 l 1
 409 0 l 1
 427 106 l 1
 423 106 l 1
 375 34 307 -10 231 -10 c 0
 92 -10 15 138 49 346 c 0
 85 562 219 710 378 710 c 0
 491 710 572 636 571 532 c 1
 487 532 l 1
 482 591 434 630 368 630 c 0
 256 630 166 520 137 348 c 0
 109 181 158 68 258 68 c 0
 350 68 431 163 454 299 c 1
 297 299 l 1
343 923 m 1
 340 879 361 850 396 850 c 0
 431 850 462 879 473 923 c 1
 542 923 l 1
 529 843 463 786 385 786 c 0
 307 786 261 843 274 923 c 1
 343 923 l 1
EndSplineSet
Validated: 33
EndChar

StartChar: Gcircumflex
Encoding: 284 284 99
Width: 600
GlyphClass: 1
Flags: W
LayerCount: 2
Fore
SplineSet
297 299 m 1
 310 377 l 1
 551 377 l 1
 488 0 l 1
 409 0 l 1
 427 106 l 1
 423 106 l 1
 375 34 307 -10 231 -10 c 0
 92 -10 15 138 49 346 c 0
 85 562 219 710 378 710 c 0
 491 710 572 636 571 532 c 1
 487 532 l 1
 482 591 434 630 368 630 c 0
 256 630 166 520 137 348 c 0
 109 181 158 68 258 68 c 0
 350 68 431 163 454 299 c 1
 297 299 l 1
231 785 m 1
 370 961 l 1
 458 961 l 1
 540 785 l 1
 467 785 l 1
 402 889 l 1
 303 785 l 1
 231 785 l 1
EndSplineSet
Validated: 33
EndChar

StartChar: uni0122
Encoding: 290 290 100
Width: 600
GlyphClass: 1
Flags: W
LayerCount: 2
Fore
SplineSet
297 299 m 1
 310 377 l 1
 551 377 l 1
 488 0 l 1
 409 0 l 1
 427 106 l 1
 423 106 l 1
 375 34 307 -10 231 -10 c 0
 92 -10 15 138 49 346 c 0
 85 562 219 710 378 710 c 0
 491 710 572 636 571 532 c 1
 487 532 l 1
 482 591 434 630 368 630 c 0
 256 630 166 520 137 348 c 0
 109 181 158 68 258 68 c 0
 350 68 431 163 454 299 c 1
 297 299 l 1
275 -73 m 1
 128 -258 l 1
 55 -258 l 1
 164 -73 l 1
 275 -73 l 1
EndSplineSet
Validated: 33
EndChar

StartChar: Gdotaccent
Encoding: 288 288 101
Width: 600
GlyphClass: 1
Flags: W
LayerCount: 2
Fore
SplineSet
297 299 m 1
 310 377 l 1
 551 377 l 1
 488 0 l 1
 409 0 l 1
 427 106 l 1
 423 106 l 1
 375 34 307 -10 231 -10 c 0
 92 -10 15 138 49 346 c 0
 85 562 219 710 378 710 c 0
 491 710 572 636 571 532 c 1
 487 532 l 1
 482 591 434 630 368 630 c 0
 256 630 166 520 137 348 c 0
 109 181 158 68 258 68 c 0
 350 68 431 163 454 299 c 1
 297 299 l 1
326 874 m 0
 333 915 372 947 412 947 c 0
 454 947 481 915 473 874 c 0
 467 833 429 800 388 800 c 0
 347 800 319 833 326 874 c 0
EndSplineSet
Validated: 33
Substitution2: "'cv03' +W1d7JlPYT1MA-03 +Z+VifgAA 2+Zv9O44ho" Gdotaccent.square
EndChar

StartChar: Gdotaccent.square
Encoding: 65583 -1 102
Width: 600
GlyphClass: 1
Flags: W
LayerCount: 2
Fore
SplineSet
297 299 m 1
 310 377 l 1
 551 377 l 1
 488 0 l 1
 409 0 l 1
 427 106 l 1
 423 106 l 1
 375 34 307 -10 231 -10 c 0
 92 -10 15 138 49 346 c 0
 85 562 219 710 378 710 c 0
 491 710 572 636 571 532 c 1
 487 532 l 1
 482 591 434 630 368 630 c 0
 256 630 166 520 137 348 c 0
 109 181 158 68 258 68 c 0
 350 68 431 163 454 299 c 1
 297 299 l 1
327 814 m 1
 348 941 l 1
 474 941 l 1
 454 814 l 1
 327 814 l 1
EndSplineSet
Validated: 33
EndChar

StartChar: H
Encoding: 72 72 103
Width: 600
GlyphClass: 1
Flags: W
LayerCount: 2
Fore
SplineSet
16 0 m 1
 133 700 l 1
 220 700 l 1
 170 402 l 1
 464 402 l 1
 514 700 l 1
 601 700 l 1
 484 0 l 1
 397 0 l 1
 450 322 l 1
 157 322 l 1
 103 0 l 1
 16 0 l 1
EndSplineSet
Validated: 1
Substitution2: "+U1VOAGb/Y2IA +Z+VifgAA 72+Zv9O44ho" H.rightS
Substitution2: "+U1VOAGb/Y2IA +Z+VifgAA 71+Zv9O44ho" H.rightM
Substitution2: "+U1VOAGb/Y2IA +Z+VifgAA 70+Zv9O44ho" H.rightL
Substitution2: "+U1VOAGb/Y2IA +Z+VifgAA 69+Zv9O44ho" H.leftS
Substitution2: "+U1VOAGb/Y2IA +Z+VifgAA 68+Zv9O44ho" H.leftM
Substitution2: "+U1VOAGb/Y2IA +Z+VifgAA 67+Zv9O44ho" H.leftL
Substitution2: "+U1VOAGb/Y2IA +Z+VifgAA 66+Zv9O44ho" H.rightS
Substitution2: "+U1VOAGb/Y2IA +Z+VifgAA 65+Zv9O44ho" H.rightM
Substitution2: "+U1VOAGb/Y2IA +Z+VifgAA 64+Zv9O44ho" H.rightS
Substitution2: "+U1VOAGb/Y2IA +Z+VifgAA 63+Zv9O44ho" H.rightM
Substitution2: "+U1VOAGb/Y2IA +Z+VifgAA 62+Zv9O44ho" H.rightL
Substitution2: "+U1VOAGb/Y2IA +Z+VifgAA 61+Zv9O44ho" H.leftS
Substitution2: "+U1VOAGb/Y2IA +Z+VifgAA 60+Zv9O44ho" H.leftM
Substitution2: "+U1VOAGb/Y2IA +Z+VifgAA 59+Zv9O44ho" H.leftL
EndChar

StartChar: H.leftL
Encoding: 65584 -1 104
Width: 600
GlyphClass: 1
Flags: W
LayerCount: 2
Fore
SplineSet
-28 0 m 1
 89 700 l 1
 176 700 l 1
 126 402 l 1
 420 402 l 1
 470 700 l 1
 557 700 l 1
 440 0 l 1
 353 0 l 1
 406 322 l 1
 113 322 l 1
 59 0 l 1
 -28 0 l 1
EndSplineSet
Validated: 1
EndChar

StartChar: H.leftM
Encoding: 65585 -1 105
Width: 600
GlyphClass: 1
Flags: W
LayerCount: 2
Fore
SplineSet
-14 0 m 1
 103 700 l 1
 190 700 l 1
 140 402 l 1
 434 402 l 1
 484 700 l 1
 571 700 l 1
 454 0 l 1
 367 0 l 1
 420 322 l 1
 127 322 l 1
 73 0 l 1
 -14 0 l 1
EndSplineSet
Validated: 1
EndChar

StartChar: H.leftS
Encoding: 65586 -1 106
Width: 600
GlyphClass: 1
Flags: W
LayerCount: 2
Fore
SplineSet
-2 0 m 1
 115 700 l 1
 202 700 l 1
 152 402 l 1
 446 402 l 1
 496 700 l 1
 583 700 l 1
 466 0 l 1
 379 0 l 1
 432 322 l 1
 139 322 l 1
 85 0 l 1
 -2 0 l 1
EndSplineSet
Validated: 1
EndChar

StartChar: H.rightL
Encoding: 65587 -1 107
Width: 600
GlyphClass: 1
Flags: W
LayerCount: 2
Fore
SplineSet
60 0 m 1
 177 700 l 1
 264 700 l 1
 214 402 l 1
 508 402 l 1
 558 700 l 1
 645 700 l 1
 528 0 l 1
 441 0 l 1
 494 322 l 1
 201 322 l 1
 147 0 l 1
 60 0 l 1
EndSplineSet
Validated: 1
EndChar

StartChar: H.rightM
Encoding: 65588 -1 108
Width: 600
GlyphClass: 1
Flags: W
LayerCount: 2
Fore
SplineSet
46 0 m 1
 163 700 l 1
 250 700 l 1
 200 402 l 1
 494 402 l 1
 544 700 l 1
 631 700 l 1
 514 0 l 1
 427 0 l 1
 480 322 l 1
 187 322 l 1
 133 0 l 1
 46 0 l 1
EndSplineSet
Validated: 1
EndChar

StartChar: H.rightS
Encoding: 65589 -1 109
Width: 600
GlyphClass: 1
Flags: W
LayerCount: 2
Fore
SplineSet
34 0 m 1
 151 700 l 1
 238 700 l 1
 188 402 l 1
 482 402 l 1
 532 700 l 1
 619 700 l 1
 502 0 l 1
 415 0 l 1
 468 322 l 1
 175 322 l 1
 121 0 l 1
 34 0 l 1
EndSplineSet
Validated: 1
EndChar

StartChar: Hbar
Encoding: 294 294 110
Width: 600
GlyphClass: 1
Flags: W
LayerCount: 2
Fore
SplineSet
16 0 m 1
 100 502 l 1
 56 502 l 1
 66 563 l 1
 110 563 l 1
 133 700 l 1
 220 700 l 1
 197 563 l 1
 491 563 l 1
 514 700 l 1
 601 700 l 1
 578 563 l 1
 622 563 l 1
 612 502 l 1
 568 502 l 1
 484 0 l 1
 397 0 l 1
 444 286 l 1
 151 286 l 1
 103 0 l 1
 16 0 l 1
458 366 m 1
 481 502 l 1
 187 502 l 1
 164 366 l 1
 458 366 l 1
EndSplineSet
Validated: 1
EndChar

StartChar: Hcircumflex
Encoding: 292 292 111
Width: 600
GlyphClass: 1
Flags: W
LayerCount: 2
Fore
SplineSet
16 0 m 1
 133 700 l 1
 220 700 l 1
 170 402 l 1
 464 402 l 1
 514 700 l 1
 601 700 l 1
 484 0 l 1
 397 0 l 1
 450 322 l 1
 157 322 l 1
 103 0 l 1
 16 0 l 1
227 785 m 1
 366 961 l 1
 454 961 l 1
 536 785 l 1
 463 785 l 1
 398 889 l 1
 299 785 l 1
 227 785 l 1
EndSplineSet
Validated: 1
EndChar

StartChar: I
Encoding: 73 73 112
Width: 600
GlyphClass: 1
Flags: W
LayerCount: 2
Fore
SplineSet
48 0 m 1
 61 78 l 1
 219 78 l 1
 310 622 l 1
 154 622 l 1
 167 700 l 1
 567 700 l 1
 553 622 l 1
 397 622 l 1
 306 78 l 1
 465 78 l 1
 452 0 l 1
 48 0 l 1
EndSplineSet
Validated: 1
Substitution2: "+U1VOAGb/Y2IA +Z+VifgAA 72+Zv9O44ho" I.rightS
Substitution2: "+U1VOAGb/Y2IA +Z+VifgAA 71+Zv9O44ho" I.rightM
Substitution2: "+U1VOAGb/Y2IA +Z+VifgAA 70+Zv9O44ho" I.rightL
Substitution2: "+U1VOAGb/Y2IA +Z+VifgAA 69+Zv9O44ho" I.leftS
Substitution2: "+U1VOAGb/Y2IA +Z+VifgAA 68+Zv9O44ho" I.leftM
Substitution2: "+U1VOAGb/Y2IA +Z+VifgAA 67+Zv9O44ho" I.leftL
Substitution2: "+U1VOAGb/Y2IA +Z+VifgAA 66+Zv9O44ho" I.rightS
Substitution2: "+U1VOAGb/Y2IA +Z+VifgAA 65+Zv9O44ho" I.rightM
Substitution2: "+U1VOAGb/Y2IA +Z+VifgAA 64+Zv9O44ho" I.rightS
Substitution2: "+U1VOAGb/Y2IA +Z+VifgAA 63+Zv9O44ho" I.rightM
Substitution2: "+U1VOAGb/Y2IA +Z+VifgAA 62+Zv9O44ho" I.rightL
Substitution2: "+U1VOAGb/Y2IA +Z+VifgAA 61+Zv9O44ho" I.leftS
Substitution2: "+U1VOAGb/Y2IA +Z+VifgAA 60+Zv9O44ho" I.leftM
Substitution2: "+U1VOAGb/Y2IA +Z+VifgAA 59+Zv9O44ho" I.leftL
EndChar

StartChar: I.leftL
Encoding: 65590 -1 113
Width: 600
GlyphClass: 1
Flags: W
LayerCount: 2
Fore
SplineSet
4 0 m 1
 17 78 l 1
 175 78 l 1
 266 622 l 1
 110 622 l 1
 123 700 l 1
 523 700 l 1
 509 622 l 1
 353 622 l 1
 262 78 l 1
 421 78 l 1
 408 0 l 1
 4 0 l 1
EndSplineSet
Validated: 1
EndChar

StartChar: I.leftM
Encoding: 65591 -1 114
Width: 600
GlyphClass: 1
Flags: W
LayerCount: 2
Fore
SplineSet
18 0 m 1
 31 78 l 1
 189 78 l 1
 280 622 l 1
 124 622 l 1
 137 700 l 1
 537 700 l 1
 523 622 l 1
 367 622 l 1
 276 78 l 1
 435 78 l 1
 422 0 l 1
 18 0 l 1
EndSplineSet
Validated: 1
EndChar

StartChar: I.leftS
Encoding: 65592 -1 115
Width: 600
GlyphClass: 1
Flags: W
LayerCount: 2
Fore
SplineSet
30 0 m 1
 43 78 l 1
 201 78 l 1
 292 622 l 1
 136 622 l 1
 149 700 l 1
 549 700 l 1
 535 622 l 1
 379 622 l 1
 288 78 l 1
 447 78 l 1
 434 0 l 1
 30 0 l 1
EndSplineSet
Validated: 1
EndChar

StartChar: I.rightL
Encoding: 65593 -1 116
Width: 600
GlyphClass: 1
Flags: W
LayerCount: 2
Fore
SplineSet
92 0 m 1
 105 78 l 1
 263 78 l 1
 354 622 l 1
 198 622 l 1
 211 700 l 1
 611 700 l 1
 597 622 l 1
 441 622 l 1
 350 78 l 1
 509 78 l 1
 496 0 l 1
 92 0 l 1
EndSplineSet
Validated: 1
EndChar

StartChar: I.rightM
Encoding: 65594 -1 117
Width: 600
GlyphClass: 1
Flags: W
LayerCount: 2
Fore
SplineSet
78 0 m 1
 91 78 l 1
 249 78 l 1
 340 622 l 1
 184 622 l 1
 197 700 l 1
 597 700 l 1
 583 622 l 1
 427 622 l 1
 336 78 l 1
 495 78 l 1
 482 0 l 1
 78 0 l 1
EndSplineSet
Validated: 1
EndChar

StartChar: I.rightS
Encoding: 65595 -1 118
Width: 600
GlyphClass: 1
Flags: W
LayerCount: 2
Fore
SplineSet
66 0 m 1
 79 78 l 1
 237 78 l 1
 328 622 l 1
 172 622 l 1
 185 700 l 1
 585 700 l 1
 571 622 l 1
 415 622 l 1
 324 78 l 1
 483 78 l 1
 470 0 l 1
 66 0 l 1
EndSplineSet
Validated: 1
EndChar

StartChar: IJ
Encoding: 306 306 119
Width: 600
GlyphClass: 1
Flags: W
LayerCount: 2
Fore
SplineSet
76 278 m 1
 147 700 l 1
 234 700 l 1
 164 278 l 1
 76 278 l 1
61 178 m 1
 142 178 l 1
 135 113 184 68 260 68 c 0
 340 68 403 117 414 188 c 2
 488 622 l 1
 311 622 l 1
 324 700 l 1
 587 700 l 1
 502 187 l 2
 483 73 376 -10 248 -10 c 0
 124 -10 45 69 61 178 c 1
EndSplineSet
Validated: 33
EndChar

StartChar: Iacute
Encoding: 205 205 120
Width: 600
GlyphClass: 1
Flags: W
LayerCount: 2
Fore
SplineSet
48 0 m 1
 61 78 l 1
 219 78 l 1
 310 622 l 1
 154 622 l 1
 167 700 l 1
 567 700 l 1
 553 622 l 1
 397 622 l 1
 306 78 l 1
 465 78 l 1
 452 0 l 1
 48 0 l 1
547 977 m 1
 401 792 l 1
 328 792 l 1
 436 977 l 1
 547 977 l 1
EndSplineSet
Validated: 1
EndChar

StartChar: Ibreve
Encoding: 300 300 121
Width: 600
GlyphClass: 1
Flags: W
LayerCount: 2
Fore
SplineSet
48 0 m 1
 61 78 l 1
 219 78 l 1
 310 622 l 1
 154 622 l 1
 167 700 l 1
 567 700 l 1
 553 622 l 1
 397 622 l 1
 306 78 l 1
 465 78 l 1
 452 0 l 1
 48 0 l 1
339 923 m 1
 336 879 357 850 392 850 c 0
 427 850 458 879 469 923 c 1
 538 923 l 1
 525 843 459 786 381 786 c 0
 303 786 257 843 270 923 c 1
 339 923 l 1
EndSplineSet
Validated: 33
EndChar

StartChar: Icircumflex
Encoding: 206 206 122
Width: 600
GlyphClass: 1
Flags: W
LayerCount: 2
Fore
SplineSet
48 0 m 1
 61 78 l 1
 219 78 l 1
 310 622 l 1
 154 622 l 1
 167 700 l 1
 567 700 l 1
 553 622 l 1
 397 622 l 1
 306 78 l 1
 465 78 l 1
 452 0 l 1
 48 0 l 1
227 785 m 1
 366 961 l 1
 454 961 l 1
 536 785 l 1
 463 785 l 1
 398 889 l 1
 299 785 l 1
 227 785 l 1
EndSplineSet
Validated: 1
EndChar

StartChar: Idieresis
Encoding: 207 207 123
Width: 600
GlyphClass: 1
Flags: W
LayerCount: 2
Fore
SplineSet
48 0 m 1
 61 78 l 1
 219 78 l 1
 310 622 l 1
 154 622 l 1
 167 700 l 1
 567 700 l 1
 553 622 l 1
 397 622 l 1
 306 78 l 1
 465 78 l 1
 452 0 l 1
 48 0 l 1
223 875 m 0
 230 913 265 943 303 943 c 0
 342 943 367 913 360 875 c 0
 354 837 319 806 281 806 c 0
 243 806 217 837 223 875 c 0
431 875 m 0
 438 913 473 943 511 943 c 0
 550 943 575 913 568 875 c 0
 562 837 527 806 489 806 c 0
 451 806 425 837 431 875 c 0
EndSplineSet
Validated: 33
Substitution2: "'cv03' +W1d7JlPYT1MA-03 +Z+VifgAA 2+Zv9O44ho" Idieresis.square
EndChar

StartChar: Idieresis.square
Encoding: 65596 -1 124
Width: 600
GlyphClass: 1
Flags: W
LayerCount: 2
Fore
SplineSet
48 0 m 1
 61 78 l 1
 219 78 l 1
 310 622 l 1
 154 622 l 1
 167 700 l 1
 567 700 l 1
 553 622 l 1
 397 622 l 1
 306 78 l 1
 465 78 l 1
 452 0 l 1
 48 0 l 1
220 810 m 1
 241 931 l 1
 362 931 l 1
 342 810 l 1
 220 810 l 1
428 810 m 1
 449 931 l 1
 570 931 l 1
 550 810 l 1
 428 810 l 1
EndSplineSet
Validated: 1
EndChar

StartChar: Idotaccent
Encoding: 304 304 125
Width: 600
GlyphClass: 1
Flags: W
LayerCount: 2
Fore
SplineSet
48 0 m 1
 61 78 l 1
 219 78 l 1
 310 622 l 1
 154 622 l 1
 167 700 l 1
 567 700 l 1
 553 622 l 1
 397 622 l 1
 306 78 l 1
 465 78 l 1
 452 0 l 1
 48 0 l 1
322 874 m 0
 329 915 368 947 408 947 c 0
 450 947 477 915 469 874 c 0
 463 833 425 800 384 800 c 0
 343 800 315 833 322 874 c 0
EndSplineSet
Validated: 33
Substitution2: "'cv03' +W1d7JlPYT1MA-03 +Z+VifgAA 2+Zv9O44ho" Idotaccent.square
EndChar

StartChar: Idotaccent.square
Encoding: 65597 -1 126
Width: 600
GlyphClass: 1
Flags: W
LayerCount: 2
Fore
SplineSet
48 0 m 1
 61 78 l 1
 219 78 l 1
 310 622 l 1
 154 622 l 1
 167 700 l 1
 567 700 l 1
 553 622 l 1
 397 622 l 1
 306 78 l 1
 465 78 l 1
 452 0 l 1
 48 0 l 1
323 814 m 1
 344 941 l 1
 470 941 l 1
 450 814 l 1
 323 814 l 1
EndSplineSet
Validated: 1
EndChar

StartChar: Igrave
Encoding: 204 204 127
Width: 600
GlyphClass: 1
Flags: W
LayerCount: 2
Fore
SplineSet
48 0 m 1
 61 78 l 1
 219 78 l 1
 310 622 l 1
 154 622 l 1
 167 700 l 1
 567 700 l 1
 553 622 l 1
 397 622 l 1
 306 78 l 1
 465 78 l 1
 452 0 l 1
 48 0 l 1
437 792 m 1
 364 792 l 1
 280 977 l 1
 391 977 l 1
 437 792 l 1
EndSplineSet
Validated: 1
EndChar

StartChar: Imacron
Encoding: 298 298 128
Width: 600
GlyphClass: 1
Flags: W
LayerCount: 2
Fore
SplineSet
48 0 m 1
 61 78 l 1
 219 78 l 1
 310 622 l 1
 154 622 l 1
 167 700 l 1
 567 700 l 1
 553 622 l 1
 397 622 l 1
 306 78 l 1
 465 78 l 1
 452 0 l 1
 48 0 l 1
234 830 m 1
 246 900 l 1
 554 900 l 1
 542 830 l 1
 234 830 l 1
EndSplineSet
Validated: 1
EndChar

StartChar: Iogonek
Encoding: 302 302 129
Width: 600
GlyphClass: 1
Flags: W
LayerCount: 2
Fore
SplineSet
48 0 m 1
 61 78 l 1
 219 78 l 1
 310 622 l 1
 154 622 l 1
 167 700 l 1
 567 700 l 1
 553 622 l 1
 397 622 l 1
 306 78 l 1
 465 78 l 1
 452 3 l 1
 456 0 l 1
 392 -23 357 -52 351 -87 c 0
 346 -120 368 -142 403 -142 c 0
 411 -142 421 -141 430 -139 c 1
 420 -200 l 1
 408 -203 394 -205 378 -205 c 0
 307 -205 266 -162 276 -101 c 0
 282 -62 308 -28 352 0 c 1
 48 0 l 1
EndSplineSet
Validated: 33
EndChar

StartChar: Iota
Encoding: 921 921 130
Width: 600
GlyphClass: 1
Flags: W
LayerCount: 2
Fore
SplineSet
48 0 m 1
 61 78 l 1
 219 78 l 1
 310 622 l 1
 154 622 l 1
 167 700 l 1
 567 700 l 1
 553 622 l 1
 397 622 l 1
 306 78 l 1
 465 78 l 1
 452 0 l 1
 48 0 l 1
EndSplineSet
Validated: 1
EndChar

StartChar: Iotadieresis
Encoding: 938 938 131
Width: 600
GlyphClass: 1
Flags: W
LayerCount: 2
Fore
SplineSet
48 0 m 1
 61 78 l 1
 219 78 l 1
 310 622 l 1
 154 622 l 1
 167 700 l 1
 567 700 l 1
 553 622 l 1
 397 622 l 1
 306 78 l 1
 465 78 l 1
 452 0 l 1
 48 0 l 1
273 875 m 0
 280 913 315 943 353 943 c 0
 392 943 417 913 410 875 c 0
 404 837 369 806 331 806 c 0
 293 806 267 837 273 875 c 0
481 875 m 0
 488 913 524 943 562 943 c 0
 600 943 625 913 618 875 c 0
 612 837 577 806 539 806 c 0
 501 806 475 837 481 875 c 0
EndSplineSet
Validated: 33
EndChar

StartChar: Iotatonos
Encoding: 906 906 132
Width: 600
GlyphClass: 1
Flags: W
LayerCount: 2
Fore
SplineSet
48 0 m 1
 61 78 l 1
 219 78 l 1
 310 622 l 1
 154 622 l 1
 167 700 l 1
 567 700 l 1
 553 622 l 1
 397 622 l 1
 306 78 l 1
 465 78 l 1
 452 0 l 1
 48 0 l 1
166 774 m 1
 65 572 l 1
 -1 572 l 1
 66 774 l 1
 166 774 l 1
EndSplineSet
Validated: 1
EndChar

StartChar: Itilde
Encoding: 296 296 133
Width: 600
GlyphClass: 1
Flags: W
LayerCount: 2
Fore
SplineSet
48 0 m 1
 61 78 l 1
 219 78 l 1
 310 622 l 1
 154 622 l 1
 167 700 l 1
 567 700 l 1
 553 622 l 1
 397 622 l 1
 306 78 l 1
 465 78 l 1
 452 0 l 1
 48 0 l 1
212 824 m 1
 216 851 l 2
 229 923 277 968 341 968 c 0
 432 968 426 877 470 877 c 0
 489 877 502 895 510 933 c 2
 514 954 l 1
 585 954 l 1
 580 927 l 2
 568 855 521 810 457 810 c 0
 365 810 371 901 328 901 c 0
 309 901 295 883 288 845 c 2
 283 824 l 1
 212 824 l 1
EndSplineSet
Validated: 1
EndChar

StartChar: J
Encoding: 74 74 134
Width: 600
GlyphClass: 1
Flags: W
LayerCount: 2
Fore
SplineSet
38 178 m 1
 119 178 l 1
 112 113 161 68 237 68 c 0
 317 68 380 117 391 188 c 2
 465 622 l 1
 192 622 l 1
 204 700 l 1
 564 700 l 1
 479 187 l 2
 460 73 353 -10 225 -10 c 0
 101 -10 22 69 38 178 c 1
EndSplineSet
Validated: 33
Substitution2: "+U1VOAGb/Y2IA +Z+VifgAA 72+Zv9O44ho" J.rightS
Substitution2: "+U1VOAGb/Y2IA +Z+VifgAA 71+Zv9O44ho" J.rightM
Substitution2: "+U1VOAGb/Y2IA +Z+VifgAA 70+Zv9O44ho" J.rightL
Substitution2: "+U1VOAGb/Y2IA +Z+VifgAA 69+Zv9O44ho" J.leftS
Substitution2: "+U1VOAGb/Y2IA +Z+VifgAA 68+Zv9O44ho" J.leftM
Substitution2: "+U1VOAGb/Y2IA +Z+VifgAA 67+Zv9O44ho" J.leftL
Substitution2: "+U1VOAGb/Y2IA +Z+VifgAA 66+Zv9O44ho" J.rightS
Substitution2: "+U1VOAGb/Y2IA +Z+VifgAA 65+Zv9O44ho" J.rightM
Substitution2: "+U1VOAGb/Y2IA +Z+VifgAA 64+Zv9O44ho" J.rightS
Substitution2: "+U1VOAGb/Y2IA +Z+VifgAA 63+Zv9O44ho" J.rightM
Substitution2: "+U1VOAGb/Y2IA +Z+VifgAA 62+Zv9O44ho" J.rightL
Substitution2: "+U1VOAGb/Y2IA +Z+VifgAA 61+Zv9O44ho" J.leftS
Substitution2: "+U1VOAGb/Y2IA +Z+VifgAA 60+Zv9O44ho" J.leftM
Substitution2: "+U1VOAGb/Y2IA +Z+VifgAA 59+Zv9O44ho" J.leftL
EndChar

StartChar: J.leftL
Encoding: 65598 -1 135
Width: 600
GlyphClass: 1
Flags: W
LayerCount: 2
Fore
SplineSet
-6 178 m 1
 75 178 l 1
 68 113 117 68 193 68 c 0
 273 68 336 117 347 188 c 2
 421 622 l 1
 148 622 l 1
 160 700 l 1
 520 700 l 1
 435 187 l 2
 416 73 309 -10 181 -10 c 0
 57 -10 -22 69 -6 178 c 1
EndSplineSet
Validated: 33
EndChar

StartChar: J.leftM
Encoding: 65599 -1 136
Width: 600
GlyphClass: 1
Flags: W
LayerCount: 2
Fore
SplineSet
8 178 m 1
 89 178 l 1
 82 113 131 68 207 68 c 0
 287 68 350 117 361 188 c 2
 435 622 l 1
 162 622 l 1
 174 700 l 1
 534 700 l 1
 449 187 l 2
 430 73 323 -10 195 -10 c 0
 71 -10 -8 69 8 178 c 1
EndSplineSet
Validated: 33
EndChar

StartChar: J.leftS
Encoding: 65600 -1 137
Width: 600
GlyphClass: 1
Flags: W
LayerCount: 2
Fore
SplineSet
20 178 m 1
 101 178 l 1
 94 113 143 68 219 68 c 0
 299 68 362 117 373 188 c 2
 447 622 l 1
 174 622 l 1
 186 700 l 1
 546 700 l 1
 461 187 l 2
 442 73 335 -10 207 -10 c 0
 83 -10 4 69 20 178 c 1
EndSplineSet
Validated: 33
EndChar

StartChar: J.rightL
Encoding: 65601 -1 138
Width: 600
GlyphClass: 1
Flags: W
LayerCount: 2
Fore
SplineSet
82 178 m 1
 163 178 l 1
 156 113 205 68 281 68 c 0
 361 68 424 117 435 188 c 2
 509 622 l 1
 236 622 l 1
 248 700 l 1
 608 700 l 1
 523 187 l 2
 504 73 397 -10 269 -10 c 0
 145 -10 66 69 82 178 c 1
EndSplineSet
Validated: 33
EndChar

StartChar: J.rightM
Encoding: 65602 -1 139
Width: 600
GlyphClass: 1
Flags: W
LayerCount: 2
Fore
SplineSet
68 178 m 1
 149 178 l 1
 142 113 191 68 267 68 c 0
 347 68 410 117 421 188 c 2
 495 622 l 1
 222 622 l 1
 234 700 l 1
 594 700 l 1
 509 187 l 2
 490 73 383 -10 255 -10 c 0
 131 -10 52 69 68 178 c 1
EndSplineSet
Validated: 33
EndChar

StartChar: J.rightS
Encoding: 65603 -1 140
Width: 600
GlyphClass: 1
Flags: W
LayerCount: 2
Fore
SplineSet
56 178 m 1
 137 178 l 1
 130 113 179 68 255 68 c 0
 335 68 398 117 409 188 c 2
 483 622 l 1
 210 622 l 1
 222 700 l 1
 582 700 l 1
 497 187 l 2
 478 73 371 -10 243 -10 c 0
 119 -10 40 69 56 178 c 1
EndSplineSet
Validated: 33
EndChar

StartChar: Jcircumflex
Encoding: 308 308 141
Width: 600
GlyphClass: 1
Flags: W
LayerCount: 2
Fore
SplineSet
38 178 m 1
 119 178 l 1
 112 113 161 68 237 68 c 0
 317 68 380 117 391 188 c 2
 465 622 l 1
 192 622 l 1
 204 700 l 1
 564 700 l 1
 479 187 l 2
 460 73 353 -10 225 -10 c 0
 101 -10 22 69 38 178 c 1
260 785 m 1
 399 961 l 1
 487 961 l 1
 569 785 l 1
 496 785 l 1
 431 889 l 1
 332 785 l 1
 260 785 l 1
EndSplineSet
Validated: 33
EndChar

StartChar: K
Encoding: 75 75 142
Width: 600
GlyphClass: 1
Flags: W
LayerCount: 2
Fore
SplineSet
226 700 m 1
 166 345 l 1
 541 700 l 1
 648 700 l 1
 339 406 l 1
 544 0 l 1
 443 0 l 1
 271 340 l 1
 146 222 l 1
 109 0 l 1
 22 0 l 1
 139 700 l 1
 226 700 l 1
EndSplineSet
Validated: 1
Substitution2: "+U1VOAGb/Y2IA +Z+VifgAA 72+Zv9O44ho" K.rightS
Substitution2: "+U1VOAGb/Y2IA +Z+VifgAA 71+Zv9O44ho" K.rightM
Substitution2: "+U1VOAGb/Y2IA +Z+VifgAA 70+Zv9O44ho" K.rightL
Substitution2: "+U1VOAGb/Y2IA +Z+VifgAA 69+Zv9O44ho" K.leftS
Substitution2: "+U1VOAGb/Y2IA +Z+VifgAA 68+Zv9O44ho" K.leftM
Substitution2: "+U1VOAGb/Y2IA +Z+VifgAA 67+Zv9O44ho" K.leftL
Substitution2: "+U1VOAGb/Y2IA +Z+VifgAA 66+Zv9O44ho" K.rightS
Substitution2: "+U1VOAGb/Y2IA +Z+VifgAA 65+Zv9O44ho" K.rightM
Substitution2: "+U1VOAGb/Y2IA +Z+VifgAA 64+Zv9O44ho" K.rightS
Substitution2: "+U1VOAGb/Y2IA +Z+VifgAA 63+Zv9O44ho" K.rightM
Substitution2: "+U1VOAGb/Y2IA +Z+VifgAA 62+Zv9O44ho" K.rightL
Substitution2: "+U1VOAGb/Y2IA +Z+VifgAA 61+Zv9O44ho" K.leftS
Substitution2: "+U1VOAGb/Y2IA +Z+VifgAA 60+Zv9O44ho" K.leftM
Substitution2: "+U1VOAGb/Y2IA +Z+VifgAA 59+Zv9O44ho" K.leftL
EndChar

StartChar: K.leftL
Encoding: 65604 -1 143
Width: 600
GlyphClass: 1
Flags: W
LayerCount: 2
Fore
SplineSet
182 700 m 1
 122 345 l 1
 497 700 l 1
 604 700 l 1
 295 406 l 1
 500 0 l 1
 399 0 l 1
 227 340 l 1
 102 222 l 1
 65 0 l 1
 -22 0 l 1
 95 700 l 1
 182 700 l 1
EndSplineSet
Validated: 1
EndChar

StartChar: K.leftM
Encoding: 65605 -1 144
Width: 600
GlyphClass: 1
Flags: W
LayerCount: 2
Fore
SplineSet
196 700 m 1
 136 345 l 1
 511 700 l 1
 618 700 l 1
 309 406 l 1
 514 0 l 1
 413 0 l 1
 241 340 l 1
 116 222 l 1
 79 0 l 1
 -8 0 l 1
 109 700 l 1
 196 700 l 1
EndSplineSet
Validated: 1
EndChar

StartChar: K.leftS
Encoding: 65606 -1 145
Width: 600
GlyphClass: 1
Flags: W
LayerCount: 2
Fore
SplineSet
208 700 m 1
 148 345 l 1
 523 700 l 1
 630 700 l 1
 321 406 l 1
 526 0 l 1
 425 0 l 1
 253 340 l 1
 128 222 l 1
 91 0 l 1
 4 0 l 1
 121 700 l 1
 208 700 l 1
EndSplineSet
Validated: 1
EndChar

StartChar: K.rightL
Encoding: 65607 -1 146
Width: 600
GlyphClass: 1
Flags: W
LayerCount: 2
Fore
SplineSet
270 700 m 1
 210 345 l 1
 585 700 l 1
 692 700 l 1
 383 406 l 1
 588 0 l 1
 487 0 l 1
 315 340 l 1
 190 222 l 1
 153 0 l 1
 66 0 l 1
 183 700 l 1
 270 700 l 1
EndSplineSet
Validated: 1
EndChar

StartChar: K.rightM
Encoding: 65608 -1 147
Width: 600
GlyphClass: 1
Flags: W
LayerCount: 2
Fore
SplineSet
256 700 m 1
 196 345 l 1
 571 700 l 1
 678 700 l 1
 369 406 l 1
 574 0 l 1
 473 0 l 1
 301 340 l 1
 176 222 l 1
 139 0 l 1
 52 0 l 1
 169 700 l 1
 256 700 l 1
EndSplineSet
Validated: 1
EndChar

StartChar: K.rightS
Encoding: 65609 -1 148
Width: 600
GlyphClass: 1
Flags: W
LayerCount: 2
Fore
SplineSet
244 700 m 1
 184 345 l 1
 559 700 l 1
 666 700 l 1
 357 406 l 1
 562 0 l 1
 461 0 l 1
 289 340 l 1
 164 222 l 1
 127 0 l 1
 40 0 l 1
 157 700 l 1
 244 700 l 1
EndSplineSet
Validated: 1
EndChar

StartChar: Kappa
Encoding: 922 922 149
Width: 600
GlyphClass: 1
Flags: W
LayerCount: 2
Fore
SplineSet
226 700 m 1
 166 345 l 1
 541 700 l 1
 648 700 l 1
 339 406 l 1
 544 0 l 1
 443 0 l 1
 271 340 l 1
 146 222 l 1
 109 0 l 1
 22 0 l 1
 139 700 l 1
 226 700 l 1
EndSplineSet
Validated: 1
EndChar

StartChar: uni0136
Encoding: 310 310 150
Width: 600
GlyphClass: 1
Flags: W
LayerCount: 2
Fore
SplineSet
226 700 m 1
 166 345 l 1
 541 700 l 1
 648 700 l 1
 339 406 l 1
 544 0 l 1
 443 0 l 1
 271 340 l 1
 146 222 l 1
 109 0 l 1
 22 0 l 1
 139 700 l 1
 226 700 l 1
310 -73 m 1
 163 -258 l 1
 90 -258 l 1
 199 -73 l 1
 310 -73 l 1
EndSplineSet
Validated: 1
EndChar

StartChar: L
Encoding: 76 76 151
Width: 600
GlyphClass: 1
Flags: W
LayerCount: 2
Fore
SplineSet
74 0 m 1
 191 700 l 1
 278 700 l 1
 174 78 l 1
 493 78 l 1
 480 0 l 1
 74 0 l 1
EndSplineSet
Validated: 1
Substitution2: "+U1VOAGb/Y2IA +Z+VifgAA 72+Zv9O44ho" L.rightS
Substitution2: "+U1VOAGb/Y2IA +Z+VifgAA 71+Zv9O44ho" L.rightM
Substitution2: "+U1VOAGb/Y2IA +Z+VifgAA 70+Zv9O44ho" L.rightL
Substitution2: "+U1VOAGb/Y2IA +Z+VifgAA 69+Zv9O44ho" L.leftS
Substitution2: "+U1VOAGb/Y2IA +Z+VifgAA 68+Zv9O44ho" L.leftM
Substitution2: "+U1VOAGb/Y2IA +Z+VifgAA 67+Zv9O44ho" L.leftL
Substitution2: "+U1VOAGb/Y2IA +Z+VifgAA 66+Zv9O44ho" L.rightS
Substitution2: "+U1VOAGb/Y2IA +Z+VifgAA 65+Zv9O44ho" L.rightM
Substitution2: "+U1VOAGb/Y2IA +Z+VifgAA 64+Zv9O44ho" L.rightS
Substitution2: "+U1VOAGb/Y2IA +Z+VifgAA 63+Zv9O44ho" L.rightM
Substitution2: "+U1VOAGb/Y2IA +Z+VifgAA 62+Zv9O44ho" L.rightL
Substitution2: "+U1VOAGb/Y2IA +Z+VifgAA 61+Zv9O44ho" L.leftS
Substitution2: "+U1VOAGb/Y2IA +Z+VifgAA 60+Zv9O44ho" L.leftM
Substitution2: "+U1VOAGb/Y2IA +Z+VifgAA 59+Zv9O44ho" L.leftL
EndChar

StartChar: L.leftL
Encoding: 65610 -1 152
Width: 600
GlyphClass: 1
Flags: W
LayerCount: 2
Fore
SplineSet
30 0 m 1
 147 700 l 1
 234 700 l 1
 130 78 l 1
 449 78 l 1
 436 0 l 1
 30 0 l 1
EndSplineSet
Validated: 1
EndChar

StartChar: L.leftM
Encoding: 65611 -1 153
Width: 600
GlyphClass: 1
Flags: W
LayerCount: 2
Fore
SplineSet
44 0 m 1
 161 700 l 1
 248 700 l 1
 144 78 l 1
 463 78 l 1
 450 0 l 1
 44 0 l 1
EndSplineSet
Validated: 1
EndChar

StartChar: L.leftS
Encoding: 65612 -1 154
Width: 600
GlyphClass: 1
Flags: W
LayerCount: 2
Fore
SplineSet
56 0 m 1
 173 700 l 1
 260 700 l 1
 156 78 l 1
 475 78 l 1
 462 0 l 1
 56 0 l 1
EndSplineSet
Validated: 1
EndChar

StartChar: L.rightL
Encoding: 65613 -1 155
Width: 600
GlyphClass: 1
Flags: W
LayerCount: 2
Fore
SplineSet
118 0 m 1
 235 700 l 1
 322 700 l 1
 218 78 l 1
 537 78 l 1
 524 0 l 1
 118 0 l 1
EndSplineSet
Validated: 1
EndChar

StartChar: L.rightM
Encoding: 65614 -1 156
Width: 600
GlyphClass: 1
Flags: W
LayerCount: 2
Fore
SplineSet
104 0 m 1
 221 700 l 1
 308 700 l 1
 204 78 l 1
 523 78 l 1
 510 0 l 1
 104 0 l 1
EndSplineSet
Validated: 1
EndChar

StartChar: L.rightS
Encoding: 65615 -1 157
Width: 600
GlyphClass: 1
Flags: W
LayerCount: 2
Fore
SplineSet
86 0 m 1
 203 700 l 1
 290 700 l 1
 186 78 l 1
 505 78 l 1
 492 0 l 1
 86 0 l 1
EndSplineSet
Validated: 1
EndChar

StartChar: Lacute
Encoding: 313 313 158
Width: 600
GlyphClass: 1
Flags: W
LayerCount: 2
Fore
SplineSet
74 0 m 1
 191 700 l 1
 278 700 l 1
 174 78 l 1
 493 78 l 1
 480 0 l 1
 74 0 l 1
417 977 m 1
 271 792 l 1
 198 792 l 1
 306 977 l 1
 417 977 l 1
EndSplineSet
Validated: 1
EndChar

StartChar: Lambda
Encoding: 923 923 159
Width: 600
GlyphClass: 1
Flags: W
LayerCount: 2
Fore
SplineSet
425 700 m 1
 524 0 l 1
 435 0 l 1
 352 603 l 1
 348 603 l 1
 63 0 l 1
 -24 0 l 1
 309 700 l 1
 425 700 l 1
EndSplineSet
Validated: 1
EndChar

StartChar: Lcaron
Encoding: 317 317 160
Width: 600
GlyphClass: 1
Flags: W
LayerCount: 2
Fore
SplineSet
74 0 m 1
 191 700 l 1
 278 700 l 1
 174 78 l 1
 493 78 l 1
 480 0 l 1
 74 0 l 1
296 528 m 1
 371 529 433 581 445 649 c 0
 446 653 446 657 446 661 c 1
 435 653 422 648 409 648 c 0
 375 648 355 677 361 714 c 0
 368 755 405 785 445 785 c 0
 499 785 528 732 516 659 c 0
 497 548 398 466 287 467 c 1
 296 528 l 1
EndSplineSet
Validated: 33
EndChar

StartChar: uni013B
Encoding: 315 315 161
Width: 600
GlyphClass: 1
Flags: W
LayerCount: 2
Fore
SplineSet
74 0 m 1
 191 700 l 1
 278 700 l 1
 174 78 l 1
 493 78 l 1
 480 0 l 1
 74 0 l 1
317 -73 m 1
 170 -258 l 1
 97 -258 l 1
 206 -73 l 1
 317 -73 l 1
EndSplineSet
Validated: 1
EndChar

StartChar: Ldot
Encoding: 319 319 162
Width: 600
GlyphClass: 1
Flags: W
LayerCount: 2
Fore
SplineSet
74 0 m 1
 191 700 l 1
 278 700 l 1
 174 78 l 1
 493 78 l 1
 480 0 l 1
 74 0 l 1
406 379 m 0
 413 421 453 456 495 456 c 0
 538 456 567 421 560 379 c 0
 552 336 512 302 470 302 c 0
 427 302 398 336 406 379 c 0
EndSplineSet
Validated: 33
Substitution2: "'cv03' +W1d7JlPYT1MA-03 +Z+VifgAA 2+Zv9O44ho" Ldot.square
EndChar

StartChar: Ldot.square
Encoding: 65616 -1 163
Width: 600
GlyphClass: 1
Flags: W
LayerCount: 2
Fore
SplineSet
74 0 m 1
 191 700 l 1
 278 700 l 1
 174 78 l 1
 493 78 l 1
 480 0 l 1
 74 0 l 1
400 285 m 1
 422 419 l 1
 556 419 l 1
 534 285 l 1
 400 285 l 1
EndSplineSet
Validated: 1
EndChar

StartChar: Lslash
Encoding: 321 321 164
Width: 600
GlyphClass: 1
Flags: W
LayerCount: 2
Fore
SplineSet
74 0 m 1
 125 306 l 1
 18 254 l 1
 32 334 l 1
 139 386 l 1
 191 700 l 1
 278 700 l 1
 233 433 l 1
 447 537 l 1
 435 457 l 1
 220 352 l 1
 174 78 l 1
 493 78 l 1
 480 0 l 1
 74 0 l 1
EndSplineSet
Validated: 1
EndChar

StartChar: M
Encoding: 77 77 165
Width: 600
GlyphClass: 1
Flags: W
LayerCount: 2
Fore
SplineSet
174 598 m 1
 74 0 l 1
 -8 0 l 1
 109 700 l 1
 234 700 l 1
 291 257 l 1
 295 257 l 1
 500 700 l 1
 625 700 l 1
 508 0 l 1
 426 0 l 1
 526 598 l 1
 522 598 l 1
 315 152 l 1
 236 152 l 1
 178 598 l 1
 174 598 l 1
EndSplineSet
Validated: 1
Substitution2: "+U1VOAGb/Y2IA +Z+VifgAA 72+Zv9O44ho" M.rightS
Substitution2: "+U1VOAGb/Y2IA +Z+VifgAA 71+Zv9O44ho" M.rightM
Substitution2: "+U1VOAGb/Y2IA +Z+VifgAA 70+Zv9O44ho" M.rightL
Substitution2: "+U1VOAGb/Y2IA +Z+VifgAA 69+Zv9O44ho" M.leftS
Substitution2: "+U1VOAGb/Y2IA +Z+VifgAA 68+Zv9O44ho" M.leftM
Substitution2: "+U1VOAGb/Y2IA +Z+VifgAA 67+Zv9O44ho" M.leftL
Substitution2: "+U1VOAGb/Y2IA +Z+VifgAA 66+Zv9O44ho" M.rightS
Substitution2: "+U1VOAGb/Y2IA +Z+VifgAA 65+Zv9O44ho" M.rightM
Substitution2: "+U1VOAGb/Y2IA +Z+VifgAA 64+Zv9O44ho" M.rightS
Substitution2: "+U1VOAGb/Y2IA +Z+VifgAA 63+Zv9O44ho" M.rightM
Substitution2: "+U1VOAGb/Y2IA +Z+VifgAA 62+Zv9O44ho" M.rightL
Substitution2: "+U1VOAGb/Y2IA +Z+VifgAA 61+Zv9O44ho" M.leftS
Substitution2: "+U1VOAGb/Y2IA +Z+VifgAA 60+Zv9O44ho" M.leftM
Substitution2: "+U1VOAGb/Y2IA +Z+VifgAA 59+Zv9O44ho" M.leftL
EndChar

StartChar: M.leftL
Encoding: 65617 -1 166
Width: 600
GlyphClass: 1
Flags: W
LayerCount: 2
Fore
SplineSet
130 598 m 1
 30 0 l 1
 -52 0 l 1
 65 700 l 1
 190 700 l 1
 247 257 l 1
 251 257 l 1
 456 700 l 1
 581 700 l 1
 464 0 l 1
 382 0 l 1
 482 598 l 1
 478 598 l 1
 271 152 l 1
 192 152 l 1
 134 598 l 1
 130 598 l 1
EndSplineSet
Validated: 1
EndChar

StartChar: M.leftM
Encoding: 65618 -1 167
Width: 600
GlyphClass: 1
Flags: W
LayerCount: 2
Fore
SplineSet
144 598 m 1
 44 0 l 1
 -38 0 l 1
 79 700 l 1
 204 700 l 1
 261 257 l 1
 265 257 l 1
 470 700 l 1
 595 700 l 1
 478 0 l 1
 396 0 l 1
 496 598 l 1
 492 598 l 1
 285 152 l 1
 206 152 l 1
 148 598 l 1
 144 598 l 1
EndSplineSet
Validated: 1
EndChar

StartChar: M.leftS
Encoding: 65619 -1 168
Width: 600
GlyphClass: 1
Flags: W
LayerCount: 2
Fore
SplineSet
156 598 m 1
 56 0 l 1
 -26 0 l 1
 91 700 l 1
 216 700 l 1
 273 257 l 1
 277 257 l 1
 482 700 l 1
 607 700 l 1
 490 0 l 1
 408 0 l 1
 508 598 l 1
 504 598 l 1
 297 152 l 1
 218 152 l 1
 160 598 l 1
 156 598 l 1
EndSplineSet
Validated: 1
EndChar

StartChar: M.rightL
Encoding: 65620 -1 169
Width: 600
GlyphClass: 1
Flags: W
LayerCount: 2
Fore
SplineSet
218 598 m 1
 118 0 l 1
 36 0 l 1
 153 700 l 1
 278 700 l 1
 335 257 l 1
 339 257 l 1
 544 700 l 1
 669 700 l 1
 552 0 l 1
 470 0 l 1
 570 598 l 1
 566 598 l 1
 359 152 l 1
 280 152 l 1
 222 598 l 1
 218 598 l 1
EndSplineSet
Validated: 1
EndChar

StartChar: M.rightM
Encoding: 65621 -1 170
Width: 600
GlyphClass: 1
Flags: W
LayerCount: 2
Fore
SplineSet
204 598 m 1
 104 0 l 1
 22 0 l 1
 139 700 l 1
 264 700 l 1
 321 257 l 1
 325 257 l 1
 530 700 l 1
 655 700 l 1
 538 0 l 1
 456 0 l 1
 556 598 l 1
 552 598 l 1
 345 152 l 1
 266 152 l 1
 208 598 l 1
 204 598 l 1
EndSplineSet
Validated: 1
EndChar

StartChar: M.rightS
Encoding: 65622 -1 171
Width: 600
GlyphClass: 1
Flags: W
LayerCount: 2
Fore
SplineSet
192 598 m 1
 92 0 l 1
 10 0 l 1
 127 700 l 1
 252 700 l 1
 309 257 l 1
 313 257 l 1
 518 700 l 1
 643 700 l 1
 526 0 l 1
 444 0 l 1
 544 598 l 1
 540 598 l 1
 333 152 l 1
 254 152 l 1
 196 598 l 1
 192 598 l 1
EndSplineSet
Validated: 1
EndChar

StartChar: Mu
Encoding: 924 924 172
Width: 600
GlyphClass: 1
Flags: W
LayerCount: 2
Fore
SplineSet
174 598 m 1
 74 0 l 1
 -8 0 l 1
 109 700 l 1
 234 700 l 1
 291 257 l 1
 295 257 l 1
 500 700 l 1
 625 700 l 1
 508 0 l 1
 426 0 l 1
 526 598 l 1
 522 598 l 1
 315 152 l 1
 236 152 l 1
 178 598 l 1
 174 598 l 1
EndSplineSet
Validated: 1
EndChar

StartChar: N
Encoding: 78 78 173
Width: 600
GlyphClass: 1
Flags: W
LayerCount: 2
Fore
SplineSet
428 127 m 1
 524 700 l 1
 605 700 l 1
 488 0 l 1
 376 0 l 1
 198 610 l 1
 194 610 l 1
 93 0 l 1
 12 0 l 1
 129 700 l 1
 257 700 l 1
 424 127 l 1
 428 127 l 1
EndSplineSet
Validated: 1
Substitution2: "+U1VOAGb/Y2IA +Z+VifgAA 72+Zv9O44ho" N.rightS
Substitution2: "+U1VOAGb/Y2IA +Z+VifgAA 71+Zv9O44ho" N.rightM
Substitution2: "+U1VOAGb/Y2IA +Z+VifgAA 70+Zv9O44ho" N.rightL
Substitution2: "+U1VOAGb/Y2IA +Z+VifgAA 69+Zv9O44ho" N.leftS
Substitution2: "+U1VOAGb/Y2IA +Z+VifgAA 68+Zv9O44ho" N.leftM
Substitution2: "+U1VOAGb/Y2IA +Z+VifgAA 67+Zv9O44ho" N.leftL
Substitution2: "+U1VOAGb/Y2IA +Z+VifgAA 66+Zv9O44ho" N.rightS
Substitution2: "+U1VOAGb/Y2IA +Z+VifgAA 65+Zv9O44ho" N.rightM
Substitution2: "+U1VOAGb/Y2IA +Z+VifgAA 64+Zv9O44ho" N.rightS
Substitution2: "+U1VOAGb/Y2IA +Z+VifgAA 63+Zv9O44ho" N.rightM
Substitution2: "+U1VOAGb/Y2IA +Z+VifgAA 62+Zv9O44ho" N.rightL
Substitution2: "+U1VOAGb/Y2IA +Z+VifgAA 61+Zv9O44ho" N.leftS
Substitution2: "+U1VOAGb/Y2IA +Z+VifgAA 60+Zv9O44ho" N.leftM
Substitution2: "+U1VOAGb/Y2IA +Z+VifgAA 59+Zv9O44ho" N.leftL
EndChar

StartChar: N.leftL
Encoding: 65623 -1 174
Width: 600
GlyphClass: 1
Flags: W
LayerCount: 2
Fore
SplineSet
386 127 m 1
 482 700 l 1
 563 700 l 1
 446 0 l 1
 334 0 l 1
 156 610 l 1
 152 610 l 1
 51 0 l 1
 -30 0 l 1
 87 700 l 1
 215 700 l 1
 382 127 l 1
 386 127 l 1
EndSplineSet
Validated: 1
EndChar

StartChar: N.leftM
Encoding: 65624 -1 175
Width: 600
GlyphClass: 1
Flags: W
LayerCount: 2
Fore
SplineSet
401 127 m 1
 497 700 l 1
 578 700 l 1
 461 0 l 1
 349 0 l 1
 171 610 l 1
 167 610 l 1
 66 0 l 1
 -15 0 l 1
 102 700 l 1
 230 700 l 1
 397 127 l 1
 401 127 l 1
EndSplineSet
Validated: 1
EndChar

StartChar: N.leftS
Encoding: 65625 -1 176
Width: 600
GlyphClass: 1
Flags: W
LayerCount: 2
Fore
SplineSet
416 127 m 1
 512 700 l 1
 593 700 l 1
 476 0 l 1
 364 0 l 1
 186 610 l 1
 182 610 l 1
 81 0 l 1
 0 0 l 1
 117 700 l 1
 245 700 l 1
 412 127 l 1
 416 127 l 1
EndSplineSet
Validated: 1
EndChar

StartChar: N.rightL
Encoding: 65626 -1 177
Width: 600
GlyphClass: 1
Flags: W
LayerCount: 2
Fore
SplineSet
470 127 m 1
 566 700 l 1
 647 700 l 1
 530 0 l 1
 418 0 l 1
 240 610 l 1
 236 610 l 1
 135 0 l 1
 54 0 l 1
 171 700 l 1
 299 700 l 1
 466 127 l 1
 470 127 l 1
EndSplineSet
Validated: 1
EndChar

StartChar: N.rightM
Encoding: 65627 -1 178
Width: 600
GlyphClass: 1
Flags: W
LayerCount: 2
Fore
SplineSet
455 127 m 1
 551 700 l 1
 632 700 l 1
 515 0 l 1
 403 0 l 1
 225 610 l 1
 221 610 l 1
 120 0 l 1
 39 0 l 1
 156 700 l 1
 284 700 l 1
 451 127 l 1
 455 127 l 1
EndSplineSet
Validated: 1
EndChar

StartChar: N.rightS
Encoding: 65628 -1 179
Width: 600
GlyphClass: 1
Flags: W
LayerCount: 2
Fore
SplineSet
440 127 m 1
 536 700 l 1
 617 700 l 1
 500 0 l 1
 388 0 l 1
 210 610 l 1
 206 610 l 1
 105 0 l 1
 24 0 l 1
 141 700 l 1
 269 700 l 1
 436 127 l 1
 440 127 l 1
EndSplineSet
Validated: 1
EndChar

StartChar: Nacute
Encoding: 323 323 180
Width: 600
GlyphClass: 1
Flags: W
LayerCount: 2
Fore
SplineSet
428 127 m 1
 524 700 l 1
 605 700 l 1
 488 0 l 1
 376 0 l 1
 198 610 l 1
 194 610 l 1
 93 0 l 1
 12 0 l 1
 129 700 l 1
 257 700 l 1
 424 127 l 1
 428 127 l 1
547 977 m 1
 401 792 l 1
 328 792 l 1
 436 977 l 1
 547 977 l 1
EndSplineSet
Validated: 1
EndChar

StartChar: Ncaron
Encoding: 327 327 181
Width: 600
GlyphClass: 1
Flags: W
LayerCount: 2
Fore
SplineSet
428 127 m 1
 524 700 l 1
 605 700 l 1
 488 0 l 1
 376 0 l 1
 198 610 l 1
 194 610 l 1
 93 0 l 1
 12 0 l 1
 129 700 l 1
 257 700 l 1
 424 127 l 1
 428 127 l 1
337 785 m 1
 255 961 l 1
 328 961 l 1
 393 858 l 1
 492 961 l 1
 565 961 l 1
 426 785 l 1
 337 785 l 1
EndSplineSet
Validated: 1
EndChar

StartChar: uni0145
Encoding: 325 325 182
Width: 600
GlyphClass: 1
Flags: W
LayerCount: 2
Fore
SplineSet
428 127 m 1
 524 700 l 1
 605 700 l 1
 488 0 l 1
 376 0 l 1
 198 610 l 1
 194 610 l 1
 93 0 l 1
 12 0 l 1
 129 700 l 1
 257 700 l 1
 424 127 l 1
 428 127 l 1
285 -73 m 1
 138 -258 l 1
 65 -258 l 1
 174 -73 l 1
 285 -73 l 1
EndSplineSet
Validated: 1
EndChar

StartChar: Ntilde
Encoding: 209 209 183
Width: 600
GlyphClass: 1
Flags: W
LayerCount: 2
Fore
SplineSet
428 127 m 1
 524 700 l 1
 605 700 l 1
 488 0 l 1
 376 0 l 1
 198 610 l 1
 194 610 l 1
 93 0 l 1
 12 0 l 1
 129 700 l 1
 257 700 l 1
 424 127 l 1
 428 127 l 1
212 824 m 1
 216 851 l 2
 229 923 277 968 341 968 c 0
 432 968 426 877 470 877 c 0
 489 877 502 895 510 933 c 2
 514 954 l 1
 585 954 l 1
 580 927 l 2
 568 855 521 810 457 810 c 0
 365 810 371 901 328 901 c 0
 309 901 295 883 288 845 c 2
 283 824 l 1
 212 824 l 1
EndSplineSet
Validated: 1
EndChar

StartChar: Nu
Encoding: 925 925 184
Width: 600
GlyphClass: 1
Flags: W
LayerCount: 2
Fore
SplineSet
428 127 m 1
 524 700 l 1
 605 700 l 1
 488 0 l 1
 376 0 l 1
 198 610 l 1
 194 610 l 1
 93 0 l 1
 12 0 l 1
 129 700 l 1
 257 700 l 1
 424 127 l 1
 428 127 l 1
EndSplineSet
Validated: 1
EndChar

StartChar: O
Encoding: 79 79 185
Width: 600
GlyphClass: 1
Flags: W
LayerCount: 2
Fore
SplineSet
248 -10 m 0
 93 -10 9 138 44 350 c 0
 79 562 213 710 368 710 c 0
 523 710 607 562 572 350 c 0
 537 138 403 -10 248 -10 c 0
262 70 m 0
 369 70 456 180 485 350 c 0
 513 520 462 630 355 630 c 0
 248 630 160 520 131 350 c 0
 103 180 155 70 262 70 c 0
EndSplineSet
Validated: 33
Substitution2: "+U1VOAGb/Y2IA +Z+VifgAA 72+Zv9O44ho" O.rightS
Substitution2: "+U1VOAGb/Y2IA +Z+VifgAA 71+Zv9O44ho" O.rightM
Substitution2: "+U1VOAGb/Y2IA +Z+VifgAA 70+Zv9O44ho" O.rightL
Substitution2: "+U1VOAGb/Y2IA +Z+VifgAA 69+Zv9O44ho" O.leftS
Substitution2: "+U1VOAGb/Y2IA +Z+VifgAA 68+Zv9O44ho" O.leftM
Substitution2: "+U1VOAGb/Y2IA +Z+VifgAA 67+Zv9O44ho" O.leftL
Substitution2: "+U1VOAGb/Y2IA +Z+VifgAA 66+Zv9O44ho" O.rightS
Substitution2: "+U1VOAGb/Y2IA +Z+VifgAA 65+Zv9O44ho" O.rightM
Substitution2: "+U1VOAGb/Y2IA +Z+VifgAA 64+Zv9O44ho" O.rightS
Substitution2: "+U1VOAGb/Y2IA +Z+VifgAA 63+Zv9O44ho" O.rightM
Substitution2: "+U1VOAGb/Y2IA +Z+VifgAA 62+Zv9O44ho" O.rightL
Substitution2: "+U1VOAGb/Y2IA +Z+VifgAA 61+Zv9O44ho" O.leftS
Substitution2: "+U1VOAGb/Y2IA +Z+VifgAA 60+Zv9O44ho" O.leftM
Substitution2: "+U1VOAGb/Y2IA +Z+VifgAA 59+Zv9O44ho" O.leftL
EndChar

StartChar: O.leftL
Encoding: 65629 -1 186
Width: 600
GlyphClass: 1
Flags: W
LayerCount: 2
Fore
SplineSet
204 -10 m 0
 49 -10 -35 138 0 350 c 0
 35 562 169 710 324 710 c 0
 479 710 563 562 528 350 c 0
 493 138 359 -10 204 -10 c 0
218 70 m 0
 325 70 412 180 441 350 c 0
 469 520 418 630 311 630 c 0
 204 630 116 520 87 350 c 0
 59 180 111 70 218 70 c 0
EndSplineSet
Validated: 33
EndChar

StartChar: O.leftM
Encoding: 65630 -1 187
Width: 600
GlyphClass: 1
Flags: W
LayerCount: 2
Fore
SplineSet
218 -10 m 0
 63 -10 -21 138 14 350 c 0
 49 562 183 710 338 710 c 0
 493 710 577 562 542 350 c 0
 507 138 373 -10 218 -10 c 0
232 70 m 0
 339 70 426 180 455 350 c 0
 483 520 432 630 325 630 c 0
 218 630 130 520 101 350 c 0
 73 180 125 70 232 70 c 0
EndSplineSet
Validated: 33
EndChar

StartChar: O.leftS
Encoding: 65631 -1 188
Width: 600
GlyphClass: 1
Flags: W
LayerCount: 2
Fore
SplineSet
230 -10 m 0
 75 -10 -9 138 26 350 c 0
 61 562 195 710 350 710 c 0
 505 710 589 562 554 350 c 0
 519 138 385 -10 230 -10 c 0
244 70 m 0
 351 70 438 180 467 350 c 0
 495 520 444 630 337 630 c 0
 230 630 142 520 113 350 c 0
 85 180 137 70 244 70 c 0
EndSplineSet
Validated: 33
EndChar

StartChar: O.rightL
Encoding: 65632 -1 189
Width: 600
GlyphClass: 1
Flags: W
LayerCount: 2
Fore
SplineSet
292 -10 m 0
 137 -10 53 138 88 350 c 0
 123 562 257 710 412 710 c 0
 567 710 651 562 616 350 c 0
 581 138 447 -10 292 -10 c 0
306 70 m 0
 413 70 500 180 529 350 c 0
 557 520 506 630 399 630 c 0
 292 630 204 520 175 350 c 0
 147 180 199 70 306 70 c 0
EndSplineSet
Validated: 33
EndChar

StartChar: O.rightM
Encoding: 65633 -1 190
Width: 600
GlyphClass: 1
Flags: W
LayerCount: 2
Fore
SplineSet
278 -10 m 0
 123 -10 39 138 74 350 c 0
 109 562 243 710 398 710 c 0
 553 710 637 562 602 350 c 0
 567 138 433 -10 278 -10 c 0
292 70 m 0
 399 70 486 180 515 350 c 0
 543 520 492 630 385 630 c 0
 278 630 190 520 161 350 c 0
 133 180 185 70 292 70 c 0
EndSplineSet
Validated: 33
EndChar

StartChar: O.rightS
Encoding: 65634 -1 191
Width: 600
GlyphClass: 1
Flags: W
LayerCount: 2
Fore
SplineSet
260 -10 m 0
 105 -10 21 138 56 350 c 0
 91 562 225 710 380 710 c 0
 535 710 619 562 584 350 c 0
 549 138 415 -10 260 -10 c 0
274 70 m 0
 381 70 468 180 497 350 c 0
 525 520 474 630 367 630 c 0
 260 630 172 520 143 350 c 0
 115 180 167 70 274 70 c 0
EndSplineSet
Validated: 33
EndChar

StartChar: OE
Encoding: 338 338 192
Width: 600
GlyphClass: 1
Flags: W
LayerCount: 2
Fore
SplineSet
201 0 m 2
 73 0 3 148 37 350 c 0
 71 552 190 700 318 700 c 2
 641 700 l 1
 627 622 l 1
 429 622 l 1
 393 402 l 1
 557 402 l 1
 544 324 l 1
 380 324 l 1
 338 78 l 1
 537 78 l 1
 524 0 l 1
 201 0 l 2
304 622 m 2
 224 622 149 511 122 350 c 0
 95 189 133 78 214 78 c 2
 252 78 l 1
 343 622 l 1
 304 622 l 2
EndSplineSet
Validated: 33
EndChar

StartChar: Oacute
Encoding: 211 211 193
Width: 600
GlyphClass: 1
Flags: W
LayerCount: 2
Fore
SplineSet
248 -10 m 0
 93 -10 9 138 44 350 c 0
 79 562 213 710 368 710 c 0
 523 710 607 562 572 350 c 0
 537 138 403 -10 248 -10 c 0
262 70 m 0
 369 70 456 180 485 350 c 0
 513 520 462 630 355 630 c 0
 248 630 160 520 131 350 c 0
 103 180 155 70 262 70 c 0
547 977 m 1
 401 792 l 1
 328 792 l 1
 436 977 l 1
 547 977 l 1
EndSplineSet
Validated: 33
EndChar

StartChar: Obreve
Encoding: 334 334 194
Width: 600
GlyphClass: 1
Flags: W
LayerCount: 2
Fore
SplineSet
248 -10 m 0
 93 -10 9 138 44 350 c 0
 79 562 213 710 368 710 c 0
 523 710 607 562 572 350 c 0
 537 138 403 -10 248 -10 c 0
262 70 m 0
 369 70 456 180 485 350 c 0
 513 520 462 630 355 630 c 0
 248 630 160 520 131 350 c 0
 103 180 155 70 262 70 c 0
339 923 m 1
 336 879 357 850 392 850 c 0
 427 850 458 879 469 923 c 1
 538 923 l 1
 525 843 459 786 381 786 c 0
 303 786 257 843 270 923 c 1
 339 923 l 1
EndSplineSet
Validated: 33
EndChar

StartChar: Ocircumflex
Encoding: 212 212 195
Width: 600
GlyphClass: 1
Flags: W
LayerCount: 2
Fore
SplineSet
248 -10 m 0
 93 -10 9 138 44 350 c 0
 79 562 213 710 368 710 c 0
 523 710 607 562 572 350 c 0
 537 138 403 -10 248 -10 c 0
262 70 m 0
 369 70 456 180 485 350 c 0
 513 520 462 630 355 630 c 0
 248 630 160 520 131 350 c 0
 103 180 155 70 262 70 c 0
227 785 m 1
 366 961 l 1
 454 961 l 1
 536 785 l 1
 463 785 l 1
 398 889 l 1
 299 785 l 1
 227 785 l 1
EndSplineSet
Validated: 33
EndChar

StartChar: Odieresis
Encoding: 214 214 196
Width: 600
GlyphClass: 1
Flags: W
LayerCount: 2
Fore
SplineSet
248 -10 m 0
 93 -10 9 138 44 350 c 0
 79 562 213 710 368 710 c 0
 523 710 607 562 572 350 c 0
 537 138 403 -10 248 -10 c 0
262 70 m 0
 369 70 456 180 485 350 c 0
 513 520 462 630 355 630 c 0
 248 630 160 520 131 350 c 0
 103 180 155 70 262 70 c 0
223 875 m 0
 230 913 265 943 303 943 c 0
 342 943 367 913 360 875 c 0
 354 837 319 806 281 806 c 0
 243 806 217 837 223 875 c 0
431 875 m 0
 438 913 473 943 511 943 c 0
 550 943 575 913 568 875 c 0
 562 837 527 806 489 806 c 0
 451 806 425 837 431 875 c 0
EndSplineSet
Validated: 33
Substitution2: "'cv03' +W1d7JlPYT1MA-03 +Z+VifgAA 2+Zv9O44ho" Odieresis.square
EndChar

StartChar: Odieresis.square
Encoding: 65635 -1 197
Width: 600
GlyphClass: 1
Flags: W
LayerCount: 2
Fore
SplineSet
248 -10 m 0
 93 -10 9 138 44 350 c 0
 79 562 213 710 368 710 c 0
 523 710 607 562 572 350 c 0
 537 138 403 -10 248 -10 c 0
262 70 m 0
 369 70 456 180 485 350 c 0
 513 520 462 630 355 630 c 0
 248 630 160 520 131 350 c 0
 103 180 155 70 262 70 c 0
220 810 m 1
 241 931 l 1
 362 931 l 1
 342 810 l 1
 220 810 l 1
428 810 m 1
 449 931 l 1
 570 931 l 1
 550 810 l 1
 428 810 l 1
EndSplineSet
Validated: 33
EndChar

StartChar: Ograve
Encoding: 210 210 198
Width: 600
GlyphClass: 1
Flags: W
LayerCount: 2
Fore
SplineSet
248 -10 m 0
 93 -10 9 138 44 350 c 0
 79 562 213 710 368 710 c 0
 523 710 607 562 572 350 c 0
 537 138 403 -10 248 -10 c 0
262 70 m 0
 369 70 456 180 485 350 c 0
 513 520 462 630 355 630 c 0
 248 630 160 520 131 350 c 0
 103 180 155 70 262 70 c 0
437 792 m 1
 364 792 l 1
 280 977 l 1
 391 977 l 1
 437 792 l 1
EndSplineSet
Validated: 33
EndChar

StartChar: uni2126
Encoding: 8486 8486 199
Width: 600
GlyphClass: 1
Flags: W
LayerCount: 2
Fore
SplineSet
355 632 m 0
 255 632 161 521 137 376 c 0
 116 251 153 139 234 85 c 1
 220 0 l 1
 -1 0 l 1
 12 78 l 1
 144 78 l 1
 145 82 l 1
 66 140 29 256 50 383 c 0
 80 566 220 710 368 710 c 0
 516 710 608 566 578 384 c 0
 557 256 481 140 382 82 c 1
 381 78 l 1
 514 78 l 1
 501 0 l 1
 280 0 l 1
 294 85 l 1
 393 139 468 251 489 375 c 0
 514 521 455 632 355 632 c 0
EndSplineSet
Validated: 33
EndChar

StartChar: Ohungarumlaut
Encoding: 336 336 200
Width: 600
GlyphClass: 1
Flags: W
LayerCount: 2
Fore
SplineSet
248 -10 m 0
 93 -10 9 138 44 350 c 0
 79 562 213 710 368 710 c 0
 523 710 607 562 572 350 c 0
 537 138 403 -10 248 -10 c 0
262 70 m 0
 369 70 456 180 485 350 c 0
 513 520 462 630 355 630 c 0
 248 630 160 520 131 350 c 0
 103 180 155 70 262 70 c 0
474 977 m 1
 328 792 l 1
 255 792 l 1
 363 977 l 1
 474 977 l 1
642 977 m 1
 496 792 l 1
 423 792 l 1
 531 977 l 1
 642 977 l 1
EndSplineSet
Validated: 33
EndChar

StartChar: Omacron
Encoding: 332 332 201
Width: 600
GlyphClass: 1
Flags: W
LayerCount: 2
Fore
SplineSet
248 -10 m 0
 93 -10 9 138 44 350 c 0
 79 562 213 710 368 710 c 0
 523 710 607 562 572 350 c 0
 537 138 403 -10 248 -10 c 0
262 70 m 0
 369 70 456 180 485 350 c 0
 513 520 462 630 355 630 c 0
 248 630 160 520 131 350 c 0
 103 180 155 70 262 70 c 0
234 830 m 1
 246 900 l 1
 554 900 l 1
 542 830 l 1
 234 830 l 1
EndSplineSet
Validated: 33
EndChar

StartChar: uni03A9
Encoding: 937 937 202
Width: 600
GlyphClass: 1
Flags: W
LayerCount: 2
Fore
SplineSet
355 632 m 0
 255 632 161 521 137 376 c 0
 116 251 153 139 234 85 c 1
 220 0 l 1
 -1 0 l 1
 12 78 l 1
 144 78 l 1
 145 82 l 1
 66 140 29 256 50 383 c 0
 80 566 220 710 368 710 c 0
 516 710 608 566 578 384 c 0
 557 256 481 140 382 82 c 1
 381 78 l 1
 514 78 l 1
 501 0 l 1
 280 0 l 1
 294 85 l 1
 393 139 468 251 489 375 c 0
 514 521 455 632 355 632 c 0
EndSplineSet
Validated: 33
EndChar

StartChar: Omegatonos
Encoding: 911 911 203
Width: 600
GlyphClass: 1
Flags: W
LayerCount: 2
Fore
SplineSet
355 632 m 0
 255 632 161 521 137 376 c 0
 116 251 153 139 234 85 c 1
 220 0 l 1
 -1 0 l 1
 12 78 l 1
 144 78 l 1
 145 82 l 1
 66 140 29 256 50 383 c 0
 80 566 220 710 368 710 c 0
 516 710 608 566 578 384 c 0
 557 256 481 140 382 82 c 1
 381 78 l 1
 514 78 l 1
 501 0 l 1
 280 0 l 1
 294 85 l 1
 393 139 468 251 489 375 c 0
 514 521 455 632 355 632 c 0
177 774 m 1
 76 572 l 1
 10 572 l 1
 77 774 l 1
 177 774 l 1
EndSplineSet
Validated: 33
EndChar

StartChar: Omicron
Encoding: 927 927 204
Width: 600
GlyphClass: 1
Flags: W
LayerCount: 2
Fore
SplineSet
248 -10 m 0
 93 -10 9 138 44 350 c 0
 79 562 213 710 368 710 c 0
 523 710 607 562 572 350 c 0
 537 138 403 -10 248 -10 c 0
262 70 m 0
 369 70 456 180 485 350 c 0
 513 520 462 630 355 630 c 0
 248 630 160 520 131 350 c 0
 103 180 155 70 262 70 c 0
EndSplineSet
Validated: 33
EndChar

StartChar: Omicrontonos
Encoding: 908 908 205
Width: 600
GlyphClass: 1
Flags: W
LayerCount: 2
Fore
SplineSet
248 -10 m 0
 93 -10 9 138 44 350 c 0
 79 562 213 710 368 710 c 0
 523 710 607 562 572 350 c 0
 537 138 403 -10 248 -10 c 0
262 70 m 0
 369 70 456 180 485 350 c 0
 513 520 462 630 355 630 c 0
 248 630 160 520 131 350 c 0
 103 180 155 70 262 70 c 0
177 774 m 1
 76 572 l 1
 10 572 l 1
 77 774 l 1
 177 774 l 1
EndSplineSet
Validated: 33
EndChar

StartChar: Oslash
Encoding: 216 216 206
Width: 600
GlyphClass: 1
Flags: W
LayerCount: 2
Fore
SplineSet
-11 -36 m 1
 78 85 l 1
 39 149 26 241 44 350 c 0
 79 562 213 710 368 710 c 0
 421 710 465 693 500 662 c 1
 577 768 l 1
 628 736 l 1
 539 614 l 1
 577 551 590 459 572 350 c 0
 537 138 403 -10 248 -10 c 0
 195 -10 151 7 117 37 c 1
 40 -68 l 1
 -11 -36 l 1
131 350 m 0
 119 276 122 214 137 167 c 1
 447 590 l 1
 424 616 393 630 355 630 c 0
 248 630 160 520 131 350 c 0
262 70 m 0
 369 70 456 180 485 350 c 0
 497 423 495 486 479 533 c 1
 169 110 l 1
 193 84 224 70 262 70 c 0
EndSplineSet
Validated: 33
EndChar

StartChar: Oslashacute
Encoding: 510 510 207
Width: 600
GlyphClass: 1
Flags: W
LayerCount: 2
Fore
SplineSet
-11 -36 m 1
 78 85 l 1
 39 149 26 241 44 350 c 0
 79 562 213 710 368 710 c 0
 421 710 465 693 500 662 c 1
 577 768 l 1
 628 736 l 1
 539 614 l 1
 577 551 590 459 572 350 c 0
 537 138 403 -10 248 -10 c 0
 195 -10 151 7 117 37 c 1
 40 -68 l 1
 -11 -36 l 1
131 350 m 0
 119 276 122 214 137 167 c 1
 447 590 l 1
 424 616 393 630 355 630 c 0
 248 630 160 520 131 350 c 0
262 70 m 0
 369 70 456 180 485 350 c 0
 497 423 495 486 479 533 c 1
 169 110 l 1
 193 84 224 70 262 70 c 0
545 977 m 1
 399 792 l 1
 326 792 l 1
 434 977 l 1
 545 977 l 1
EndSplineSet
Validated: 33
EndChar

StartChar: Otilde
Encoding: 213 213 208
Width: 600
GlyphClass: 1
Flags: W
LayerCount: 2
Fore
SplineSet
248 -10 m 0
 93 -10 9 138 44 350 c 0
 79 562 213 710 368 710 c 0
 523 710 607 562 572 350 c 0
 537 138 403 -10 248 -10 c 0
262 70 m 0
 369 70 456 180 485 350 c 0
 513 520 462 630 355 630 c 0
 248 630 160 520 131 350 c 0
 103 180 155 70 262 70 c 0
212 824 m 1
 216 851 l 2
 229 923 277 968 341 968 c 0
 432 968 426 877 470 877 c 0
 489 877 502 895 510 933 c 2
 514 954 l 1
 585 954 l 1
 580 927 l 2
 568 855 521 810 457 810 c 0
 365 810 371 901 328 901 c 0
 309 901 295 883 288 845 c 2
 283 824 l 1
 212 824 l 1
EndSplineSet
Validated: 33
EndChar

StartChar: P
Encoding: 80 80 209
Width: 600
GlyphClass: 1
Flags: W
LayerCount: 2
Fore
SplineSet
45 0 m 1
 162 700 l 1
 418 700 l 2
 538 700 608 616 588 498 c 0
 568 380 470 296 350 296 c 2
 182 296 l 1
 132 0 l 1
 45 0 l 1
195 374 m 1
 368 374 l 2
 437 374 492 424 504 498 c 0
 517 573 478 622 409 622 c 2
 236 622 l 1
 195 374 l 1
EndSplineSet
Validated: 33
Substitution2: "+U1VOAGb/Y2IA +Z+VifgAA 72+Zv9O44ho" P.rightS
Substitution2: "+U1VOAGb/Y2IA +Z+VifgAA 71+Zv9O44ho" P.rightM
Substitution2: "+U1VOAGb/Y2IA +Z+VifgAA 70+Zv9O44ho" P.rightL
Substitution2: "+U1VOAGb/Y2IA +Z+VifgAA 69+Zv9O44ho" P.leftS
Substitution2: "+U1VOAGb/Y2IA +Z+VifgAA 68+Zv9O44ho" P.leftM
Substitution2: "+U1VOAGb/Y2IA +Z+VifgAA 67+Zv9O44ho" P.leftL
Substitution2: "+U1VOAGb/Y2IA +Z+VifgAA 66+Zv9O44ho" P.rightS
Substitution2: "+U1VOAGb/Y2IA +Z+VifgAA 65+Zv9O44ho" P.rightM
Substitution2: "+U1VOAGb/Y2IA +Z+VifgAA 64+Zv9O44ho" P.rightS
Substitution2: "+U1VOAGb/Y2IA +Z+VifgAA 63+Zv9O44ho" P.rightM
Substitution2: "+U1VOAGb/Y2IA +Z+VifgAA 62+Zv9O44ho" P.rightL
Substitution2: "+U1VOAGb/Y2IA +Z+VifgAA 61+Zv9O44ho" P.leftS
Substitution2: "+U1VOAGb/Y2IA +Z+VifgAA 60+Zv9O44ho" P.leftM
Substitution2: "+U1VOAGb/Y2IA +Z+VifgAA 59+Zv9O44ho" P.leftL
EndChar

StartChar: P.leftL
Encoding: 65636 -1 210
Width: 600
GlyphClass: 1
Flags: W
LayerCount: 2
Fore
SplineSet
1 0 m 1
 118 700 l 1
 374 700 l 2
 494 700 564 616 544 498 c 0
 524 380 426 296 306 296 c 2
 138 296 l 1
 88 0 l 1
 1 0 l 1
151 374 m 1
 324 374 l 2
 393 374 448 424 460 498 c 0
 473 573 434 622 365 622 c 2
 192 622 l 1
 151 374 l 1
EndSplineSet
Validated: 33
EndChar

StartChar: P.leftM
Encoding: 65637 -1 211
Width: 600
GlyphClass: 1
Flags: W
LayerCount: 2
Fore
SplineSet
15 0 m 1
 132 700 l 1
 388 700 l 2
 508 700 578 616 558 498 c 0
 538 380 440 296 320 296 c 2
 152 296 l 1
 102 0 l 1
 15 0 l 1
165 374 m 1
 338 374 l 2
 407 374 462 424 474 498 c 0
 487 573 448 622 379 622 c 2
 206 622 l 1
 165 374 l 1
EndSplineSet
Validated: 33
EndChar

StartChar: P.leftS
Encoding: 65638 -1 212
Width: 600
GlyphClass: 1
Flags: W
LayerCount: 2
Fore
SplineSet
27 0 m 1
 144 700 l 1
 400 700 l 2
 520 700 590 616 570 498 c 0
 550 380 452 296 332 296 c 2
 164 296 l 1
 114 0 l 1
 27 0 l 1
177 374 m 1
 350 374 l 2
 419 374 474 424 486 498 c 0
 499 573 460 622 391 622 c 2
 218 622 l 1
 177 374 l 1
EndSplineSet
Validated: 33
EndChar

StartChar: P.rightL
Encoding: 65639 -1 213
Width: 600
GlyphClass: 1
Flags: W
LayerCount: 2
Fore
SplineSet
89 0 m 1
 206 700 l 1
 462 700 l 2
 582 700 652 616 632 498 c 0
 612 380 514 296 394 296 c 2
 226 296 l 1
 176 0 l 1
 89 0 l 1
239 374 m 1
 412 374 l 2
 481 374 536 424 548 498 c 0
 561 573 522 622 453 622 c 2
 280 622 l 1
 239 374 l 1
EndSplineSet
Validated: 33
EndChar

StartChar: P.rightM
Encoding: 65640 -1 214
Width: 600
GlyphClass: 1
Flags: W
LayerCount: 2
Fore
SplineSet
75 0 m 1
 192 700 l 1
 448 700 l 2
 568 700 638 616 618 498 c 0
 598 380 500 296 380 296 c 2
 212 296 l 1
 162 0 l 1
 75 0 l 1
225 374 m 1
 398 374 l 2
 467 374 522 424 534 498 c 0
 547 573 508 622 439 622 c 2
 266 622 l 1
 225 374 l 1
EndSplineSet
Validated: 33
EndChar

StartChar: P.rightS
Encoding: 65641 -1 215
Width: 600
GlyphClass: 1
Flags: W
LayerCount: 2
Fore
SplineSet
63 0 m 1
 180 700 l 1
 436 700 l 2
 556 700 626 616 606 498 c 0
 586 380 488 296 368 296 c 2
 200 296 l 1
 150 0 l 1
 63 0 l 1
213 374 m 1
 386 374 l 2
 455 374 510 424 522 498 c 0
 535 573 496 622 427 622 c 2
 254 622 l 1
 213 374 l 1
EndSplineSet
Validated: 33
EndChar

StartChar: Phi
Encoding: 934 934 216
Width: 600
GlyphClass: 1
Flags: W
LayerCount: 2
Fore
SplineSet
293 0 m 1
 207 0 l 1
 221 79 l 1
 91 98 20 204 44 350 c 0
 69 496 176 602 311 621 c 1
 324 700 l 1
 410 700 l 1
 396 621 l 1
 526 602 597 496 573 350 c 0
 548 204 441 98 306 79 c 1
 293 0 l 1
130 350 m 0
 113 249 153 178 234 160 c 1
 298 540 l 1
 211 522 147 451 130 350 c 0
487 350 m 0
 504 451 464 522 383 540 c 1
 319 160 l 1
 406 178 470 249 487 350 c 0
EndSplineSet
Validated: 33
EndChar

StartChar: Pi
Encoding: 928 928 217
Width: 600
GlyphClass: 1
Flags: W
LayerCount: 2
Fore
SplineSet
16 0 m 1
 133 700 l 1
 601 700 l 1
 484 0 l 1
 397 0 l 1
 500 620 l 1
 207 620 l 1
 103 0 l 1
 16 0 l 1
EndSplineSet
Validated: 1
EndChar

StartChar: Psi
Encoding: 936 936 218
Width: 600
GlyphClass: 1
Flags: W
LayerCount: 2
Fore
SplineSet
623 700 m 1
 582 456 l 2
 559 319 459 222 327 205 c 1
 293 0 l 1
 207 0 l 1
 242 205 l 1
 115 222 47 319 70 456 c 2
 111 700 l 1
 196 700 l 1
 155 456 l 2
 140 365 179 302 255 286 c 1
 324 700 l 1
 410 700 l 1
 340 286 l 1
 422 302 482 365 497 456 c 2
 538 700 l 1
 623 700 l 1
EndSplineSet
Validated: 33
EndChar

StartChar: Q
Encoding: 81 81 219
Width: 600
GlyphClass: 1
Flags: W
LayerCount: 2
Fore
SplineSet
497 -64 m 1
 406 45 l 1
 359 10 305 -10 248 -10 c 0
 93 -10 9 138 44 350 c 0
 79 562 213 710 368 710 c 0
 523 710 607 562 572 350 c 0
 555 246 514 157 458 93 c 1
 551 -18 l 1
 497 -64 l 1
262 70 m 0
 297 70 329 81 358 102 c 1
 251 231 l 1
 304 277 l 1
 408 153 l 1
 444 201 471 269 485 350 c 0
 513 520 462 630 355 630 c 0
 248 630 160 520 131 350 c 0
 103 180 155 70 262 70 c 0
EndSplineSet
Validated: 33
Substitution2: "+U1VOAGb/Y2IA +Z+VifgAA 72+Zv9O44ho" Q.rightS
Substitution2: "+U1VOAGb/Y2IA +Z+VifgAA 71+Zv9O44ho" Q.rightM
Substitution2: "+U1VOAGb/Y2IA +Z+VifgAA 70+Zv9O44ho" Q.rightL
Substitution2: "+U1VOAGb/Y2IA +Z+VifgAA 69+Zv9O44ho" Q.leftS
Substitution2: "+U1VOAGb/Y2IA +Z+VifgAA 68+Zv9O44ho" Q.leftM
Substitution2: "+U1VOAGb/Y2IA +Z+VifgAA 67+Zv9O44ho" Q.leftL
Substitution2: "+U1VOAGb/Y2IA +Z+VifgAA 66+Zv9O44ho" Q.rightS
Substitution2: "+U1VOAGb/Y2IA +Z+VifgAA 65+Zv9O44ho" Q.rightM
Substitution2: "+U1VOAGb/Y2IA +Z+VifgAA 64+Zv9O44ho" Q.rightS
Substitution2: "+U1VOAGb/Y2IA +Z+VifgAA 63+Zv9O44ho" Q.rightM
Substitution2: "+U1VOAGb/Y2IA +Z+VifgAA 62+Zv9O44ho" Q.rightL
Substitution2: "+U1VOAGb/Y2IA +Z+VifgAA 61+Zv9O44ho" Q.leftS
Substitution2: "+U1VOAGb/Y2IA +Z+VifgAA 60+Zv9O44ho" Q.leftM
Substitution2: "+U1VOAGb/Y2IA +Z+VifgAA 59+Zv9O44ho" Q.leftL
EndChar

StartChar: Q.leftL
Encoding: 65642 -1 220
Width: 600
GlyphClass: 1
Flags: W
LayerCount: 2
Fore
SplineSet
453 -64 m 1
 362 45 l 1
 315 10 261 -10 204 -10 c 0
 49 -10 -35 138 0 350 c 0
 35 562 169 710 324 710 c 0
 479 710 563 562 528 350 c 0
 511 246 470 157 414 93 c 1
 507 -18 l 1
 453 -64 l 1
218 70 m 0
 253 70 285 81 314 102 c 1
 207 231 l 1
 260 277 l 1
 364 153 l 1
 400 201 427 269 441 350 c 0
 469 520 418 630 311 630 c 0
 204 630 116 520 87 350 c 0
 59 180 111 70 218 70 c 0
EndSplineSet
Validated: 33
EndChar

StartChar: Q.leftM
Encoding: 65643 -1 221
Width: 600
GlyphClass: 1
Flags: W
LayerCount: 2
Fore
SplineSet
467 -64 m 1
 376 45 l 1
 329 10 275 -10 218 -10 c 0
 63 -10 -21 138 14 350 c 0
 49 562 183 710 338 710 c 0
 493 710 577 562 542 350 c 0
 525 246 484 157 428 93 c 1
 521 -18 l 1
 467 -64 l 1
232 70 m 0
 267 70 299 81 328 102 c 1
 221 231 l 1
 274 277 l 1
 378 153 l 1
 414 201 441 269 455 350 c 0
 483 520 432 630 325 630 c 0
 218 630 130 520 101 350 c 0
 73 180 125 70 232 70 c 0
EndSplineSet
Validated: 33
EndChar

StartChar: Q.leftS
Encoding: 65644 -1 222
Width: 600
GlyphClass: 1
Flags: W
LayerCount: 2
Fore
SplineSet
479 -64 m 1
 388 45 l 1
 341 10 287 -10 230 -10 c 0
 75 -10 -9 138 26 350 c 0
 61 562 195 710 350 710 c 0
 505 710 589 562 554 350 c 0
 537 246 496 157 440 93 c 1
 533 -18 l 1
 479 -64 l 1
244 70 m 0
 279 70 311 81 340 102 c 1
 233 231 l 1
 286 277 l 1
 390 153 l 1
 426 201 453 269 467 350 c 0
 495 520 444 630 337 630 c 0
 230 630 142 520 113 350 c 0
 85 180 137 70 244 70 c 0
EndSplineSet
Validated: 33
EndChar

StartChar: Q.rightL
Encoding: 65645 -1 223
Width: 600
GlyphClass: 1
Flags: W
LayerCount: 2
Fore
SplineSet
541 -64 m 1
 450 45 l 1
 403 10 349 -10 292 -10 c 0
 137 -10 53 138 88 350 c 0
 123 562 257 710 412 710 c 0
 567 710 651 562 616 350 c 0
 599 246 558 157 502 93 c 1
 595 -18 l 1
 541 -64 l 1
306 70 m 0
 341 70 373 81 402 102 c 1
 295 231 l 1
 348 277 l 1
 452 153 l 1
 488 201 515 269 529 350 c 0
 557 520 506 630 399 630 c 0
 292 630 204 520 175 350 c 0
 147 180 199 70 306 70 c 0
EndSplineSet
Validated: 33
EndChar

StartChar: Q.rightM
Encoding: 65646 -1 224
Width: 600
GlyphClass: 1
Flags: W
LayerCount: 2
Fore
SplineSet
527 -64 m 1
 436 45 l 1
 389 10 335 -10 278 -10 c 0
 123 -10 39 138 74 350 c 0
 109 562 243 710 398 710 c 0
 553 710 637 562 602 350 c 0
 585 246 544 157 488 93 c 1
 581 -18 l 1
 527 -64 l 1
292 70 m 0
 327 70 359 81 388 102 c 1
 281 231 l 1
 334 277 l 1
 438 153 l 1
 474 201 501 269 515 350 c 0
 543 520 492 630 385 630 c 0
 278 630 190 520 161 350 c 0
 133 180 185 70 292 70 c 0
EndSplineSet
Validated: 33
EndChar

StartChar: Q.rightS
Encoding: 65647 -1 225
Width: 600
GlyphClass: 1
Flags: W
LayerCount: 2
Fore
SplineSet
515 -64 m 1
 424 45 l 1
 377 10 323 -10 266 -10 c 0
 111 -10 27 138 62 350 c 0
 97 562 231 710 386 710 c 0
 541 710 625 562 590 350 c 0
 573 246 532 157 476 93 c 1
 569 -18 l 1
 515 -64 l 1
280 70 m 0
 315 70 347 81 376 102 c 1
 269 231 l 1
 322 277 l 1
 426 153 l 1
 462 201 489 269 503 350 c 0
 531 520 480 630 373 630 c 0
 266 630 178 520 149 350 c 0
 121 180 173 70 280 70 c 0
EndSplineSet
Validated: 33
EndChar

StartChar: R
Encoding: 82 82 226
Width: 600
GlyphClass: 1
Flags: W
LayerCount: 2
Fore
SplineSet
195 388 m 1
 365 388 l 2
 431 388 484 435 496 505 c 0
 507 575 470 622 404 622 c 2
 233 622 l 1
 195 388 l 1
43 0 m 1
 160 700 l 1
 413 700 l 2
 530 700 598 620 579 505 c 0
 563 410 495 339 406 317 c 1
 515 0 l 1
 420 0 l 1
 313 310 l 1
 182 310 l 1
 130 0 l 1
 43 0 l 1
EndSplineSet
Validated: 33
Substitution2: "+U1VOAGb/Y2IA +Z+VifgAA 72+Zv9O44ho" R.rightS
Substitution2: "+U1VOAGb/Y2IA +Z+VifgAA 71+Zv9O44ho" R.rightM
Substitution2: "+U1VOAGb/Y2IA +Z+VifgAA 70+Zv9O44ho" R.rightL
Substitution2: "+U1VOAGb/Y2IA +Z+VifgAA 69+Zv9O44ho" R.leftS
Substitution2: "+U1VOAGb/Y2IA +Z+VifgAA 68+Zv9O44ho" R.leftM
Substitution2: "+U1VOAGb/Y2IA +Z+VifgAA 67+Zv9O44ho" R.leftL
Substitution2: "+U1VOAGb/Y2IA +Z+VifgAA 66+Zv9O44ho" R.rightS
Substitution2: "+U1VOAGb/Y2IA +Z+VifgAA 65+Zv9O44ho" R.rightM
Substitution2: "+U1VOAGb/Y2IA +Z+VifgAA 64+Zv9O44ho" R.rightS
Substitution2: "+U1VOAGb/Y2IA +Z+VifgAA 63+Zv9O44ho" R.rightM
Substitution2: "+U1VOAGb/Y2IA +Z+VifgAA 62+Zv9O44ho" R.rightL
Substitution2: "+U1VOAGb/Y2IA +Z+VifgAA 61+Zv9O44ho" R.leftS
Substitution2: "+U1VOAGb/Y2IA +Z+VifgAA 60+Zv9O44ho" R.leftM
Substitution2: "+U1VOAGb/Y2IA +Z+VifgAA 59+Zv9O44ho" R.leftL
EndChar

StartChar: R.leftL
Encoding: 65648 -1 227
Width: 600
GlyphClass: 1
Flags: W
LayerCount: 2
Fore
SplineSet
151 388 m 1
 321 388 l 2
 387 388 440 435 452 505 c 0
 463 575 426 622 360 622 c 2
 189 622 l 1
 151 388 l 1
-1 0 m 1
 116 700 l 1
 369 700 l 2
 486 700 554 620 535 505 c 0
 519 410 451 339 362 317 c 1
 471 0 l 1
 376 0 l 1
 269 310 l 1
 138 310 l 1
 86 0 l 1
 -1 0 l 1
EndSplineSet
Validated: 33
EndChar

StartChar: R.leftM
Encoding: 65649 -1 228
Width: 600
GlyphClass: 1
Flags: W
LayerCount: 2
Fore
SplineSet
165 388 m 1
 335 388 l 2
 401 388 454 435 466 505 c 0
 477 575 440 622 374 622 c 2
 203 622 l 1
 165 388 l 1
13 0 m 1
 130 700 l 1
 383 700 l 2
 500 700 568 620 549 505 c 0
 533 410 465 339 376 317 c 1
 485 0 l 1
 390 0 l 1
 283 310 l 1
 152 310 l 1
 100 0 l 1
 13 0 l 1
EndSplineSet
Validated: 33
EndChar

StartChar: R.leftS
Encoding: 65650 -1 229
Width: 600
GlyphClass: 1
Flags: W
LayerCount: 2
Fore
SplineSet
177 388 m 1
 347 388 l 2
 413 388 466 435 478 505 c 0
 489 575 452 622 386 622 c 2
 215 622 l 1
 177 388 l 1
25 0 m 1
 142 700 l 1
 395 700 l 2
 512 700 580 620 561 505 c 0
 545 410 477 339 388 317 c 1
 497 0 l 1
 402 0 l 1
 295 310 l 1
 164 310 l 1
 112 0 l 1
 25 0 l 1
EndSplineSet
Validated: 33
EndChar

StartChar: R.rightL
Encoding: 65651 -1 230
Width: 600
GlyphClass: 1
Flags: W
LayerCount: 2
Fore
SplineSet
239 388 m 1
 409 388 l 2
 475 388 528 435 540 505 c 0
 551 575 514 622 448 622 c 2
 277 622 l 1
 239 388 l 1
87 0 m 1
 204 700 l 1
 457 700 l 2
 574 700 642 620 623 505 c 0
 607 410 539 339 450 317 c 1
 559 0 l 1
 464 0 l 1
 357 310 l 1
 226 310 l 1
 174 0 l 1
 87 0 l 1
EndSplineSet
Validated: 33
EndChar

StartChar: R.rightM
Encoding: 65652 -1 231
Width: 600
GlyphClass: 1
Flags: W
LayerCount: 2
Fore
SplineSet
225 388 m 1
 395 388 l 2
 461 388 514 435 526 505 c 0
 537 575 500 622 434 622 c 2
 263 622 l 1
 225 388 l 1
73 0 m 1
 190 700 l 1
 443 700 l 2
 560 700 628 620 609 505 c 0
 593 410 525 339 436 317 c 1
 545 0 l 1
 450 0 l 1
 343 310 l 1
 212 310 l 1
 160 0 l 1
 73 0 l 1
EndSplineSet
Validated: 33
EndChar

StartChar: R.rightS
Encoding: 65653 -1 232
Width: 600
GlyphClass: 1
Flags: W
LayerCount: 2
Fore
SplineSet
213 388 m 1
 383 388 l 2
 449 388 502 435 514 505 c 0
 525 575 488 622 422 622 c 2
 251 622 l 1
 213 388 l 1
61 0 m 1
 178 700 l 1
 431 700 l 2
 548 700 616 620 597 505 c 0
 581 410 513 339 424 317 c 1
 533 0 l 1
 438 0 l 1
 331 310 l 1
 200 310 l 1
 148 0 l 1
 61 0 l 1
EndSplineSet
Validated: 33
EndChar

StartChar: Racute
Encoding: 340 340 233
Width: 600
GlyphClass: 1
Flags: W
LayerCount: 2
Fore
SplineSet
195 388 m 1
 365 388 l 2
 431 388 484 435 496 505 c 0
 507 575 470 622 404 622 c 2
 233 622 l 1
 195 388 l 1
43 0 m 1
 160 700 l 1
 413 700 l 2
 530 700 598 620 579 505 c 0
 563 410 495 339 406 317 c 1
 515 0 l 1
 420 0 l 1
 313 310 l 1
 182 310 l 1
 130 0 l 1
 43 0 l 1
559 977 m 1
 413 792 l 1
 340 792 l 1
 448 977 l 1
 559 977 l 1
EndSplineSet
Validated: 33
EndChar

StartChar: Rcaron
Encoding: 344 344 234
Width: 600
GlyphClass: 1
Flags: W
LayerCount: 2
Fore
SplineSet
195 388 m 1
 365 388 l 2
 431 388 484 435 496 505 c 0
 507 575 470 622 404 622 c 2
 233 622 l 1
 195 388 l 1
43 0 m 1
 160 700 l 1
 413 700 l 2
 530 700 598 620 579 505 c 0
 563 410 495 339 406 317 c 1
 515 0 l 1
 420 0 l 1
 313 310 l 1
 182 310 l 1
 130 0 l 1
 43 0 l 1
349 785 m 1
 267 961 l 1
 340 961 l 1
 405 858 l 1
 504 961 l 1
 577 961 l 1
 438 785 l 1
 349 785 l 1
EndSplineSet
Validated: 33
EndChar

StartChar: uni0156
Encoding: 342 342 235
Width: 600
GlyphClass: 1
Flags: W
LayerCount: 2
Fore
SplineSet
195 388 m 1
 365 388 l 2
 431 388 484 435 496 505 c 0
 507 575 470 622 404 622 c 2
 233 622 l 1
 195 388 l 1
43 0 m 1
 160 700 l 1
 413 700 l 2
 530 700 598 620 579 505 c 0
 563 410 495 339 406 317 c 1
 515 0 l 1
 420 0 l 1
 313 310 l 1
 182 310 l 1
 130 0 l 1
 43 0 l 1
309 -73 m 1
 162 -258 l 1
 89 -258 l 1
 198 -73 l 1
 309 -73 l 1
EndSplineSet
Validated: 33
EndChar

StartChar: Rho
Encoding: 929 929 236
Width: 600
GlyphClass: 1
Flags: W
LayerCount: 2
Fore
SplineSet
45 0 m 1
 162 700 l 1
 418 700 l 2
 538 700 608 616 588 498 c 0
 568 380 470 296 350 296 c 2
 182 296 l 1
 132 0 l 1
 45 0 l 1
195 374 m 1
 368 374 l 2
 437 374 492 424 504 498 c 0
 517 573 478 622 409 622 c 2
 236 622 l 1
 195 374 l 1
EndSplineSet
Validated: 33
EndChar

StartChar: S
Encoding: 83 83 237
Width: 600
GlyphClass: 1
Flags: W
LayerCount: 2
Fore
SplineSet
45 178 m 1
 126 178 l 1
 123 111 178 64 262 64 c 0
 349 64 419 115 431 190 c 0
 442 254 403 293 318 312 c 2
 279 320 l 2
 156 345 103 409 120 510 c 0
 139 629 240 710 368 710 c 0
 492 710 576 634 565 532 c 1
 483 532 l 1
 485 591 432 633 357 633 c 0
 278 633 217 586 205 516 c 0
 195 456 228 418 304 402 c 2
 343 394 l 2
 476 366 535 300 517 194 c 0
 496 71 388 -14 251 -14 c 0
 117 -14 30 67 45 178 c 1
EndSplineSet
Validated: 33
Substitution2: "+U1VOAGb/Y2IA +Z+VifgAA 72+Zv9O44ho" S.rightS
Substitution2: "+U1VOAGb/Y2IA +Z+VifgAA 71+Zv9O44ho" S.rightM
Substitution2: "+U1VOAGb/Y2IA +Z+VifgAA 70+Zv9O44ho" S.rightL
Substitution2: "+U1VOAGb/Y2IA +Z+VifgAA 69+Zv9O44ho" S.leftS
Substitution2: "+U1VOAGb/Y2IA +Z+VifgAA 68+Zv9O44ho" S.leftM
Substitution2: "+U1VOAGb/Y2IA +Z+VifgAA 67+Zv9O44ho" S.leftL
Substitution2: "+U1VOAGb/Y2IA +Z+VifgAA 66+Zv9O44ho" S.rightS
Substitution2: "+U1VOAGb/Y2IA +Z+VifgAA 65+Zv9O44ho" S.rightM
Substitution2: "+U1VOAGb/Y2IA +Z+VifgAA 64+Zv9O44ho" S.rightS
Substitution2: "+U1VOAGb/Y2IA +Z+VifgAA 63+Zv9O44ho" S.rightM
Substitution2: "+U1VOAGb/Y2IA +Z+VifgAA 62+Zv9O44ho" S.rightL
Substitution2: "+U1VOAGb/Y2IA +Z+VifgAA 61+Zv9O44ho" S.leftS
Substitution2: "+U1VOAGb/Y2IA +Z+VifgAA 60+Zv9O44ho" S.leftM
Substitution2: "+U1VOAGb/Y2IA +Z+VifgAA 59+Zv9O44ho" S.leftL
EndChar

StartChar: S.leftL
Encoding: 65654 -1 238
Width: 600
GlyphClass: 1
Flags: W
LayerCount: 2
Fore
SplineSet
1 178 m 1
 82 178 l 1
 79 111 134 64 218 64 c 0
 305 64 375 115 387 190 c 0
 398 254 359 293 274 312 c 2
 235 320 l 2
 112 345 59 409 76 510 c 0
 95 629 196 710 324 710 c 0
 448 710 532 634 521 532 c 1
 439 532 l 1
 441 591 388 633 313 633 c 0
 234 633 173 586 161 516 c 0
 151 456 184 418 260 402 c 2
 299 394 l 2
 432 366 491 300 473 194 c 0
 452 71 344 -14 207 -14 c 0
 73 -14 -14 67 1 178 c 1
EndSplineSet
Validated: 33
EndChar

StartChar: S.leftM
Encoding: 65655 -1 239
Width: 600
GlyphClass: 1
Flags: W
LayerCount: 2
Fore
SplineSet
15 178 m 1
 96 178 l 1
 93 111 148 64 232 64 c 0
 319 64 389 115 401 190 c 0
 412 254 373 293 288 312 c 2
 249 320 l 2
 126 345 73 409 90 510 c 0
 109 629 210 710 338 710 c 0
 462 710 546 634 535 532 c 1
 453 532 l 1
 455 591 402 633 327 633 c 0
 248 633 187 586 175 516 c 0
 165 456 198 418 274 402 c 2
 313 394 l 2
 446 366 505 300 487 194 c 0
 466 71 358 -14 221 -14 c 0
 87 -14 0 67 15 178 c 1
EndSplineSet
Validated: 33
EndChar

StartChar: S.leftS
Encoding: 65656 -1 240
Width: 600
GlyphClass: 1
Flags: W
LayerCount: 2
Fore
SplineSet
33 178 m 1
 114 178 l 1
 111 111 166 64 250 64 c 0
 337 64 407 115 419 190 c 0
 430 254 391 293 306 312 c 2
 267 320 l 2
 144 345 91 409 108 510 c 0
 127 629 228 710 356 710 c 0
 480 710 564 634 553 532 c 1
 471 532 l 1
 473 591 420 633 345 633 c 0
 266 633 205 586 193 516 c 0
 183 456 216 418 292 402 c 2
 331 394 l 2
 464 366 523 300 505 194 c 0
 484 71 376 -14 239 -14 c 0
 105 -14 18 67 33 178 c 1
EndSplineSet
Validated: 33
EndChar

StartChar: S.rightL
Encoding: 65657 -1 241
Width: 600
GlyphClass: 1
Flags: W
LayerCount: 2
Fore
SplineSet
89 178 m 1
 170 178 l 1
 167 111 222 64 306 64 c 0
 393 64 463 115 475 190 c 0
 486 254 447 293 362 312 c 2
 323 320 l 2
 200 345 147 409 164 510 c 0
 183 629 284 710 412 710 c 0
 536 710 620 634 609 532 c 1
 527 532 l 1
 529 591 476 633 401 633 c 0
 322 633 261 586 249 516 c 0
 239 456 272 418 348 402 c 2
 387 394 l 2
 520 366 579 300 561 194 c 0
 540 71 432 -14 295 -14 c 0
 161 -14 74 67 89 178 c 1
EndSplineSet
Validated: 33
EndChar

StartChar: S.rightM
Encoding: 65658 -1 242
Width: 600
GlyphClass: 1
Flags: W
LayerCount: 2
Fore
SplineSet
75 178 m 1
 156 178 l 1
 153 111 208 64 292 64 c 0
 379 64 449 115 461 190 c 0
 472 254 433 293 348 312 c 2
 309 320 l 2
 186 345 133 409 150 510 c 0
 169 629 270 710 398 710 c 0
 522 710 606 634 595 532 c 1
 513 532 l 1
 515 591 462 633 387 633 c 0
 308 633 247 586 235 516 c 0
 225 456 258 418 334 402 c 2
 373 394 l 2
 506 366 565 300 547 194 c 0
 526 71 418 -14 281 -14 c 0
 147 -14 60 67 75 178 c 1
EndSplineSet
Validated: 33
EndChar

StartChar: S.rightS
Encoding: 65659 -1 243
Width: 600
GlyphClass: 1
Flags: W
LayerCount: 2
Fore
SplineSet
57 178 m 1
 138 178 l 1
 135 111 190 64 274 64 c 0
 361 64 431 115 443 190 c 0
 454 254 415 293 330 312 c 2
 291 320 l 2
 168 345 115 409 132 510 c 0
 151 629 252 710 380 710 c 0
 504 710 588 634 577 532 c 1
 495 532 l 1
 497 591 444 633 369 633 c 0
 290 633 229 586 217 516 c 0
 207 456 240 418 316 402 c 2
 355 394 l 2
 488 366 547 300 529 194 c 0
 508 71 400 -14 263 -14 c 0
 129 -14 42 67 57 178 c 1
EndSplineSet
Validated: 33
EndChar

StartChar: Sacute
Encoding: 346 346 244
Width: 600
GlyphClass: 1
Flags: W
LayerCount: 2
Fore
SplineSet
45 178 m 1
 126 178 l 1
 123 111 178 64 262 64 c 0
 349 64 419 115 431 190 c 0
 442 254 403 293 318 312 c 2
 279 320 l 2
 156 345 103 409 120 510 c 0
 139 629 240 710 368 710 c 0
 492 710 576 634 565 532 c 1
 483 532 l 1
 485 591 432 633 357 633 c 0
 278 633 217 586 205 516 c 0
 195 456 228 418 304 402 c 2
 343 394 l 2
 476 366 535 300 517 194 c 0
 496 71 388 -14 251 -14 c 0
 117 -14 30 67 45 178 c 1
547 977 m 1
 401 792 l 1
 328 792 l 1
 436 977 l 1
 547 977 l 1
EndSplineSet
Validated: 33
EndChar

StartChar: Scaron
Encoding: 352 352 245
Width: 600
GlyphClass: 1
Flags: W
LayerCount: 2
Fore
SplineSet
45 178 m 1
 126 178 l 1
 123 111 178 64 262 64 c 0
 349 64 419 115 431 190 c 0
 442 254 403 293 318 312 c 2
 279 320 l 2
 156 345 103 409 120 510 c 0
 139 629 240 710 368 710 c 0
 492 710 576 634 565 532 c 1
 483 532 l 1
 485 591 432 633 357 633 c 0
 278 633 217 586 205 516 c 0
 195 456 228 418 304 402 c 2
 343 394 l 2
 476 366 535 300 517 194 c 0
 496 71 388 -14 251 -14 c 0
 117 -14 30 67 45 178 c 1
337 785 m 1
 255 961 l 1
 328 961 l 1
 393 858 l 1
 492 961 l 1
 565 961 l 1
 426 785 l 1
 337 785 l 1
EndSplineSet
Validated: 33
EndChar

StartChar: Scedilla
Encoding: 350 350 246
Width: 600
GlyphClass: 1
Flags: W
LayerCount: 2
Fore
SplineSet
191 -159 m 1
 191 -185 210 -203 240 -203 c 0
 271 -203 296 -183 301 -154 c 0
 306 -124 286 -104 255 -104 c 0
 240 -104 227 -109 217 -116 c 1
 176 -101 l 1
 207 -11 l 1
 99 5 32 80 45 178 c 1
 126 178 l 1
 123 111 178 64 262 64 c 0
 349 64 419 115 431 190 c 0
 442 254 403 293 318 312 c 2
 279 320 l 2
 156 345 103 409 120 510 c 0
 139 629 240 710 368 710 c 0
 492 710 576 634 565 532 c 1
 483 532 l 1
 485 591 432 633 357 633 c 0
 278 633 217 586 205 516 c 0
 195 456 228 418 304 402 c 2
 343 394 l 2
 476 366 535 300 517 194 c 0
 497 79 402 -2 279 -13 c 1
 265 -53 l 1
 335 -44 380 -87 370 -151 c 0
 359 -214 299 -261 228 -261 c 0
 160 -261 117 -218 124 -159 c 1
 191 -159 l 1
EndSplineSet
Validated: 33
EndChar

StartChar: Scircumflex
Encoding: 348 348 247
Width: 600
GlyphClass: 1
Flags: W
LayerCount: 2
Fore
SplineSet
45 178 m 1
 126 178 l 1
 123 111 178 64 262 64 c 0
 349 64 419 115 431 190 c 0
 442 254 403 293 318 312 c 2
 279 320 l 2
 156 345 103 409 120 510 c 0
 139 629 240 710 368 710 c 0
 492 710 576 634 565 532 c 1
 483 532 l 1
 485 591 432 633 357 633 c 0
 278 633 217 586 205 516 c 0
 195 456 228 418 304 402 c 2
 343 394 l 2
 476 366 535 300 517 194 c 0
 496 71 388 -14 251 -14 c 0
 117 -14 30 67 45 178 c 1
227 785 m 1
 366 961 l 1
 454 961 l 1
 536 785 l 1
 463 785 l 1
 398 889 l 1
 299 785 l 1
 227 785 l 1
EndSplineSet
Validated: 33
EndChar

StartChar: uni0218
Encoding: 536 536 248
Width: 600
GlyphClass: 1
Flags: W
LayerCount: 2
Fore
SplineSet
45 178 m 1
 126 178 l 1
 123 111 178 64 262 64 c 0
 349 64 419 115 431 190 c 0
 442 254 403 293 318 312 c 2
 279 320 l 2
 156 345 103 409 120 510 c 0
 139 629 240 710 368 710 c 0
 492 710 576 634 565 532 c 1
 483 532 l 1
 485 591 432 633 357 633 c 0
 278 633 217 586 205 516 c 0
 195 456 228 418 304 402 c 2
 343 394 l 2
 476 366 535 300 517 194 c 0
 496 71 388 -14 251 -14 c 0
 117 -14 30 67 45 178 c 1
289 -73 m 1
 142 -258 l 1
 69 -258 l 1
 178 -73 l 1
 289 -73 l 1
EndSplineSet
Validated: 33
EndChar

StartChar: Sigma
Encoding: 931 931 249
Width: 600
GlyphClass: 1
Flags: W
LayerCount: 2
Fore
SplineSet
6 0 m 1
 18 71 l 1
 322 356 l 1
 116 626 l 1
 128 697 l 1
 589 697 l 1
 576 620 l 1
 233 620 l 1
 433 357 l 1
 134 77 l 1
 507 77 l 1
 494 0 l 1
 6 0 l 1
EndSplineSet
Validated: 1
EndChar

StartChar: T
Encoding: 84 84 250
Width: 600
GlyphClass: 1
Flags: W
LayerCount: 2
Fore
SplineSet
207 0 m 1
 310 622 l 1
 99 622 l 1
 113 700 l 1
 621 700 l 1
 607 622 l 1
 397 622 l 1
 294 0 l 1
 207 0 l 1
EndSplineSet
Validated: 1
Substitution2: "+U1VOAGb/Y2IA +Z+VifgAA 72+Zv9O44ho" T.rightS
Substitution2: "+U1VOAGb/Y2IA +Z+VifgAA 71+Zv9O44ho" T.rightM
Substitution2: "+U1VOAGb/Y2IA +Z+VifgAA 70+Zv9O44ho" T.rightL
Substitution2: "+U1VOAGb/Y2IA +Z+VifgAA 69+Zv9O44ho" T.leftS
Substitution2: "+U1VOAGb/Y2IA +Z+VifgAA 68+Zv9O44ho" T.leftM
Substitution2: "+U1VOAGb/Y2IA +Z+VifgAA 67+Zv9O44ho" T.leftL
Substitution2: "+U1VOAGb/Y2IA +Z+VifgAA 66+Zv9O44ho" T.rightS
Substitution2: "+U1VOAGb/Y2IA +Z+VifgAA 65+Zv9O44ho" T.rightM
Substitution2: "+U1VOAGb/Y2IA +Z+VifgAA 64+Zv9O44ho" T.rightS
Substitution2: "+U1VOAGb/Y2IA +Z+VifgAA 63+Zv9O44ho" T.rightM
Substitution2: "+U1VOAGb/Y2IA +Z+VifgAA 62+Zv9O44ho" T.rightL
Substitution2: "+U1VOAGb/Y2IA +Z+VifgAA 61+Zv9O44ho" T.leftS
Substitution2: "+U1VOAGb/Y2IA +Z+VifgAA 60+Zv9O44ho" T.leftM
Substitution2: "+U1VOAGb/Y2IA +Z+VifgAA 59+Zv9O44ho" T.leftL
EndChar

StartChar: T.leftL
Encoding: 65660 -1 251
Width: 600
GlyphClass: 1
Flags: W
LayerCount: 2
Fore
SplineSet
163 0 m 1
 266 622 l 1
 55 622 l 1
 69 700 l 1
 577 700 l 1
 563 622 l 1
 353 622 l 1
 250 0 l 1
 163 0 l 1
EndSplineSet
Validated: 1
EndChar

StartChar: T.leftM
Encoding: 65661 -1 252
Width: 600
GlyphClass: 1
Flags: W
LayerCount: 2
Fore
SplineSet
177 0 m 1
 280 622 l 1
 69 622 l 1
 83 700 l 1
 591 700 l 1
 577 622 l 1
 367 622 l 1
 264 0 l 1
 177 0 l 1
EndSplineSet
Validated: 1
EndChar

StartChar: T.leftS
Encoding: 65662 -1 253
Width: 600
GlyphClass: 1
Flags: W
LayerCount: 2
Fore
SplineSet
189 0 m 1
 292 622 l 1
 81 622 l 1
 95 700 l 1
 603 700 l 1
 589 622 l 1
 379 622 l 1
 276 0 l 1
 189 0 l 1
EndSplineSet
Validated: 1
EndChar

StartChar: T.rightL
Encoding: 65663 -1 254
Width: 600
GlyphClass: 1
Flags: W
LayerCount: 2
Fore
SplineSet
251 0 m 1
 354 622 l 1
 143 622 l 1
 157 700 l 1
 665 700 l 1
 651 622 l 1
 441 622 l 1
 338 0 l 1
 251 0 l 1
EndSplineSet
Validated: 1
EndChar

StartChar: T.rightM
Encoding: 65664 -1 255
Width: 600
GlyphClass: 1
Flags: W
LayerCount: 2
Fore
SplineSet
237 0 m 1
 340 622 l 1
 129 622 l 1
 143 700 l 1
 651 700 l 1
 637 622 l 1
 427 622 l 1
 324 0 l 1
 237 0 l 1
EndSplineSet
Validated: 1
EndChar

StartChar: T.rightS
Encoding: 65665 -1 256
Width: 600
GlyphClass: 1
Flags: W
LayerCount: 2
Fore
SplineSet
225 0 m 1
 328 622 l 1
 117 622 l 1
 131 700 l 1
 639 700 l 1
 625 622 l 1
 415 622 l 1
 312 0 l 1
 225 0 l 1
EndSplineSet
Validated: 1
EndChar

StartChar: Tau
Encoding: 932 932 257
Width: 600
GlyphClass: 1
Flags: W
LayerCount: 2
Fore
SplineSet
207 0 m 1
 310 622 l 1
 99 622 l 1
 113 700 l 1
 621 700 l 1
 607 622 l 1
 397 622 l 1
 294 0 l 1
 207 0 l 1
EndSplineSet
Validated: 1
EndChar

StartChar: Tbar
Encoding: 358 358 258
Width: 600
GlyphClass: 1
Flags: W
LayerCount: 2
Fore
SplineSet
207 0 m 1
 257 300 l 1
 146 300 l 1
 158 370 l 1
 268 370 l 1
 310 622 l 1
 99 622 l 1
 113 700 l 1
 621 700 l 1
 607 622 l 1
 397 622 l 1
 355 370 l 1
 466 370 l 1
 454 300 l 1
 344 300 l 1
 294 0 l 1
 207 0 l 1
EndSplineSet
Validated: 1
EndChar

StartChar: Tcaron
Encoding: 356 356 259
Width: 600
GlyphClass: 1
Flags: W
LayerCount: 2
Fore
SplineSet
207 0 m 1
 310 622 l 1
 99 622 l 1
 113 700 l 1
 621 700 l 1
 607 622 l 1
 397 622 l 1
 294 0 l 1
 207 0 l 1
337 785 m 1
 255 961 l 1
 328 961 l 1
 393 858 l 1
 492 961 l 1
 565 961 l 1
 426 785 l 1
 337 785 l 1
EndSplineSet
Validated: 1
EndChar

StartChar: uni0162
Encoding: 354 354 260
Width: 600
GlyphClass: 1
Flags: W
LayerCount: 2
Fore
SplineSet
207 0 m 1
 310 622 l 1
 99 622 l 1
 113 700 l 1
 621 700 l 1
 607 622 l 1
 397 622 l 1
 294 0 l 1
 285 0 l 1
 267 -53 l 1
 337 -44 382 -87 372 -151 c 0
 361 -214 301 -261 230 -261 c 0
 162 -261 119 -218 126 -159 c 1
 193 -159 l 1
 193 -185 212 -203 242 -203 c 0
 273 -203 298 -183 303 -154 c 0
 308 -124 288 -104 257 -104 c 0
 242 -104 229 -109 219 -116 c 1
 178 -101 l 1
 213 0 l 1
 207 0 l 1
EndSplineSet
Validated: 33
EndChar

StartChar: uni021A
Encoding: 538 538 261
Width: 600
GlyphClass: 1
Flags: W
LayerCount: 2
Fore
SplineSet
207 0 m 1
 310 622 l 1
 99 622 l 1
 113 700 l 1
 621 700 l 1
 607 622 l 1
 397 622 l 1
 294 0 l 1
 207 0 l 1
291 -73 m 1
 144 -258 l 1
 71 -258 l 1
 180 -73 l 1
 291 -73 l 1
EndSplineSet
Validated: 1
EndChar

StartChar: Theta
Encoding: 920 920 262
Width: 600
GlyphClass: 1
Flags: W
LayerCount: 2
Fore
SplineSet
248 -10 m 0
 93 -10 9 138 44 350 c 0
 79 562 213 710 368 710 c 0
 523 710 607 562 572 350 c 0
 537 138 403 -10 248 -10 c 0
262 70 m 0
 369 70 456 180 485 350 c 0
 513 520 462 630 355 630 c 0
 248 630 160 520 131 350 c 0
 103 180 155 70 262 70 c 0
190 312 m 1
 197 388 l 1
 426 388 l 1
 419 312 l 1
 190 312 l 1
EndSplineSet
Validated: 33
EndChar

StartChar: Thorn
Encoding: 222 222 263
Width: 600
GlyphClass: 1
Flags: W
LayerCount: 2
Fore
SplineSet
44 0 m 1
 161 700 l 1
 248 700 l 1
 224 557 l 1
 387 557 l 2
 504 557 573 473 553 355 c 0
 533 237 437 153 320 153 c 2
 157 153 l 1
 131 0 l 1
 44 0 l 1
170 231 m 1
 333 231 l 2
 400 231 453 281 465 355 c 0
 478 429 442 479 375 479 c 2
 211 479 l 1
 170 231 l 1
EndSplineSet
Validated: 33
EndChar

StartChar: U
Encoding: 85 85 264
Width: 600
GlyphClass: 1
Flags: W
LayerCount: 2
Fore
SplineSet
601 700 m 1
 521 220 l 2
 498 85 385 -10 248 -10 c 0
 111 -10 30 85 53 220 c 2
 133 700 l 1
 220 700 l 1
 140 220 l 2
 126 130 174 70 262 70 c 0
 349 70 419 130 434 220 c 2
 514 700 l 1
 601 700 l 1
EndSplineSet
Validated: 33
Substitution2: "+U1VOAGb/Y2IA +Z+VifgAA 72+Zv9O44ho" U.rightS
Substitution2: "+U1VOAGb/Y2IA +Z+VifgAA 71+Zv9O44ho" U.rightM
Substitution2: "+U1VOAGb/Y2IA +Z+VifgAA 70+Zv9O44ho" U.rightL
Substitution2: "+U1VOAGb/Y2IA +Z+VifgAA 69+Zv9O44ho" U.leftS
Substitution2: "+U1VOAGb/Y2IA +Z+VifgAA 68+Zv9O44ho" U.leftM
Substitution2: "+U1VOAGb/Y2IA +Z+VifgAA 67+Zv9O44ho" U.leftL
Substitution2: "+U1VOAGb/Y2IA +Z+VifgAA 66+Zv9O44ho" U.rightS
Substitution2: "+U1VOAGb/Y2IA +Z+VifgAA 65+Zv9O44ho" U.rightM
Substitution2: "+U1VOAGb/Y2IA +Z+VifgAA 64+Zv9O44ho" U.rightS
Substitution2: "+U1VOAGb/Y2IA +Z+VifgAA 63+Zv9O44ho" U.rightM
Substitution2: "+U1VOAGb/Y2IA +Z+VifgAA 62+Zv9O44ho" U.rightL
Substitution2: "+U1VOAGb/Y2IA +Z+VifgAA 61+Zv9O44ho" U.leftS
Substitution2: "+U1VOAGb/Y2IA +Z+VifgAA 60+Zv9O44ho" U.leftM
Substitution2: "+U1VOAGb/Y2IA +Z+VifgAA 59+Zv9O44ho" U.leftL
EndChar

StartChar: U.leftL
Encoding: 65666 -1 265
Width: 600
GlyphClass: 1
Flags: W
LayerCount: 2
Fore
SplineSet
557 700 m 1
 477 220 l 2
 454 85 341 -10 204 -10 c 0
 67 -10 -14 85 9 220 c 2
 89 700 l 1
 176 700 l 1
 96 220 l 2
 82 130 130 70 218 70 c 0
 305 70 375 130 390 220 c 2
 470 700 l 1
 557 700 l 1
EndSplineSet
Validated: 33
EndChar

StartChar: U.leftM
Encoding: 65667 -1 266
Width: 600
GlyphClass: 1
Flags: W
LayerCount: 2
Fore
SplineSet
571 700 m 1
 491 220 l 2
 468 85 355 -10 218 -10 c 0
 81 -10 0 85 23 220 c 2
 103 700 l 1
 190 700 l 1
 110 220 l 2
 96 130 144 70 232 70 c 0
 319 70 389 130 404 220 c 2
 484 700 l 1
 571 700 l 1
EndSplineSet
Validated: 33
EndChar

StartChar: U.leftS
Encoding: 65668 -1 267
Width: 600
GlyphClass: 1
Flags: W
LayerCount: 2
Fore
SplineSet
583 700 m 1
 503 220 l 2
 480 85 367 -10 230 -10 c 0
 93 -10 12 85 35 220 c 2
 115 700 l 1
 202 700 l 1
 122 220 l 2
 108 130 156 70 244 70 c 0
 331 70 401 130 416 220 c 2
 496 700 l 1
 583 700 l 1
EndSplineSet
Validated: 33
EndChar

StartChar: U.rightL
Encoding: 65669 -1 268
Width: 600
GlyphClass: 1
Flags: W
LayerCount: 2
Fore
SplineSet
645 700 m 1
 565 220 l 2
 542 85 429 -10 292 -10 c 0
 155 -10 74 85 97 220 c 2
 177 700 l 1
 264 700 l 1
 184 220 l 2
 170 130 218 70 306 70 c 0
 393 70 463 130 478 220 c 2
 558 700 l 1
 645 700 l 1
EndSplineSet
Validated: 33
EndChar

StartChar: U.rightM
Encoding: 65670 -1 269
Width: 600
GlyphClass: 1
Flags: W
LayerCount: 2
Fore
SplineSet
631 700 m 1
 551 220 l 2
 528 85 415 -10 278 -10 c 0
 141 -10 60 85 83 220 c 2
 163 700 l 1
 250 700 l 1
 170 220 l 2
 156 130 204 70 292 70 c 0
 379 70 449 130 464 220 c 2
 544 700 l 1
 631 700 l 1
EndSplineSet
Validated: 33
EndChar

StartChar: U.rightS
Encoding: 65671 -1 270
Width: 600
GlyphClass: 1
Flags: W
LayerCount: 2
Fore
SplineSet
619 700 m 1
 539 220 l 2
 516 85 403 -10 266 -10 c 0
 129 -10 48 85 71 220 c 2
 151 700 l 1
 238 700 l 1
 158 220 l 2
 144 130 192 70 280 70 c 0
 367 70 437 130 452 220 c 2
 532 700 l 1
 619 700 l 1
EndSplineSet
Validated: 33
EndChar

StartChar: Uacute
Encoding: 218 218 271
Width: 600
GlyphClass: 1
Flags: W
LayerCount: 2
Fore
SplineSet
601 700 m 1
 521 220 l 2
 498 85 385 -10 248 -10 c 0
 111 -10 30 85 53 220 c 2
 133 700 l 1
 220 700 l 1
 140 220 l 2
 126 130 174 70 262 70 c 0
 349 70 419 130 434 220 c 2
 514 700 l 1
 601 700 l 1
547 977 m 1
 401 792 l 1
 328 792 l 1
 436 977 l 1
 547 977 l 1
EndSplineSet
Validated: 33
EndChar

StartChar: Ubreve
Encoding: 364 364 272
Width: 600
GlyphClass: 1
Flags: W
LayerCount: 2
Fore
SplineSet
601 700 m 1
 521 220 l 2
 498 85 385 -10 248 -10 c 0
 111 -10 30 85 53 220 c 2
 133 700 l 1
 220 700 l 1
 140 220 l 2
 126 130 174 70 262 70 c 0
 349 70 419 130 434 220 c 2
 514 700 l 1
 601 700 l 1
339 923 m 1
 336 879 357 850 392 850 c 0
 427 850 458 879 469 923 c 1
 538 923 l 1
 525 843 459 786 381 786 c 0
 303 786 257 843 270 923 c 1
 339 923 l 1
EndSplineSet
Validated: 33
EndChar

StartChar: Ucircumflex
Encoding: 219 219 273
Width: 600
GlyphClass: 1
Flags: W
LayerCount: 2
Fore
SplineSet
601 700 m 1
 521 220 l 2
 498 85 385 -10 248 -10 c 0
 111 -10 30 85 53 220 c 2
 133 700 l 1
 220 700 l 1
 140 220 l 2
 126 130 174 70 262 70 c 0
 349 70 419 130 434 220 c 2
 514 700 l 1
 601 700 l 1
227 785 m 1
 366 961 l 1
 454 961 l 1
 536 785 l 1
 463 785 l 1
 398 889 l 1
 299 785 l 1
 227 785 l 1
EndSplineSet
Validated: 33
EndChar

StartChar: Udieresis
Encoding: 220 220 274
Width: 600
GlyphClass: 1
Flags: W
LayerCount: 2
Fore
SplineSet
601 700 m 1
 521 220 l 2
 498 85 385 -10 248 -10 c 0
 111 -10 30 85 53 220 c 2
 133 700 l 1
 220 700 l 1
 140 220 l 2
 126 130 174 70 262 70 c 0
 349 70 419 130 434 220 c 2
 514 700 l 1
 601 700 l 1
223 875 m 0
 230 913 265 943 303 943 c 0
 342 943 367 913 360 875 c 0
 354 837 319 806 281 806 c 0
 243 806 217 837 223 875 c 0
431 875 m 0
 438 913 473 943 511 943 c 0
 550 943 575 913 568 875 c 0
 562 837 527 806 489 806 c 0
 451 806 425 837 431 875 c 0
EndSplineSet
Validated: 33
Substitution2: "'cv03' +W1d7JlPYT1MA-03 +Z+VifgAA 2+Zv9O44ho" Udieresis.square
EndChar

StartChar: Udieresis.square
Encoding: 65672 -1 275
Width: 600
GlyphClass: 1
Flags: W
LayerCount: 2
Fore
SplineSet
601 700 m 1
 521 220 l 2
 498 85 385 -10 248 -10 c 0
 111 -10 30 85 53 220 c 2
 133 700 l 1
 220 700 l 1
 140 220 l 2
 126 130 174 70 262 70 c 0
 349 70 419 130 434 220 c 2
 514 700 l 1
 601 700 l 1
220 810 m 1
 241 931 l 1
 362 931 l 1
 342 810 l 1
 220 810 l 1
428 810 m 1
 449 931 l 1
 570 931 l 1
 550 810 l 1
 428 810 l 1
EndSplineSet
Validated: 33
EndChar

StartChar: Ugrave
Encoding: 217 217 276
Width: 600
GlyphClass: 1
Flags: W
LayerCount: 2
Fore
SplineSet
601 700 m 1
 521 220 l 2
 498 85 385 -10 248 -10 c 0
 111 -10 30 85 53 220 c 2
 133 700 l 1
 220 700 l 1
 140 220 l 2
 126 130 174 70 262 70 c 0
 349 70 419 130 434 220 c 2
 514 700 l 1
 601 700 l 1
437 792 m 1
 364 792 l 1
 280 977 l 1
 391 977 l 1
 437 792 l 1
EndSplineSet
Validated: 33
EndChar

StartChar: Uhungarumlaut
Encoding: 368 368 277
Width: 600
GlyphClass: 1
Flags: W
LayerCount: 2
Fore
SplineSet
601 700 m 1
 521 220 l 2
 498 85 385 -10 248 -10 c 0
 111 -10 30 85 53 220 c 2
 133 700 l 1
 220 700 l 1
 140 220 l 2
 126 130 174 70 262 70 c 0
 349 70 419 130 434 220 c 2
 514 700 l 1
 601 700 l 1
474 977 m 1
 328 792 l 1
 255 792 l 1
 363 977 l 1
 474 977 l 1
642 977 m 1
 496 792 l 1
 423 792 l 1
 531 977 l 1
 642 977 l 1
EndSplineSet
Validated: 33
EndChar

StartChar: Umacron
Encoding: 362 362 278
Width: 600
GlyphClass: 1
Flags: W
LayerCount: 2
Fore
SplineSet
601 700 m 1
 521 220 l 2
 498 85 385 -10 248 -10 c 0
 111 -10 30 85 53 220 c 2
 133 700 l 1
 220 700 l 1
 140 220 l 2
 126 130 174 70 262 70 c 0
 349 70 419 130 434 220 c 2
 514 700 l 1
 601 700 l 1
234 830 m 1
 246 900 l 1
 554 900 l 1
 542 830 l 1
 234 830 l 1
EndSplineSet
Validated: 33
EndChar

StartChar: Uogonek
Encoding: 370 370 279
Width: 600
GlyphClass: 1
Flags: W
LayerCount: 2
Fore
SplineSet
601 700 m 1
 521 220 l 2
 503 116 432 35 337 4 c 1
 314 -12 301 -31 297 -51 c 0
 292 -84 314 -106 349 -106 c 0
 357 -106 367 -105 376 -103 c 1
 366 -164 l 1
 354 -167 340 -169 324 -169 c 0
 253 -169 212 -126 222 -65 c 0
 225 -45 233 -27 246 -10 c 1
 110 -9 30 86 53 220 c 2
 133 700 l 1
 220 700 l 1
 140 220 l 2
 126 130 174 70 262 70 c 0
 349 70 419 130 434 220 c 2
 514 700 l 1
 601 700 l 1
EndSplineSet
Validated: 33
EndChar

StartChar: Upsilon
Encoding: 933 933 280
Width: 600
GlyphClass: 1
Flags: W
LayerCount: 2
Fore
SplineSet
207 0 m 1
 256 294 l 1
 88 700 l 1
 185 700 l 1
 315 381 l 1
 552 700 l 1
 646 700 l 1
 342 294 l 1
 293 0 l 1
 207 0 l 1
EndSplineSet
Validated: 1
EndChar

StartChar: Upsilondieresis
Encoding: 939 939 281
Width: 600
GlyphClass: 1
Flags: W
LayerCount: 2
Fore
SplineSet
207 0 m 1
 256 294 l 1
 88 700 l 1
 185 700 l 1
 315 381 l 1
 552 700 l 1
 646 700 l 1
 342 294 l 1
 293 0 l 1
 207 0 l 1
273 875 m 0
 280 913 315 943 353 943 c 0
 392 943 417 913 410 875 c 0
 404 837 369 806 331 806 c 0
 293 806 267 837 273 875 c 0
481 875 m 0
 488 913 524 943 562 943 c 0
 600 943 625 913 618 875 c 0
 612 837 577 806 539 806 c 0
 501 806 475 837 481 875 c 0
EndSplineSet
Validated: 33
EndChar

StartChar: Upsilontonos
Encoding: 910 910 282
Width: 600
GlyphClass: 1
Flags: W
LayerCount: 2
Fore
SplineSet
207 0 m 1
 256 294 l 1
 88 700 l 1
 185 700 l 1
 315 381 l 1
 552 700 l 1
 646 700 l 1
 342 294 l 1
 293 0 l 1
 207 0 l 1
107 774 m 1
 6 572 l 1
 -60 572 l 1
 7 774 l 1
 107 774 l 1
EndSplineSet
Validated: 1
EndChar

StartChar: Uring
Encoding: 366 366 283
Width: 600
GlyphClass: 1
Flags: W
LayerCount: 2
Fore
SplineSet
601 700 m 1
 521 220 l 2
 498 85 385 -10 248 -10 c 0
 111 -10 30 85 53 220 c 2
 133 700 l 1
 220 700 l 1
 140 220 l 2
 126 130 174 70 262 70 c 0
 349 70 419 130 434 220 c 2
 514 700 l 1
 601 700 l 1
283 889 m 0
 293 953 351 1003 417 1003 c 0
 483 1003 526 953 515 888 c 0
 504 824 444 773 379 773 c 0
 314 773 272 824 283 889 c 0
389 830 m 0
 421 830 449 854 455 888 c 0
 460 922 441 946 409 946 c 0
 376 946 348 922 342 888 c 0
 337 854 356 830 389 830 c 0
EndSplineSet
Validated: 33
EndChar

StartChar: Utilde
Encoding: 360 360 284
Width: 600
GlyphClass: 1
Flags: W
LayerCount: 2
Fore
SplineSet
601 700 m 1
 521 220 l 2
 498 85 385 -10 248 -10 c 0
 111 -10 30 85 53 220 c 2
 133 700 l 1
 220 700 l 1
 140 220 l 2
 126 130 174 70 262 70 c 0
 349 70 419 130 434 220 c 2
 514 700 l 1
 601 700 l 1
212 824 m 1
 216 851 l 2
 229 923 277 968 341 968 c 0
 432 968 426 877 470 877 c 0
 489 877 502 895 510 933 c 2
 514 954 l 1
 585 954 l 1
 580 927 l 2
 568 855 521 810 457 810 c 0
 365 810 371 901 328 901 c 0
 309 901 295 883 288 845 c 2
 283 824 l 1
 212 824 l 1
EndSplineSet
Validated: 33
EndChar

StartChar: V
Encoding: 86 86 285
Width: 600
GlyphClass: 1
Flags: W
LayerCount: 2
Fore
SplineSet
192 0 m 1
 93 700 l 1
 182 700 l 1
 265 97 l 1
 269 97 l 1
 554 700 l 1
 641 700 l 1
 308 0 l 1
 192 0 l 1
EndSplineSet
Validated: 1
Substitution2: "+U1VOAGb/Y2IA +Z+VifgAA 72+Zv9O44ho" V.rightS
Substitution2: "+U1VOAGb/Y2IA +Z+VifgAA 71+Zv9O44ho" V.rightM
Substitution2: "+U1VOAGb/Y2IA +Z+VifgAA 70+Zv9O44ho" V.rightL
Substitution2: "+U1VOAGb/Y2IA +Z+VifgAA 69+Zv9O44ho" V.leftS
Substitution2: "+U1VOAGb/Y2IA +Z+VifgAA 68+Zv9O44ho" V.leftM
Substitution2: "+U1VOAGb/Y2IA +Z+VifgAA 67+Zv9O44ho" V.leftL
Substitution2: "+U1VOAGb/Y2IA +Z+VifgAA 66+Zv9O44ho" V.rightS
Substitution2: "+U1VOAGb/Y2IA +Z+VifgAA 65+Zv9O44ho" V.rightM
Substitution2: "+U1VOAGb/Y2IA +Z+VifgAA 64+Zv9O44ho" V.rightS
Substitution2: "+U1VOAGb/Y2IA +Z+VifgAA 63+Zv9O44ho" V.rightM
Substitution2: "+U1VOAGb/Y2IA +Z+VifgAA 62+Zv9O44ho" V.rightL
Substitution2: "+U1VOAGb/Y2IA +Z+VifgAA 61+Zv9O44ho" V.leftS
Substitution2: "+U1VOAGb/Y2IA +Z+VifgAA 60+Zv9O44ho" V.leftM
Substitution2: "+U1VOAGb/Y2IA +Z+VifgAA 59+Zv9O44ho" V.leftL
EndChar

StartChar: V.leftL
Encoding: 65673 -1 286
Width: 600
GlyphClass: 1
Flags: W
LayerCount: 2
Fore
SplineSet
150 0 m 1
 51 700 l 1
 140 700 l 1
 223 97 l 1
 227 97 l 1
 512 700 l 1
 599 700 l 1
 266 0 l 1
 150 0 l 1
EndSplineSet
Validated: 1
EndChar

StartChar: V.leftM
Encoding: 65674 -1 287
Width: 600
GlyphClass: 1
Flags: W
LayerCount: 2
Fore
SplineSet
165 0 m 1
 66 700 l 1
 155 700 l 1
 238 97 l 1
 242 97 l 1
 527 700 l 1
 614 700 l 1
 281 0 l 1
 165 0 l 1
EndSplineSet
Validated: 1
EndChar

StartChar: V.leftS
Encoding: 65675 -1 288
Width: 600
GlyphClass: 1
Flags: W
LayerCount: 2
Fore
SplineSet
180 0 m 1
 81 700 l 1
 170 700 l 1
 253 97 l 1
 257 97 l 1
 542 700 l 1
 629 700 l 1
 296 0 l 1
 180 0 l 1
EndSplineSet
Validated: 1
EndChar

StartChar: V.rightL
Encoding: 65676 -1 289
Width: 600
GlyphClass: 1
Flags: W
LayerCount: 2
Fore
SplineSet
234 0 m 1
 135 700 l 1
 224 700 l 1
 307 97 l 1
 311 97 l 1
 596 700 l 1
 683 700 l 1
 350 0 l 1
 234 0 l 1
EndSplineSet
Validated: 1
EndChar

StartChar: V.rightM
Encoding: 65677 -1 290
Width: 600
GlyphClass: 1
Flags: W
LayerCount: 2
Fore
SplineSet
219 0 m 1
 120 700 l 1
 209 700 l 1
 292 97 l 1
 296 97 l 1
 581 700 l 1
 668 700 l 1
 335 0 l 1
 219 0 l 1
EndSplineSet
Validated: 1
EndChar

StartChar: V.rightS
Encoding: 65678 -1 291
Width: 600
GlyphClass: 1
Flags: W
LayerCount: 2
Fore
SplineSet
204 0 m 1
 105 700 l 1
 194 700 l 1
 277 97 l 1
 281 97 l 1
 566 700 l 1
 653 700 l 1
 320 0 l 1
 204 0 l 1
EndSplineSet
Validated: 1
EndChar

StartChar: W
Encoding: 87 87 292
Width: 600
GlyphClass: 1
Flags: W
LayerCount: 2
Fore
SplineSet
20 0 m 1
 63 700 l 1
 143 700 l 1
 102 114 l 1
 106 114 l 1
 312 594 l 1
 386 594 l 1
 432 114 l 1
 436 114 l 1
 592 700 l 1
 671 700 l 1
 480 0 l 1
 373 0 l 1
 329 462 l 1
 325 462 l 1
 127 0 l 1
 20 0 l 1
EndSplineSet
Validated: 1
Substitution2: "+U1VOAGb/Y2IA +Z+VifgAA 72+Zv9O44ho" W.rightS
Substitution2: "+U1VOAGb/Y2IA +Z+VifgAA 71+Zv9O44ho" W.rightM
Substitution2: "+U1VOAGb/Y2IA +Z+VifgAA 70+Zv9O44ho" W.rightL
Substitution2: "+U1VOAGb/Y2IA +Z+VifgAA 69+Zv9O44ho" W.leftS
Substitution2: "+U1VOAGb/Y2IA +Z+VifgAA 68+Zv9O44ho" W.leftM
Substitution2: "+U1VOAGb/Y2IA +Z+VifgAA 67+Zv9O44ho" W.leftL
Substitution2: "+U1VOAGb/Y2IA +Z+VifgAA 66+Zv9O44ho" W.rightS
Substitution2: "+U1VOAGb/Y2IA +Z+VifgAA 65+Zv9O44ho" W.rightM
Substitution2: "+U1VOAGb/Y2IA +Z+VifgAA 64+Zv9O44ho" W.rightS
Substitution2: "+U1VOAGb/Y2IA +Z+VifgAA 63+Zv9O44ho" W.rightM
Substitution2: "+U1VOAGb/Y2IA +Z+VifgAA 62+Zv9O44ho" W.rightL
Substitution2: "+U1VOAGb/Y2IA +Z+VifgAA 61+Zv9O44ho" W.leftS
Substitution2: "+U1VOAGb/Y2IA +Z+VifgAA 60+Zv9O44ho" W.leftM
Substitution2: "+U1VOAGb/Y2IA +Z+VifgAA 59+Zv9O44ho" W.leftL
EndChar

StartChar: W.leftL
Encoding: 65679 -1 293
Width: 600
GlyphClass: 1
Flags: W
LayerCount: 2
Fore
SplineSet
-24 0 m 1
 19 700 l 1
 99 700 l 1
 58 114 l 1
 62 114 l 1
 268 594 l 1
 342 594 l 1
 388 114 l 1
 392 114 l 1
 548 700 l 1
 627 700 l 1
 436 0 l 1
 329 0 l 1
 285 462 l 1
 281 462 l 1
 83 0 l 1
 -24 0 l 1
EndSplineSet
Validated: 1
EndChar

StartChar: W.leftM
Encoding: 65680 -1 294
Width: 600
GlyphClass: 1
Flags: W
LayerCount: 2
Fore
SplineSet
-10 0 m 1
 33 700 l 1
 113 700 l 1
 72 114 l 1
 76 114 l 1
 282 594 l 1
 356 594 l 1
 402 114 l 1
 406 114 l 1
 562 700 l 1
 641 700 l 1
 450 0 l 1
 343 0 l 1
 299 462 l 1
 295 462 l 1
 97 0 l 1
 -10 0 l 1
EndSplineSet
Validated: 1
EndChar

StartChar: W.leftS
Encoding: 65681 -1 295
Width: 600
GlyphClass: 1
Flags: W
LayerCount: 2
Fore
SplineSet
2 0 m 1
 45 700 l 1
 125 700 l 1
 84 114 l 1
 88 114 l 1
 294 594 l 1
 368 594 l 1
 414 114 l 1
 418 114 l 1
 574 700 l 1
 653 700 l 1
 462 0 l 1
 355 0 l 1
 311 462 l 1
 307 462 l 1
 109 0 l 1
 2 0 l 1
EndSplineSet
Validated: 1
EndChar

StartChar: W.rightL
Encoding: 65682 -1 296
Width: 600
GlyphClass: 1
Flags: W
LayerCount: 2
Fore
SplineSet
64 0 m 1
 107 700 l 1
 187 700 l 1
 146 114 l 1
 150 114 l 1
 356 594 l 1
 430 594 l 1
 476 114 l 1
 480 114 l 1
 636 700 l 1
 715 700 l 1
 524 0 l 1
 417 0 l 1
 373 462 l 1
 369 462 l 1
 171 0 l 1
 64 0 l 1
EndSplineSet
Validated: 1
EndChar

StartChar: W.rightM
Encoding: 65683 -1 297
Width: 600
GlyphClass: 1
Flags: W
LayerCount: 2
Fore
SplineSet
50 0 m 1
 93 700 l 1
 173 700 l 1
 132 114 l 1
 136 114 l 1
 342 594 l 1
 416 594 l 1
 462 114 l 1
 466 114 l 1
 622 700 l 1
 701 700 l 1
 510 0 l 1
 403 0 l 1
 359 462 l 1
 355 462 l 1
 157 0 l 1
 50 0 l 1
EndSplineSet
Validated: 1
EndChar

StartChar: W.rightS
Encoding: 65684 -1 298
Width: 600
GlyphClass: 1
Flags: W
LayerCount: 2
Fore
SplineSet
38 0 m 1
 81 700 l 1
 161 700 l 1
 120 114 l 1
 124 114 l 1
 330 594 l 1
 404 594 l 1
 450 114 l 1
 454 114 l 1
 610 700 l 1
 689 700 l 1
 498 0 l 1
 391 0 l 1
 347 462 l 1
 343 462 l 1
 145 0 l 1
 38 0 l 1
EndSplineSet
Validated: 1
EndChar

StartChar: Wacute
Encoding: 7810 7810 299
Width: 600
GlyphClass: 1
Flags: W
LayerCount: 2
Fore
SplineSet
20 0 m 1
 63 700 l 1
 143 700 l 1
 102 114 l 1
 106 114 l 1
 312 594 l 1
 386 594 l 1
 432 114 l 1
 436 114 l 1
 592 700 l 1
 671 700 l 1
 480 0 l 1
 373 0 l 1
 329 462 l 1
 325 462 l 1
 127 0 l 1
 20 0 l 1
547 977 m 1
 401 792 l 1
 328 792 l 1
 436 977 l 1
 547 977 l 1
EndSplineSet
Validated: 1
EndChar

StartChar: Wcircumflex
Encoding: 372 372 300
Width: 600
GlyphClass: 1
Flags: W
LayerCount: 2
Fore
SplineSet
20 0 m 1
 63 700 l 1
 143 700 l 1
 102 114 l 1
 106 114 l 1
 312 594 l 1
 386 594 l 1
 432 114 l 1
 436 114 l 1
 592 700 l 1
 671 700 l 1
 480 0 l 1
 373 0 l 1
 329 462 l 1
 325 462 l 1
 127 0 l 1
 20 0 l 1
227 785 m 1
 366 961 l 1
 454 961 l 1
 536 785 l 1
 463 785 l 1
 398 889 l 1
 299 785 l 1
 227 785 l 1
EndSplineSet
Validated: 1
EndChar

StartChar: Wdieresis
Encoding: 7812 7812 301
Width: 600
GlyphClass: 1
Flags: W
LayerCount: 2
Fore
SplineSet
20 0 m 1
 63 700 l 1
 143 700 l 1
 102 114 l 1
 106 114 l 1
 312 594 l 1
 386 594 l 1
 432 114 l 1
 436 114 l 1
 592 700 l 1
 671 700 l 1
 480 0 l 1
 373 0 l 1
 329 462 l 1
 325 462 l 1
 127 0 l 1
 20 0 l 1
223 875 m 0
 230 913 265 943 303 943 c 0
 342 943 367 913 360 875 c 0
 354 837 319 806 281 806 c 0
 243 806 217 837 223 875 c 0
431 875 m 0
 438 913 473 943 511 943 c 0
 550 943 575 913 568 875 c 0
 562 837 527 806 489 806 c 0
 451 806 425 837 431 875 c 0
EndSplineSet
Validated: 33
Substitution2: "'cv03' +W1d7JlPYT1MA-03 +Z+VifgAA 2+Zv9O44ho" Wdieresis.square
EndChar

StartChar: Wdieresis.square
Encoding: 65685 -1 302
Width: 600
GlyphClass: 1
Flags: W
LayerCount: 2
Fore
SplineSet
20 0 m 1
 63 700 l 1
 143 700 l 1
 102 114 l 1
 106 114 l 1
 312 594 l 1
 386 594 l 1
 432 114 l 1
 436 114 l 1
 592 700 l 1
 671 700 l 1
 480 0 l 1
 373 0 l 1
 329 462 l 1
 325 462 l 1
 127 0 l 1
 20 0 l 1
220 810 m 1
 241 931 l 1
 362 931 l 1
 342 810 l 1
 220 810 l 1
428 810 m 1
 449 931 l 1
 570 931 l 1
 550 810 l 1
 428 810 l 1
EndSplineSet
Validated: 1
EndChar

StartChar: Wgrave
Encoding: 7808 7808 303
Width: 600
GlyphClass: 1
Flags: W
LayerCount: 2
Fore
SplineSet
20 0 m 1
 63 700 l 1
 143 700 l 1
 102 114 l 1
 106 114 l 1
 312 594 l 1
 386 594 l 1
 432 114 l 1
 436 114 l 1
 592 700 l 1
 671 700 l 1
 480 0 l 1
 373 0 l 1
 329 462 l 1
 325 462 l 1
 127 0 l 1
 20 0 l 1
437 792 m 1
 364 792 l 1
 280 977 l 1
 391 977 l 1
 437 792 l 1
EndSplineSet
Validated: 1
EndChar

StartChar: X
Encoding: 88 88 304
Width: 600
GlyphClass: 1
Flags: W
LayerCount: 2
Fore
SplineSet
-39 0 m 1
 257 364 l 1
 94 700 l 1
 193 700 l 1
 323 435 l 1
 541 700 l 1
 638 700 l 1
 364 365 l 1
 539 0 l 1
 440 0 l 1
 298 293 l 1
 58 0 l 1
 -39 0 l 1
EndSplineSet
Validated: 1
Substitution2: "+U1VOAGb/Y2IA +Z+VifgAA 72+Zv9O44ho" X.rightS
Substitution2: "+U1VOAGb/Y2IA +Z+VifgAA 71+Zv9O44ho" X.rightM
Substitution2: "+U1VOAGb/Y2IA +Z+VifgAA 70+Zv9O44ho" X.rightL
Substitution2: "+U1VOAGb/Y2IA +Z+VifgAA 69+Zv9O44ho" X.leftS
Substitution2: "+U1VOAGb/Y2IA +Z+VifgAA 68+Zv9O44ho" X.leftM
Substitution2: "+U1VOAGb/Y2IA +Z+VifgAA 67+Zv9O44ho" X.leftL
Substitution2: "+U1VOAGb/Y2IA +Z+VifgAA 66+Zv9O44ho" X.rightS
Substitution2: "+U1VOAGb/Y2IA +Z+VifgAA 65+Zv9O44ho" X.rightM
Substitution2: "+U1VOAGb/Y2IA +Z+VifgAA 64+Zv9O44ho" X.rightS
Substitution2: "+U1VOAGb/Y2IA +Z+VifgAA 63+Zv9O44ho" X.rightM
Substitution2: "+U1VOAGb/Y2IA +Z+VifgAA 62+Zv9O44ho" X.rightL
Substitution2: "+U1VOAGb/Y2IA +Z+VifgAA 61+Zv9O44ho" X.leftS
Substitution2: "+U1VOAGb/Y2IA +Z+VifgAA 60+Zv9O44ho" X.leftM
Substitution2: "+U1VOAGb/Y2IA +Z+VifgAA 59+Zv9O44ho" X.leftL
EndChar

StartChar: X.leftL
Encoding: 65686 -1 305
Width: 600
GlyphClass: 1
Flags: W
LayerCount: 2
Fore
SplineSet
-83 0 m 1
 213 364 l 1
 50 700 l 1
 149 700 l 1
 279 435 l 1
 497 700 l 1
 594 700 l 1
 320 365 l 1
 495 0 l 1
 396 0 l 1
 254 293 l 1
 14 0 l 1
 -83 0 l 1
EndSplineSet
Validated: 1
EndChar

StartChar: X.leftM
Encoding: 65687 -1 306
Width: 600
GlyphClass: 1
Flags: W
LayerCount: 2
Fore
SplineSet
-69 0 m 1
 227 364 l 1
 64 700 l 1
 163 700 l 1
 293 435 l 1
 511 700 l 1
 608 700 l 1
 334 365 l 1
 509 0 l 1
 410 0 l 1
 268 293 l 1
 28 0 l 1
 -69 0 l 1
EndSplineSet
Validated: 1
EndChar

StartChar: X.leftS
Encoding: 65688 -1 307
Width: 600
GlyphClass: 1
Flags: W
LayerCount: 2
Fore
SplineSet
-57 0 m 1
 239 364 l 1
 76 700 l 1
 175 700 l 1
 305 435 l 1
 523 700 l 1
 620 700 l 1
 346 365 l 1
 521 0 l 1
 422 0 l 1
 280 293 l 1
 40 0 l 1
 -57 0 l 1
EndSplineSet
Validated: 1
EndChar

StartChar: X.rightL
Encoding: 65689 -1 308
Width: 600
GlyphClass: 1
Flags: W
LayerCount: 2
Fore
SplineSet
5 0 m 1
 301 364 l 1
 138 700 l 1
 237 700 l 1
 367 435 l 1
 585 700 l 1
 682 700 l 1
 408 365 l 1
 583 0 l 1
 484 0 l 1
 342 293 l 1
 102 0 l 1
 5 0 l 1
EndSplineSet
Validated: 1
EndChar

StartChar: X.rightM
Encoding: 65690 -1 309
Width: 600
GlyphClass: 1
Flags: W
LayerCount: 2
Fore
SplineSet
-9 0 m 1
 287 364 l 1
 124 700 l 1
 223 700 l 1
 353 435 l 1
 571 700 l 1
 668 700 l 1
 394 365 l 1
 569 0 l 1
 470 0 l 1
 328 293 l 1
 88 0 l 1
 -9 0 l 1
EndSplineSet
Validated: 1
EndChar

StartChar: X.rightS
Encoding: 65691 -1 310
Width: 600
GlyphClass: 1
Flags: W
LayerCount: 2
Fore
SplineSet
-21 0 m 1
 275 364 l 1
 112 700 l 1
 211 700 l 1
 341 435 l 1
 559 700 l 1
 656 700 l 1
 382 365 l 1
 557 0 l 1
 458 0 l 1
 316 293 l 1
 76 0 l 1
 -21 0 l 1
EndSplineSet
Validated: 1
EndChar

StartChar: Xi
Encoding: 926 926 311
Width: 600
GlyphClass: 1
Flags: W
LayerCount: 2
Fore
SplineSet
22 0 m 1
 36 78 l 1
 491 78 l 1
 479 0 l 1
 22 0 l 1
120 324 m 1
 133 402 l 1
 502 402 l 1
 489 324 l 1
 120 324 l 1
127 622 m 1
 139 700 l 1
 596 700 l 1
 582 622 l 1
 127 622 l 1
EndSplineSet
Validated: 1
EndChar

StartChar: Y
Encoding: 89 89 312
Width: 600
GlyphClass: 1
Flags: W
LayerCount: 2
Fore
SplineSet
207 0 m 1
 256 294 l 1
 88 700 l 1
 185 700 l 1
 315 381 l 1
 552 700 l 1
 646 700 l 1
 342 294 l 1
 293 0 l 1
 207 0 l 1
EndSplineSet
Validated: 1
Substitution2: "+U1VOAGb/Y2IA +Z+VifgAA 72+Zv9O44ho" Y.rightS
Substitution2: "+U1VOAGb/Y2IA +Z+VifgAA 71+Zv9O44ho" Y.rightM
Substitution2: "+U1VOAGb/Y2IA +Z+VifgAA 70+Zv9O44ho" Y.rightL
Substitution2: "+U1VOAGb/Y2IA +Z+VifgAA 69+Zv9O44ho" Y.leftS
Substitution2: "+U1VOAGb/Y2IA +Z+VifgAA 68+Zv9O44ho" Y.leftM
Substitution2: "+U1VOAGb/Y2IA +Z+VifgAA 67+Zv9O44ho" Y.leftL
Substitution2: "+U1VOAGb/Y2IA +Z+VifgAA 66+Zv9O44ho" Y.rightS
Substitution2: "+U1VOAGb/Y2IA +Z+VifgAA 65+Zv9O44ho" Y.rightM
Substitution2: "+U1VOAGb/Y2IA +Z+VifgAA 64+Zv9O44ho" Y.rightS
Substitution2: "+U1VOAGb/Y2IA +Z+VifgAA 63+Zv9O44ho" Y.rightM
Substitution2: "+U1VOAGb/Y2IA +Z+VifgAA 62+Zv9O44ho" Y.rightL
Substitution2: "+U1VOAGb/Y2IA +Z+VifgAA 61+Zv9O44ho" Y.leftS
Substitution2: "+U1VOAGb/Y2IA +Z+VifgAA 60+Zv9O44ho" Y.leftM
Substitution2: "+U1VOAGb/Y2IA +Z+VifgAA 59+Zv9O44ho" Y.leftL
EndChar

StartChar: Y.leftL
Encoding: 65692 -1 313
Width: 600
GlyphClass: 1
Flags: W
LayerCount: 2
Fore
SplineSet
163 0 m 1
 212 294 l 1
 44 700 l 1
 141 700 l 1
 271 381 l 1
 508 700 l 1
 602 700 l 1
 298 294 l 1
 249 0 l 1
 163 0 l 1
EndSplineSet
Validated: 1
EndChar

StartChar: Y.leftM
Encoding: 65693 -1 314
Width: 600
GlyphClass: 1
Flags: W
LayerCount: 2
Fore
SplineSet
177 0 m 1
 226 294 l 1
 58 700 l 1
 155 700 l 1
 285 381 l 1
 522 700 l 1
 616 700 l 1
 312 294 l 1
 263 0 l 1
 177 0 l 1
EndSplineSet
Validated: 1
EndChar

StartChar: Y.leftS
Encoding: 65694 -1 315
Width: 600
GlyphClass: 1
Flags: W
LayerCount: 2
Fore
SplineSet
189 0 m 1
 238 294 l 1
 70 700 l 1
 167 700 l 1
 297 381 l 1
 534 700 l 1
 628 700 l 1
 324 294 l 1
 275 0 l 1
 189 0 l 1
EndSplineSet
Validated: 1
EndChar

StartChar: Y.rightL
Encoding: 65695 -1 316
Width: 600
GlyphClass: 1
Flags: W
LayerCount: 2
Fore
SplineSet
251 0 m 1
 300 294 l 1
 132 700 l 1
 229 700 l 1
 359 381 l 1
 596 700 l 1
 690 700 l 1
 386 294 l 1
 337 0 l 1
 251 0 l 1
EndSplineSet
Validated: 1
EndChar

StartChar: Y.rightM
Encoding: 65696 -1 317
Width: 600
GlyphClass: 1
Flags: W
LayerCount: 2
Fore
SplineSet
237 0 m 1
 286 294 l 1
 118 700 l 1
 215 700 l 1
 345 381 l 1
 582 700 l 1
 676 700 l 1
 372 294 l 1
 323 0 l 1
 237 0 l 1
EndSplineSet
Validated: 1
EndChar

StartChar: Y.rightS
Encoding: 65697 -1 318
Width: 600
GlyphClass: 1
Flags: W
LayerCount: 2
Fore
SplineSet
225 0 m 1
 274 294 l 1
 106 700 l 1
 203 700 l 1
 333 381 l 1
 570 700 l 1
 664 700 l 1
 360 294 l 1
 311 0 l 1
 225 0 l 1
EndSplineSet
Validated: 1
EndChar

StartChar: Yacute
Encoding: 221 221 319
Width: 600
GlyphClass: 1
Flags: W
LayerCount: 2
Fore
SplineSet
207 0 m 1
 256 294 l 1
 88 700 l 1
 185 700 l 1
 315 381 l 1
 552 700 l 1
 646 700 l 1
 342 294 l 1
 293 0 l 1
 207 0 l 1
547 977 m 1
 401 792 l 1
 328 792 l 1
 436 977 l 1
 547 977 l 1
EndSplineSet
Validated: 1
EndChar

StartChar: Ycircumflex
Encoding: 374 374 320
Width: 600
GlyphClass: 1
Flags: W
LayerCount: 2
Fore
SplineSet
207 0 m 1
 256 294 l 1
 88 700 l 1
 185 700 l 1
 315 381 l 1
 552 700 l 1
 646 700 l 1
 342 294 l 1
 293 0 l 1
 207 0 l 1
227 785 m 1
 366 961 l 1
 454 961 l 1
 536 785 l 1
 463 785 l 1
 398 889 l 1
 299 785 l 1
 227 785 l 1
EndSplineSet
Validated: 1
EndChar

StartChar: Ydieresis
Encoding: 376 376 321
Width: 600
GlyphClass: 1
Flags: W
LayerCount: 2
Fore
SplineSet
207 0 m 1
 256 294 l 1
 88 700 l 1
 185 700 l 1
 315 381 l 1
 552 700 l 1
 646 700 l 1
 342 294 l 1
 293 0 l 1
 207 0 l 1
223 875 m 0
 230 913 265 943 303 943 c 0
 342 943 367 913 360 875 c 0
 354 837 319 806 281 806 c 0
 243 806 217 837 223 875 c 0
431 875 m 0
 438 913 473 943 511 943 c 0
 550 943 575 913 568 875 c 0
 562 837 527 806 489 806 c 0
 451 806 425 837 431 875 c 0
EndSplineSet
Validated: 33
Substitution2: "'cv03' +W1d7JlPYT1MA-03 +Z+VifgAA 2+Zv9O44ho" Ydieresis.square
EndChar

StartChar: Ydieresis.square
Encoding: 65698 -1 322
Width: 600
GlyphClass: 1
Flags: W
LayerCount: 2
Fore
SplineSet
207 0 m 1
 256 294 l 1
 88 700 l 1
 185 700 l 1
 315 381 l 1
 552 700 l 1
 646 700 l 1
 342 294 l 1
 293 0 l 1
 207 0 l 1
220 810 m 1
 241 931 l 1
 362 931 l 1
 342 810 l 1
 220 810 l 1
428 810 m 1
 449 931 l 1
 570 931 l 1
 550 810 l 1
 428 810 l 1
EndSplineSet
Validated: 1
EndChar

StartChar: Ygrave
Encoding: 7922 7922 323
Width: 600
GlyphClass: 1
Flags: W
LayerCount: 2
Fore
SplineSet
207 0 m 1
 256 294 l 1
 88 700 l 1
 185 700 l 1
 315 381 l 1
 552 700 l 1
 646 700 l 1
 342 294 l 1
 293 0 l 1
 207 0 l 1
437 792 m 1
 364 792 l 1
 280 977 l 1
 391 977 l 1
 437 792 l 1
EndSplineSet
Validated: 1
EndChar

StartChar: Z
Encoding: 90 90 324
Width: 600
GlyphClass: 1
Flags: W
LayerCount: 2
Fore
SplineSet
6 0 m 1
 18 72 l 1
 475 622 l 1
 119 622 l 1
 133 700 l 1
 594 700 l 1
 582 628 l 1
 124 78 l 1
 507 78 l 1
 494 0 l 1
 6 0 l 1
EndSplineSet
Validated: 1
Substitution2: "+U1VOAGb/Y2IA +Z+VifgAA 72+Zv9O44ho" Z.rightS
Substitution2: "+U1VOAGb/Y2IA +Z+VifgAA 71+Zv9O44ho" Z.rightM
Substitution2: "+U1VOAGb/Y2IA +Z+VifgAA 70+Zv9O44ho" Z.rightL
Substitution2: "+U1VOAGb/Y2IA +Z+VifgAA 69+Zv9O44ho" Z.leftS
Substitution2: "+U1VOAGb/Y2IA +Z+VifgAA 68+Zv9O44ho" Z.leftM
Substitution2: "+U1VOAGb/Y2IA +Z+VifgAA 67+Zv9O44ho" Z.leftL
Substitution2: "+U1VOAGb/Y2IA +Z+VifgAA 66+Zv9O44ho" Z.rightS
Substitution2: "+U1VOAGb/Y2IA +Z+VifgAA 65+Zv9O44ho" Z.rightM
Substitution2: "+U1VOAGb/Y2IA +Z+VifgAA 64+Zv9O44ho" Z.rightS
Substitution2: "+U1VOAGb/Y2IA +Z+VifgAA 63+Zv9O44ho" Z.rightM
Substitution2: "+U1VOAGb/Y2IA +Z+VifgAA 62+Zv9O44ho" Z.rightL
Substitution2: "+U1VOAGb/Y2IA +Z+VifgAA 61+Zv9O44ho" Z.leftS
Substitution2: "+U1VOAGb/Y2IA +Z+VifgAA 60+Zv9O44ho" Z.leftM
Substitution2: "+U1VOAGb/Y2IA +Z+VifgAA 59+Zv9O44ho" Z.leftL
EndChar

StartChar: Z.leftL
Encoding: 65699 -1 325
Width: 600
GlyphClass: 1
Flags: W
LayerCount: 2
Fore
SplineSet
-38 0 m 1
 -26 72 l 1
 431 622 l 1
 75 622 l 1
 89 700 l 1
 550 700 l 1
 538 628 l 1
 80 78 l 1
 463 78 l 1
 450 0 l 1
 -38 0 l 1
EndSplineSet
Validated: 1
EndChar

StartChar: Z.leftM
Encoding: 65700 -1 326
Width: 600
GlyphClass: 1
Flags: W
LayerCount: 2
Fore
SplineSet
-24 0 m 1
 -12 72 l 1
 445 622 l 1
 89 622 l 1
 103 700 l 1
 564 700 l 1
 552 628 l 1
 94 78 l 1
 477 78 l 1
 464 0 l 1
 -24 0 l 1
EndSplineSet
Validated: 1
EndChar

StartChar: Z.leftS
Encoding: 65701 -1 327
Width: 600
GlyphClass: 1
Flags: W
LayerCount: 2
Fore
SplineSet
-12 0 m 1
 0 72 l 1
 457 622 l 1
 101 622 l 1
 115 700 l 1
 576 700 l 1
 564 628 l 1
 106 78 l 1
 489 78 l 1
 476 0 l 1
 -12 0 l 1
EndSplineSet
Validated: 1
EndChar

StartChar: Z.rightL
Encoding: 65702 -1 328
Width: 600
GlyphClass: 1
Flags: W
LayerCount: 2
Fore
SplineSet
50 0 m 1
 62 72 l 1
 519 622 l 1
 163 622 l 1
 177 700 l 1
 638 700 l 1
 626 628 l 1
 168 78 l 1
 551 78 l 1
 538 0 l 1
 50 0 l 1
EndSplineSet
Validated: 1
EndChar

StartChar: Z.rightM
Encoding: 65703 -1 329
Width: 600
GlyphClass: 1
Flags: W
LayerCount: 2
Fore
SplineSet
36 0 m 1
 48 72 l 1
 505 622 l 1
 149 622 l 1
 163 700 l 1
 624 700 l 1
 612 628 l 1
 154 78 l 1
 537 78 l 1
 524 0 l 1
 36 0 l 1
EndSplineSet
Validated: 1
EndChar

StartChar: Z.rightS
Encoding: 65704 -1 330
Width: 600
GlyphClass: 1
Flags: W
LayerCount: 2
Fore
SplineSet
24 0 m 1
 36 72 l 1
 493 622 l 1
 137 622 l 1
 151 700 l 1
 612 700 l 1
 600 628 l 1
 142 78 l 1
 525 78 l 1
 512 0 l 1
 24 0 l 1
EndSplineSet
Validated: 1
EndChar

StartChar: Zacute
Encoding: 377 377 331
Width: 600
GlyphClass: 1
Flags: W
LayerCount: 2
Fore
SplineSet
6 0 m 1
 18 72 l 1
 475 622 l 1
 119 622 l 1
 133 700 l 1
 594 700 l 1
 582 628 l 1
 124 78 l 1
 507 78 l 1
 494 0 l 1
 6 0 l 1
547 977 m 1
 401 792 l 1
 328 792 l 1
 436 977 l 1
 547 977 l 1
EndSplineSet
Validated: 1
EndChar

StartChar: Zcaron
Encoding: 381 381 332
Width: 600
GlyphClass: 1
Flags: W
LayerCount: 2
Fore
SplineSet
6 0 m 1
 18 72 l 1
 475 622 l 1
 119 622 l 1
 133 700 l 1
 594 700 l 1
 582 628 l 1
 124 78 l 1
 507 78 l 1
 494 0 l 1
 6 0 l 1
337 785 m 1
 255 961 l 1
 328 961 l 1
 393 858 l 1
 492 961 l 1
 565 961 l 1
 426 785 l 1
 337 785 l 1
EndSplineSet
Validated: 1
EndChar

StartChar: Zdotaccent
Encoding: 379 379 333
Width: 600
GlyphClass: 1
Flags: W
LayerCount: 2
Fore
SplineSet
6 0 m 1
 18 72 l 1
 475 622 l 1
 119 622 l 1
 133 700 l 1
 594 700 l 1
 582 628 l 1
 124 78 l 1
 507 78 l 1
 494 0 l 1
 6 0 l 1
322 874 m 0
 329 915 368 947 408 947 c 0
 450 947 477 915 469 874 c 0
 463 833 425 800 384 800 c 0
 343 800 315 833 322 874 c 0
EndSplineSet
Validated: 33
Substitution2: "'cv03' +W1d7JlPYT1MA-03 +Z+VifgAA 2+Zv9O44ho" Zdotaccent.square
EndChar

StartChar: Zdotaccent.square
Encoding: 65705 -1 334
Width: 600
GlyphClass: 1
Flags: W
LayerCount: 2
Fore
SplineSet
6 0 m 1
 18 72 l 1
 475 622 l 1
 119 622 l 1
 133 700 l 1
 594 700 l 1
 582 628 l 1
 124 78 l 1
 507 78 l 1
 494 0 l 1
 6 0 l 1
323 814 m 1
 344 941 l 1
 470 941 l 1
 450 814 l 1
 323 814 l 1
EndSplineSet
Validated: 1
EndChar

StartChar: Zeta
Encoding: 918 918 335
Width: 600
GlyphClass: 1
Flags: W
LayerCount: 2
Fore
SplineSet
6 0 m 1
 18 72 l 1
 475 622 l 1
 119 622 l 1
 133 700 l 1
 594 700 l 1
 582 628 l 1
 124 78 l 1
 507 78 l 1
 494 0 l 1
 6 0 l 1
EndSplineSet
Validated: 1
EndChar

StartChar: a
Encoding: 97 97 336
Width: 600
GlyphClass: 1
Flags: W
LayerCount: 2
Fore
SplineSet
427 385 m 0
 437 443 402 479 333 479 c 0
 270 479 216 448 202 402 c 1
 119 402 l 1
 137 488 231 550 343 550 c 0
 459 550 527 484 511 384 c 2
 478 193 l 2
 463 109 460 47 466 0 c 1
 386 0 l 1
 382 22 381 51 384 86 c 1
 379 86 l 1
 338 25 274 -10 201 -10 c 0
 100 -10 40 57 56 154 c 0
 73 253 156 306 311 321 c 2
 362 326 l 2
 400 330 420 348 427 385 c 0
411 285 m 1
 397 276 380 271 360 268 c 2
 311 263 l 2
 204 250 152 218 141 156 c 0
 131 97 164 59 226 59 c 0
 306 59 382 124 397 210 c 2
 411 285 l 1
EndSplineSet
Validated: 33
Substitution2: "+U1VOAGb/Y2IA +Z+VifgAA 72+Zv9O44ho" a.rightS
Substitution2: "+U1VOAGb/Y2IA +Z+VifgAA 71+Zv9O44ho" a.rightM
Substitution2: "+U1VOAGb/Y2IA +Z+VifgAA 70+Zv9O44ho" a.rightL
Substitution2: "+U1VOAGb/Y2IA +Z+VifgAA 69+Zv9O44ho" a.leftS
Substitution2: "+U1VOAGb/Y2IA +Z+VifgAA 68+Zv9O44ho" a.leftM
Substitution2: "+U1VOAGb/Y2IA +Z+VifgAA 67+Zv9O44ho" a.leftL
Substitution2: "+U1VOAGb/Y2IA +Z+VifgAA 66+Zv9O44ho" a.rightS
Substitution2: "+U1VOAGb/Y2IA +Z+VifgAA 65+Zv9O44ho" a.rightM
Substitution2: "+U1VOAGb/Y2IA +Z+VifgAA 64+Zv9O44ho" a.rightS
Substitution2: "+U1VOAGb/Y2IA +Z+VifgAA 63+Zv9O44ho" a.rightM
Substitution2: "+U1VOAGb/Y2IA +Z+VifgAA 62+Zv9O44ho" a.rightL
Substitution2: "+U1VOAGb/Y2IA +Z+VifgAA 61+Zv9O44ho" a.leftS
Substitution2: "+U1VOAGb/Y2IA +Z+VifgAA 60+Zv9O44ho" a.leftM
Substitution2: "+U1VOAGb/Y2IA +Z+VifgAA 59+Zv9O44ho" a.leftL
Substitution2: "'cv08' +W1d7JlPYT1MA-08 +Z+VifgAA 7+Zv9O44ho" a.cv08
Substitution2: "'cv01' +W1d7JlPYT1MA-01 +Z+VifgAA 0+Zv9O44ho" a.cv01
EndChar

StartChar: a.cv01
Encoding: 65706 -1 337
Width: 600
GlyphClass: 1
Flags: W
LayerCount: 2
Fore
SplineSet
394 97 m 1
 350 29 288 -10 215 -10 c 0
 90 -10 16 108 43 270 c 0
 70 431 183 550 309 550 c 0
 382 550 431 510 452 439 c 1
 457 439 l 1
 474 540 l 1
 553 540 l 1
 493 180 l 2
 485 129 477 63 470 0 c 1
 390 0 l 1
 392 34 394 65 398 97 c 1
 394 97 l 1
426 270 m 0
 446 390 400 474 314 474 c 0
 226 474 147 387 128 270 c 0
 108 153 157 66 245 66 c 0
 331 66 406 150 426 270 c 0
EndSplineSet
Validated: 33
Substitution2: "+U1VOAGb/Y2IA +Z+VifgAA 72+Zv9O44ho" a.cv01.rightS
Substitution2: "+U1VOAGb/Y2IA +Z+VifgAA 71+Zv9O44ho" a.cv01.rightM
Substitution2: "+U1VOAGb/Y2IA +Z+VifgAA 70+Zv9O44ho" a.cv01.rightL
Substitution2: "+U1VOAGb/Y2IA +Z+VifgAA 69+Zv9O44ho" a.cv01.leftS
Substitution2: "+U1VOAGb/Y2IA +Z+VifgAA 68+Zv9O44ho" a.cv01.leftM
Substitution2: "+U1VOAGb/Y2IA +Z+VifgAA 67+Zv9O44ho" a.cv01.leftL
Substitution2: "+U1VOAGb/Y2IA +Z+VifgAA 66+Zv9O44ho" a.cv01.rightS
Substitution2: "+U1VOAGb/Y2IA +Z+VifgAA 65+Zv9O44ho" a.cv01.rightM
Substitution2: "+U1VOAGb/Y2IA +Z+VifgAA 64+Zv9O44ho" a.cv01.rightS
Substitution2: "+U1VOAGb/Y2IA +Z+VifgAA 63+Zv9O44ho" a.cv01.rightM
Substitution2: "+U1VOAGb/Y2IA +Z+VifgAA 62+Zv9O44ho" a.cv01.rightL
Substitution2: "+U1VOAGb/Y2IA +Z+VifgAA 61+Zv9O44ho" a.cv01.leftS
Substitution2: "+U1VOAGb/Y2IA +Z+VifgAA 60+Zv9O44ho" a.cv01.leftM
Substitution2: "+U1VOAGb/Y2IA +Z+VifgAA 59+Zv9O44ho" a.cv01.leftL
EndChar

StartChar: a.cv01.leftL
Encoding: 65707 -1 338
Width: 600
GlyphClass: 1
Flags: W
LayerCount: 2
Fore
SplineSet
350 97 m 1
 306 29 244 -10 171 -10 c 0
 46 -10 -28 108 -1 270 c 0
 26 431 139 550 265 550 c 0
 338 550 387 510 408 439 c 1
 413 439 l 1
 430 540 l 1
 509 540 l 1
 449 180 l 2
 441 129 433 63 426 0 c 1
 346 0 l 1
 348 34 350 65 354 97 c 1
 350 97 l 1
382 270 m 0
 402 390 356 474 270 474 c 0
 182 474 103 387 84 270 c 0
 64 153 113 66 201 66 c 0
 287 66 362 150 382 270 c 0
EndSplineSet
Validated: 33
EndChar

StartChar: a.cv01.leftM
Encoding: 65708 -1 339
Width: 600
GlyphClass: 1
Flags: W
LayerCount: 2
Fore
SplineSet
364 97 m 1
 320 29 258 -10 185 -10 c 0
 60 -10 -14 108 13 270 c 0
 40 431 153 550 279 550 c 0
 352 550 401 510 422 439 c 1
 427 439 l 1
 444 540 l 1
 523 540 l 1
 463 180 l 2
 455 129 447 63 440 0 c 1
 360 0 l 1
 362 34 364 65 368 97 c 1
 364 97 l 1
396 270 m 0
 416 390 370 474 284 474 c 0
 196 474 117 387 98 270 c 0
 78 153 127 66 215 66 c 0
 301 66 376 150 396 270 c 0
EndSplineSet
Validated: 33
EndChar

StartChar: a.cv01.leftS
Encoding: 65709 -1 340
Width: 600
GlyphClass: 1
Flags: W
LayerCount: 2
Fore
SplineSet
376 97 m 1
 332 29 270 -10 197 -10 c 0
 72 -10 -2 108 25 270 c 0
 52 431 165 550 291 550 c 0
 364 550 413 510 434 439 c 1
 439 439 l 1
 456 540 l 1
 535 540 l 1
 475 180 l 2
 467 129 459 63 452 0 c 1
 372 0 l 1
 374 34 376 65 380 97 c 1
 376 97 l 1
408 270 m 0
 428 390 382 474 296 474 c 0
 208 474 129 387 110 270 c 0
 90 153 139 66 227 66 c 0
 313 66 388 150 408 270 c 0
EndSplineSet
Validated: 33
EndChar

StartChar: a.cv01.rightL
Encoding: 65710 -1 341
Width: 600
GlyphClass: 1
Flags: W
LayerCount: 2
Fore
SplineSet
438 97 m 1
 394 29 332 -10 259 -10 c 0
 134 -10 60 108 87 270 c 0
 114 431 227 550 353 550 c 0
 426 550 475 510 496 439 c 1
 501 439 l 1
 518 540 l 1
 597 540 l 1
 537 180 l 2
 529 129 521 63 514 0 c 1
 434 0 l 1
 436 34 438 65 442 97 c 1
 438 97 l 1
470 270 m 0
 490 390 444 474 358 474 c 0
 270 474 191 387 172 270 c 0
 152 153 201 66 289 66 c 0
 375 66 450 150 470 270 c 0
EndSplineSet
Validated: 33
EndChar

StartChar: a.cv01.rightM
Encoding: 65711 -1 342
Width: 600
GlyphClass: 1
Flags: W
LayerCount: 2
Fore
SplineSet
424 97 m 1
 380 29 318 -10 245 -10 c 0
 120 -10 46 108 73 270 c 0
 100 431 213 550 339 550 c 0
 412 550 461 510 482 439 c 1
 487 439 l 1
 504 540 l 1
 583 540 l 1
 523 180 l 2
 515 129 507 63 500 0 c 1
 420 0 l 1
 422 34 424 65 428 97 c 1
 424 97 l 1
456 270 m 0
 476 390 430 474 344 474 c 0
 256 474 177 387 158 270 c 0
 138 153 187 66 275 66 c 0
 361 66 436 150 456 270 c 0
EndSplineSet
Validated: 33
EndChar

StartChar: a.cv01.rightS
Encoding: 65712 -1 343
Width: 600
GlyphClass: 1
Flags: W
LayerCount: 2
Fore
SplineSet
412 97 m 1
 368 29 306 -10 233 -10 c 0
 108 -10 34 108 61 270 c 0
 88 431 201 550 327 550 c 0
 400 550 449 510 470 439 c 1
 475 439 l 1
 492 540 l 1
 571 540 l 1
 511 180 l 2
 503 129 495 63 488 0 c 1
 408 0 l 1
 410 34 412 65 416 97 c 1
 412 97 l 1
444 270 m 0
 464 390 418 474 332 474 c 0
 244 474 165 387 146 270 c 0
 126 153 175 66 263 66 c 0
 349 66 424 150 444 270 c 0
EndSplineSet
Validated: 33
EndChar

StartChar: a.cv08
Encoding: 65713 -1 344
Width: 600
GlyphClass: 1
Flags: W
LayerCount: 2
Fore
SplineSet
390 0 m 1
 391 34 394 65 398 97 c 1
 394 97 l 1
 349 29 287 -10 215 -10 c 0
 89 -10 16 108 43 269 c 0
 70 431 183 550 309 550 c 0
 382 550 432 510 453 439 c 1
 457 439 l 1
 474 540 l 1
 553 540 l 1
 547 504 498 210 493 180 c 0
 485 129 477 63 470 0 c 1
 390 0 l 1
426 270 m 0
 446 390 400 474 314 474 c 0
 226 474 147 387 128 270 c 0
 108 153 157 66 245 66 c 0
 331 66 406 150 426 270 c 0
EndSplineSet
Validated: 33
Substitution2: "+U1VOAGb/Y2IA +Z+VifgAA 72+Zv9O44ho" a.cv08.rightS
Substitution2: "+U1VOAGb/Y2IA +Z+VifgAA 71+Zv9O44ho" a.cv08.rightM
Substitution2: "+U1VOAGb/Y2IA +Z+VifgAA 70+Zv9O44ho" a.cv08.rightL
Substitution2: "+U1VOAGb/Y2IA +Z+VifgAA 69+Zv9O44ho" a.cv08.leftS
Substitution2: "+U1VOAGb/Y2IA +Z+VifgAA 68+Zv9O44ho" a.cv08.leftM
Substitution2: "+U1VOAGb/Y2IA +Z+VifgAA 67+Zv9O44ho" a.cv08.leftL
Substitution2: "+U1VOAGb/Y2IA +Z+VifgAA 66+Zv9O44ho" a.cv08.rightS
Substitution2: "+U1VOAGb/Y2IA +Z+VifgAA 65+Zv9O44ho" a.cv08.rightM
Substitution2: "+U1VOAGb/Y2IA +Z+VifgAA 64+Zv9O44ho" a.cv08.rightS
Substitution2: "+U1VOAGb/Y2IA +Z+VifgAA 63+Zv9O44ho" a.cv08.rightM
Substitution2: "+U1VOAGb/Y2IA +Z+VifgAA 62+Zv9O44ho" a.cv08.rightL
Substitution2: "+U1VOAGb/Y2IA +Z+VifgAA 61+Zv9O44ho" a.cv08.leftS
Substitution2: "+U1VOAGb/Y2IA +Z+VifgAA 60+Zv9O44ho" a.cv08.leftM
Substitution2: "+U1VOAGb/Y2IA +Z+VifgAA 59+Zv9O44ho" a.cv08.leftL
EndChar

StartChar: a.cv08.leftL
Encoding: 65714 -1 345
Width: 600
GlyphClass: 1
Flags: W
LayerCount: 2
Fore
SplineSet
347 0 m 1
 348 34 351 65 355 97 c 1
 351 97 l 1
 306 29 244 -10 172 -10 c 0
 46 -10 -27 108 0 269 c 0
 27 431 140 550 266 550 c 0
 339 550 389 510 410 439 c 1
 414 439 l 1
 431 540 l 1
 510 540 l 1
 504 504 455 210 450 180 c 0
 442 129 434 63 427 0 c 1
 347 0 l 1
383 270 m 0
 403 390 357 474 271 474 c 0
 183 474 104 387 85 270 c 0
 65 153 114 66 202 66 c 0
 288 66 363 150 383 270 c 0
EndSplineSet
Validated: 33
EndChar

StartChar: a.cv08.leftM
Encoding: 65715 -1 346
Width: 600
GlyphClass: 1
Flags: W
LayerCount: 2
Fore
SplineSet
361 0 m 1
 362 34 365 65 369 97 c 1
 365 97 l 1
 320 29 258 -10 186 -10 c 0
 60 -10 -13 108 14 269 c 0
 41 431 154 550 280 550 c 0
 353 550 403 510 424 439 c 1
 428 439 l 1
 445 540 l 1
 524 540 l 1
 518 504 469 210 464 180 c 0
 456 129 448 63 441 0 c 1
 361 0 l 1
397 270 m 0
 417 390 371 474 285 474 c 0
 197 474 118 387 99 270 c 0
 79 153 128 66 216 66 c 0
 302 66 377 150 397 270 c 0
EndSplineSet
Validated: 33
EndChar

StartChar: a.cv08.leftS
Encoding: 65716 -1 347
Width: 600
GlyphClass: 1
Flags: W
LayerCount: 2
Fore
SplineSet
374 0 m 1
 375 34 378 65 382 97 c 1
 378 97 l 1
 333 29 271 -10 199 -10 c 0
 73 -10 0 108 27 269 c 0
 54 431 167 550 293 550 c 0
 366 550 416 510 437 439 c 1
 441 439 l 1
 458 540 l 1
 537 540 l 1
 531 504 482 210 477 180 c 0
 469 129 461 63 454 0 c 1
 374 0 l 1
410 270 m 0
 430 390 384 474 298 474 c 0
 210 474 131 387 112 270 c 0
 92 153 141 66 229 66 c 0
 315 66 390 150 410 270 c 0
EndSplineSet
Validated: 33
EndChar

StartChar: a.cv08.rightL
Encoding: 65717 -1 348
Width: 600
GlyphClass: 1
Flags: W
LayerCount: 2
Fore
SplineSet
433 0 m 1
 434 34 437 65 441 97 c 1
 437 97 l 1
 392 29 330 -10 258 -10 c 0
 132 -10 59 108 86 269 c 0
 113 431 226 550 352 550 c 0
 425 550 475 510 496 439 c 1
 500 439 l 1
 517 540 l 1
 596 540 l 1
 590 504 541 210 536 180 c 0
 528 129 520 63 513 0 c 1
 433 0 l 1
469 270 m 0
 489 390 443 474 357 474 c 0
 269 474 190 387 171 270 c 0
 151 153 200 66 288 66 c 0
 374 66 449 150 469 270 c 0
EndSplineSet
Validated: 33
EndChar

StartChar: a.cv08.rightM
Encoding: 65718 -1 349
Width: 600
GlyphClass: 1
Flags: W
LayerCount: 2
Fore
SplineSet
419 0 m 1
 420 34 423 65 427 97 c 1
 423 97 l 1
 378 29 316 -10 244 -10 c 0
 118 -10 45 108 72 269 c 0
 99 431 212 550 338 550 c 0
 411 550 461 510 482 439 c 1
 486 439 l 1
 503 540 l 1
 582 540 l 1
 576 504 527 210 522 180 c 0
 514 129 506 63 499 0 c 1
 419 0 l 1
455 270 m 0
 475 390 429 474 343 474 c 0
 255 474 176 387 157 270 c 0
 137 153 186 66 274 66 c 0
 360 66 435 150 455 270 c 0
EndSplineSet
Validated: 33
EndChar

StartChar: a.cv08.rightS
Encoding: 65719 -1 350
Width: 600
GlyphClass: 1
Flags: W
LayerCount: 2
Fore
SplineSet
406 0 m 1
 407 34 410 65 414 97 c 1
 410 97 l 1
 365 29 303 -10 231 -10 c 0
 105 -10 32 108 59 269 c 0
 86 431 199 550 325 550 c 0
 398 550 448 510 469 439 c 1
 473 439 l 1
 490 540 l 1
 569 540 l 1
 563 504 514 210 509 180 c 0
 501 129 493 63 486 0 c 1
 406 0 l 1
442 270 m 0
 462 390 416 474 330 474 c 0
 242 474 163 387 144 270 c 0
 124 153 173 66 261 66 c 0
 347 66 422 150 442 270 c 0
EndSplineSet
Validated: 33
EndChar

StartChar: a.leftL
Encoding: 65720 -1 351
Width: 600
GlyphClass: 1
Flags: W
LayerCount: 2
Fore
SplineSet
383 385 m 0
 393 443 358 479 289 479 c 0
 226 479 172 448 158 402 c 1
 75 402 l 1
 93 488 187 550 299 550 c 0
 415 550 483 484 467 384 c 2
 434 193 l 2
 419 109 416 47 422 0 c 1
 342 0 l 1
 338 22 337 51 340 86 c 1
 335 86 l 1
 294 25 230 -10 157 -10 c 0
 56 -10 -4 57 12 154 c 0
 29 253 112 306 267 321 c 2
 318 326 l 2
 356 330 376 348 383 385 c 0
367 285 m 1
 353 276 336 271 316 268 c 2
 267 263 l 2
 160 250 108 218 97 156 c 0
 87 97 120 59 182 59 c 0
 262 59 338 124 353 210 c 2
 367 285 l 1
EndSplineSet
Validated: 33
Substitution2: "'cv08' +W1d7JlPYT1MA-08 +Z+VifgAA 7+Zv9O44ho" a.cv08.leftL
Substitution2: "'cv01' +W1d7JlPYT1MA-01 +Z+VifgAA 0+Zv9O44ho" a.cv01.leftL
EndChar

StartChar: a.leftM
Encoding: 65721 -1 352
Width: 600
GlyphClass: 1
Flags: W
LayerCount: 2
Fore
SplineSet
397 385 m 0
 407 443 372 479 303 479 c 0
 240 479 186 448 172 402 c 1
 89 402 l 1
 107 488 201 550 313 550 c 0
 429 550 497 484 481 384 c 2
 448 193 l 2
 433 109 430 47 436 0 c 1
 356 0 l 1
 352 22 351 51 354 86 c 1
 349 86 l 1
 308 25 244 -10 171 -10 c 0
 70 -10 10 57 26 154 c 0
 43 253 126 306 281 321 c 2
 332 326 l 2
 370 330 390 348 397 385 c 0
381 285 m 1
 367 276 350 271 330 268 c 2
 281 263 l 2
 174 250 122 218 111 156 c 0
 101 97 134 59 196 59 c 0
 276 59 352 124 367 210 c 2
 381 285 l 1
EndSplineSet
Validated: 33
Substitution2: "'cv08' +W1d7JlPYT1MA-08 +Z+VifgAA 7+Zv9O44ho" a.cv08.leftM
Substitution2: "'cv01' +W1d7JlPYT1MA-01 +Z+VifgAA 0+Zv9O44ho" a.cv01.leftM
EndChar

StartChar: a.leftS
Encoding: 65722 -1 353
Width: 600
GlyphClass: 1
Flags: W
LayerCount: 2
Fore
SplineSet
415 385 m 0
 425 443 390 479 321 479 c 0
 258 479 204 448 190 402 c 1
 107 402 l 1
 125 488 219 550 331 550 c 0
 447 550 515 484 499 384 c 2
 466 193 l 2
 451 109 448 47 454 0 c 1
 374 0 l 1
 370 22 369 51 372 86 c 1
 367 86 l 1
 326 25 262 -10 189 -10 c 0
 88 -10 28 57 44 154 c 0
 61 253 144 306 299 321 c 2
 350 326 l 2
 388 330 408 348 415 385 c 0
399 285 m 1
 385 276 368 271 348 268 c 2
 299 263 l 2
 192 250 140 218 129 156 c 0
 119 97 152 59 214 59 c 0
 294 59 370 124 385 210 c 2
 399 285 l 1
EndSplineSet
Validated: 33
Substitution2: "'cv08' +W1d7JlPYT1MA-08 +Z+VifgAA 7+Zv9O44ho" a.cv08.leftS
Substitution2: "'cv01' +W1d7JlPYT1MA-01 +Z+VifgAA 0+Zv9O44ho" a.cv01.leftS
EndChar

StartChar: a.rightL
Encoding: 65723 -1 354
Width: 600
GlyphClass: 1
Flags: W
LayerCount: 2
Fore
SplineSet
471 385 m 0
 481 443 446 479 377 479 c 0
 314 479 260 448 246 402 c 1
 163 402 l 1
 181 488 275 550 387 550 c 0
 503 550 571 484 555 384 c 2
 522 193 l 2
 507 109 504 47 510 0 c 1
 430 0 l 1
 426 22 425 51 428 86 c 1
 423 86 l 1
 382 25 318 -10 245 -10 c 0
 144 -10 84 57 100 154 c 0
 117 253 200 306 355 321 c 2
 406 326 l 2
 444 330 464 348 471 385 c 0
455 285 m 1
 441 276 424 271 404 268 c 2
 355 263 l 2
 248 250 196 218 185 156 c 0
 175 97 208 59 270 59 c 0
 350 59 426 124 441 210 c 2
 455 285 l 1
EndSplineSet
Validated: 33
Substitution2: "'cv08' +W1d7JlPYT1MA-08 +Z+VifgAA 7+Zv9O44ho" a.cv08.rightL
Substitution2: "'cv01' +W1d7JlPYT1MA-01 +Z+VifgAA 0+Zv9O44ho" a.cv01.rightL
EndChar

StartChar: a.rightM
Encoding: 65724 -1 355
Width: 600
GlyphClass: 1
Flags: W
LayerCount: 2
Fore
SplineSet
454 385 m 0
 464 443 429 479 360 479 c 0
 297 479 243 448 229 402 c 1
 146 402 l 1
 164 488 258 550 370 550 c 0
 486 550 554 484 538 384 c 2
 505 193 l 2
 490 109 487 47 493 0 c 1
 413 0 l 1
 409 22 408 51 411 86 c 1
 406 86 l 1
 365 25 301 -10 228 -10 c 0
 127 -10 67 57 83 154 c 0
 100 253 183 306 338 321 c 2
 389 326 l 2
 427 330 447 348 454 385 c 0
438 285 m 1
 424 276 407 271 387 268 c 2
 338 263 l 2
 231 250 179 218 168 156 c 0
 158 97 191 59 253 59 c 0
 333 59 409 124 424 210 c 2
 438 285 l 1
EndSplineSet
Validated: 33
Substitution2: "'cv08' +W1d7JlPYT1MA-08 +Z+VifgAA 7+Zv9O44ho" a.cv08.rightM
Substitution2: "'cv01' +W1d7JlPYT1MA-01 +Z+VifgAA 0+Zv9O44ho" a.cv01.rightM
EndChar

StartChar: a.rightS
Encoding: 65725 -1 356
Width: 600
GlyphClass: 1
Flags: W
LayerCount: 2
Fore
SplineSet
439 385 m 0
 449 443 414 479 345 479 c 0
 282 479 228 448 214 402 c 1
 131 402 l 1
 149 488 243 550 355 550 c 0
 471 550 539 484 523 384 c 2
 490 193 l 2
 475 109 472 47 478 0 c 1
 398 0 l 1
 394 22 393 51 396 86 c 1
 391 86 l 1
 350 25 286 -10 213 -10 c 0
 112 -10 52 57 68 154 c 0
 85 253 168 306 323 321 c 2
 374 326 l 2
 412 330 432 348 439 385 c 0
423 285 m 1
 409 276 392 271 372 268 c 2
 323 263 l 2
 216 250 164 218 153 156 c 0
 143 97 176 59 238 59 c 0
 318 59 394 124 409 210 c 2
 423 285 l 1
EndSplineSet
Validated: 33
Substitution2: "'cv08' +W1d7JlPYT1MA-08 +Z+VifgAA 7+Zv9O44ho" a.cv08.rightS
Substitution2: "'cv01' +W1d7JlPYT1MA-01 +Z+VifgAA 0+Zv9O44ho" a.cv01.rightS
EndChar

StartChar: aacute
Encoding: 225 225 357
Width: 600
GlyphClass: 1
Flags: W
LayerCount: 2
Fore
SplineSet
427 385 m 0
 437 443 402 479 333 479 c 0
 270 479 216 448 202 402 c 1
 119 402 l 1
 137 488 231 550 343 550 c 0
 459 550 527 484 511 384 c 2
 478 193 l 2
 463 109 460 47 466 0 c 1
 386 0 l 1
 382 22 381 51 384 86 c 1
 379 86 l 1
 338 25 274 -10 201 -10 c 0
 100 -10 40 57 56 154 c 0
 73 253 156 306 311 321 c 2
 362 326 l 2
 400 330 420 348 427 385 c 0
411 285 m 1
 397 276 380 271 360 268 c 2
 311 263 l 2
 204 250 152 218 141 156 c 0
 131 97 164 59 226 59 c 0
 306 59 382 124 397 210 c 2
 411 285 l 1
518 817 m 1
 372 632 l 1
 299 632 l 1
 407 817 l 1
 518 817 l 1
EndSplineSet
Validated: 33
Substitution2: "'cv08' +W1d7JlPYT1MA-08 +Z+VifgAA 7+Zv9O44ho" aacute.cv08
Substitution2: "'cv01' +W1d7JlPYT1MA-01 +Z+VifgAA 0+Zv9O44ho" aacute.cv01
EndChar

StartChar: aacute.cv01
Encoding: 65726 -1 358
Width: 600
GlyphClass: 1
Flags: W
LayerCount: 2
Fore
SplineSet
394 97 m 1
 350 29 288 -10 215 -10 c 0
 90 -10 16 108 43 270 c 0
 70 431 183 550 309 550 c 0
 382 550 431 510 452 439 c 1
 457 439 l 1
 474 540 l 1
 553 540 l 1
 493 180 l 2
 485 129 477 63 470 0 c 1
 390 0 l 1
 392 34 394 65 398 97 c 1
 394 97 l 1
426 270 m 0
 446 390 400 474 314 474 c 0
 226 474 147 387 128 270 c 0
 108 153 157 66 245 66 c 0
 331 66 406 150 426 270 c 0
520 817 m 1
 374 632 l 1
 301 632 l 1
 409 817 l 1
 520 817 l 1
EndSplineSet
Validated: 33
EndChar

StartChar: aacute.cv08
Encoding: 65727 -1 359
Width: 600
GlyphClass: 1
Flags: W
LayerCount: 2
Fore
SplineSet
390 0 m 1
 391 34 394 65 398 97 c 1
 394 97 l 1
 349 29 287 -10 215 -10 c 0
 89 -10 16 108 43 269 c 0
 70 431 183 550 309 550 c 0
 382 550 432 510 453 439 c 1
 457 439 l 1
 474 540 l 1
 553 540 l 1
 547 504 498 210 493 180 c 0
 485 129 477 63 470 0 c 1
 390 0 l 1
426 270 m 0
 446 390 400 474 314 474 c 0
 226 474 147 387 128 270 c 0
 108 153 157 66 245 66 c 0
 331 66 406 150 426 270 c 0
520 817 m 1
 374 632 l 1
 301 632 l 1
 409 817 l 1
 520 817 l 1
EndSplineSet
Validated: 33
EndChar

StartChar: abreve
Encoding: 259 259 360
Width: 600
GlyphClass: 1
Flags: W
LayerCount: 2
Fore
SplineSet
427 385 m 0
 437 443 402 479 333 479 c 0
 270 479 216 448 202 402 c 1
 119 402 l 1
 137 488 231 550 343 550 c 0
 459 550 527 484 511 384 c 2
 478 193 l 2
 463 109 460 47 466 0 c 1
 386 0 l 1
 382 22 381 51 384 86 c 1
 379 86 l 1
 338 25 274 -10 201 -10 c 0
 100 -10 40 57 56 154 c 0
 73 253 156 306 311 321 c 2
 362 326 l 2
 400 330 420 348 427 385 c 0
411 285 m 1
 397 276 380 271 360 268 c 2
 311 263 l 2
 204 250 152 218 141 156 c 0
 131 97 164 59 226 59 c 0
 306 59 382 124 397 210 c 2
 411 285 l 1
310 763 m 1
 307 719 328 690 363 690 c 0
 398 690 429 719 440 763 c 1
 509 763 l 1
 496 683 430 626 352 626 c 0
 274 626 228 683 241 763 c 1
 310 763 l 1
EndSplineSet
Validated: 33
Substitution2: "'cv08' +W1d7JlPYT1MA-08 +Z+VifgAA 7+Zv9O44ho" abreve.cv08
Substitution2: "'cv01' +W1d7JlPYT1MA-01 +Z+VifgAA 0+Zv9O44ho" abreve.cv01
EndChar

StartChar: abreve.cv01
Encoding: 65728 -1 361
Width: 600
GlyphClass: 1
Flags: W
LayerCount: 2
Fore
SplineSet
394 97 m 1
 350 29 288 -10 215 -10 c 0
 90 -10 16 108 43 270 c 0
 70 431 183 550 309 550 c 0
 382 550 431 510 452 439 c 1
 457 439 l 1
 474 540 l 1
 553 540 l 1
 493 180 l 2
 485 129 477 63 470 0 c 1
 390 0 l 1
 392 34 394 65 398 97 c 1
 394 97 l 1
426 270 m 0
 446 390 400 474 314 474 c 0
 226 474 147 387 128 270 c 0
 108 153 157 66 245 66 c 0
 331 66 406 150 426 270 c 0
312 763 m 1
 309 719 330 690 365 690 c 0
 400 690 431 719 442 763 c 1
 511 763 l 1
 498 683 432 626 354 626 c 0
 276 626 230 683 243 763 c 1
 312 763 l 1
EndSplineSet
Validated: 33
EndChar

StartChar: abreve.cv08
Encoding: 65729 -1 362
Width: 600
GlyphClass: 1
Flags: W
LayerCount: 2
Fore
SplineSet
390 0 m 1
 391 34 394 65 398 97 c 1
 394 97 l 1
 349 29 287 -10 215 -10 c 0
 89 -10 16 108 43 269 c 0
 70 431 183 550 309 550 c 0
 382 550 432 510 453 439 c 1
 457 439 l 1
 474 540 l 1
 553 540 l 1
 547 504 498 210 493 180 c 0
 485 129 477 63 470 0 c 1
 390 0 l 1
426 270 m 0
 446 390 400 474 314 474 c 0
 226 474 147 387 128 270 c 0
 108 153 157 66 245 66 c 0
 331 66 406 150 426 270 c 0
312 763 m 1
 309 719 330 690 365 690 c 0
 400 690 431 719 442 763 c 1
 511 763 l 1
 498 683 432 626 354 626 c 0
 276 626 230 683 243 763 c 1
 312 763 l 1
EndSplineSet
Validated: 33
EndChar

StartChar: acircumflex
Encoding: 226 226 363
Width: 600
GlyphClass: 1
Flags: W
LayerCount: 2
Fore
SplineSet
427 385 m 0
 437 443 402 479 333 479 c 0
 270 479 216 448 202 402 c 1
 119 402 l 1
 137 488 231 550 343 550 c 0
 459 550 527 484 511 384 c 2
 478 193 l 2
 463 109 460 47 466 0 c 1
 386 0 l 1
 382 22 381 51 384 86 c 1
 379 86 l 1
 338 25 274 -10 201 -10 c 0
 100 -10 40 57 56 154 c 0
 73 253 156 306 311 321 c 2
 362 326 l 2
 400 330 420 348 427 385 c 0
411 285 m 1
 397 276 380 271 360 268 c 2
 311 263 l 2
 204 250 152 218 141 156 c 0
 131 97 164 59 226 59 c 0
 306 59 382 124 397 210 c 2
 411 285 l 1
198 625 m 1
 337 801 l 1
 425 801 l 1
 507 625 l 1
 434 625 l 1
 369 729 l 1
 270 625 l 1
 198 625 l 1
EndSplineSet
Validated: 33
Substitution2: "'cv08' +W1d7JlPYT1MA-08 +Z+VifgAA 7+Zv9O44ho" acircumflex.cv08
Substitution2: "'cv01' +W1d7JlPYT1MA-01 +Z+VifgAA 0+Zv9O44ho" acircumflex.cv01
EndChar

StartChar: acircumflex.cv01
Encoding: 65730 -1 364
Width: 600
GlyphClass: 1
Flags: W
LayerCount: 2
Fore
SplineSet
394 97 m 1
 350 29 288 -10 215 -10 c 0
 90 -10 16 108 43 270 c 0
 70 431 183 550 309 550 c 0
 382 550 431 510 452 439 c 1
 457 439 l 1
 474 540 l 1
 553 540 l 1
 493 180 l 2
 485 129 477 63 470 0 c 1
 390 0 l 1
 392 34 394 65 398 97 c 1
 394 97 l 1
426 270 m 0
 446 390 400 474 314 474 c 0
 226 474 147 387 128 270 c 0
 108 153 157 66 245 66 c 0
 331 66 406 150 426 270 c 0
200 625 m 1
 339 801 l 1
 427 801 l 1
 509 625 l 1
 436 625 l 1
 371 729 l 1
 272 625 l 1
 200 625 l 1
EndSplineSet
Validated: 33
EndChar

StartChar: acircumflex.cv08
Encoding: 65731 -1 365
Width: 600
GlyphClass: 1
Flags: W
LayerCount: 2
Fore
SplineSet
390 0 m 1
 391 34 394 65 398 97 c 1
 394 97 l 1
 349 29 287 -10 215 -10 c 0
 89 -10 16 108 43 269 c 0
 70 431 183 550 309 550 c 0
 382 550 432 510 453 439 c 1
 457 439 l 1
 474 540 l 1
 553 540 l 1
 547 504 498 210 493 180 c 0
 485 129 477 63 470 0 c 1
 390 0 l 1
426 270 m 0
 446 390 400 474 314 474 c 0
 226 474 147 387 128 270 c 0
 108 153 157 66 245 66 c 0
 331 66 406 150 426 270 c 0
200 625 m 1
 339 801 l 1
 427 801 l 1
 509 625 l 1
 436 625 l 1
 371 729 l 1
 272 625 l 1
 200 625 l 1
EndSplineSet
Validated: 33
EndChar

StartChar: uni2406
Encoding: 9222 9222 366
Width: 600
GlyphClass: 1
Flags: W
LayerCount: 2
Fore
SplineSet
122 625 m 1
 66 625 l 1
 223 975 l 1
 302 975 l 1
 342 625 l 1
 285 625 l 1
 275 719 l 1
 164 719 l 1
 122 625 l 1
186 770 m 1
 270 770 l 1
 253 916 l 1
 251 916 l 1
 186 770 l 1
364 269 m 1
 422 269 l 1
 406 211 351 170 291 170 c 0
 211 170 167 244 185 350 c 0
 203 457 271 530 351 530 c 0
 409 530 448 491 447 436 c 1
 389 436 l 1
 387 461 369 477 342 477 c 0
 295 477 256 428 243 350 c 0
 230 273 253 223 301 223 c 0
 329 223 354 241 364 269 c 1
352 75 m 1
 325 -85 l 1
 487 75 l 1
 556 75 l 1
 410 -70 l 1
 504 -275 l 1
 438 -275 l 1
 365 -116 l 1
 311 -168 l 1
 294 -275 l 1
 235 -275 l 1
 294 75 l 1
 352 75 l 1
EndSplineSet
Validated: 33
EndChar

StartChar: acute
Encoding: 180 180 367
Width: 600
GlyphClass: 1
Flags: W
LayerCount: 2
Fore
SplineSet
526 780 m 1
 283 536 l 1
 193 536 l 1
 401 780 l 1
 526 780 l 1
EndSplineSet
Validated: 1
EndChar

StartChar: acutecomb
Encoding: 769 769 368
Width: 600
GlyphClass: 1
Flags: W
LayerCount: 2
Fore
SplineSet
481 817 m 1
 335 632 l 1
 262 632 l 1
 370 817 l 1
 481 817 l 1
EndSplineSet
Validated: 1
EndChar

StartChar: adieresis
Encoding: 228 228 369
Width: 600
GlyphClass: 1
Flags: W
LayerCount: 2
Fore
SplineSet
427 385 m 0
 437 443 402 479 333 479 c 0
 270 479 216 448 202 402 c 1
 119 402 l 1
 137 488 231 550 343 550 c 0
 459 550 527 484 511 384 c 2
 478 193 l 2
 463 109 460 47 466 0 c 1
 386 0 l 1
 382 22 381 51 384 86 c 1
 379 86 l 1
 338 25 274 -10 201 -10 c 0
 100 -10 40 57 56 154 c 0
 73 253 156 306 311 321 c 2
 362 326 l 2
 400 330 420 348 427 385 c 0
411 285 m 1
 397 276 380 271 360 268 c 2
 311 263 l 2
 204 250 152 218 141 156 c 0
 131 97 164 59 226 59 c 0
 306 59 382 124 397 210 c 2
 411 285 l 1
194 715 m 0
 201 753 236 783 274 783 c 0
 313 783 338 753 331 715 c 0
 325 677 290 646 252 646 c 0
 214 646 188 677 194 715 c 0
402 715 m 0
 409 753 444 783 482 783 c 0
 521 783 546 753 539 715 c 0
 533 677 498 646 460 646 c 0
 422 646 396 677 402 715 c 0
EndSplineSet
Validated: 33
Substitution2: "'cv08' +W1d7JlPYT1MA-08 +Z+VifgAA 7+Zv9O44ho" adieresis.cv08
Substitution2: "'cv03' +W1d7JlPYT1MA-03 +Z+VifgAA 2+Zv9O44ho" adieresis.square
Substitution2: "'cv01' +W1d7JlPYT1MA-01 +Z+VifgAA 0+Zv9O44ho" adieresis.cv01
EndChar

StartChar: adieresis.cv01
Encoding: 65732 -1 370
Width: 600
GlyphClass: 1
Flags: W
LayerCount: 2
Fore
SplineSet
394 97 m 1
 350 29 288 -10 215 -10 c 0
 90 -10 16 108 43 270 c 0
 70 431 183 550 309 550 c 0
 382 550 431 510 452 439 c 1
 457 439 l 1
 474 540 l 1
 553 540 l 1
 493 180 l 2
 485 129 477 63 470 0 c 1
 390 0 l 1
 392 34 394 65 398 97 c 1
 394 97 l 1
426 270 m 0
 446 390 400 474 314 474 c 0
 226 474 147 387 128 270 c 0
 108 153 157 66 245 66 c 0
 331 66 406 150 426 270 c 0
196 715 m 0
 203 753 238 783 276 783 c 0
 315 783 340 753 333 715 c 0
 327 677 292 646 254 646 c 0
 216 646 190 677 196 715 c 0
404 715 m 0
 411 753 446 783 484 783 c 0
 523 783 548 753 541 715 c 0
 535 677 500 646 462 646 c 0
 424 646 398 677 404 715 c 0
EndSplineSet
Validated: 33
EndChar

StartChar: adieresis.cv08
Encoding: 65733 -1 371
Width: 600
GlyphClass: 1
Flags: W
LayerCount: 2
Fore
SplineSet
390 0 m 1
 391 34 394 65 398 97 c 1
 394 97 l 1
 349 29 287 -10 215 -10 c 0
 89 -10 16 108 43 269 c 0
 70 431 183 550 309 550 c 0
 382 550 432 510 453 439 c 1
 457 439 l 1
 474 540 l 1
 553 540 l 1
 547 504 498 210 493 180 c 0
 485 129 477 63 470 0 c 1
 390 0 l 1
426 270 m 0
 446 390 400 474 314 474 c 0
 226 474 147 387 128 270 c 0
 108 153 157 66 245 66 c 0
 331 66 406 150 426 270 c 0
196 715 m 0
 203 753 238 783 276 783 c 0
 315 783 340 753 333 715 c 0
 327 677 292 646 254 646 c 0
 216 646 190 677 196 715 c 0
404 715 m 0
 411 753 446 783 484 783 c 0
 523 783 548 753 541 715 c 0
 535 677 500 646 462 646 c 0
 424 646 398 677 404 715 c 0
EndSplineSet
Validated: 33
Substitution2: "'cv03' +W1d7JlPYT1MA-03 +Z+VifgAA 2+Zv9O44ho" adieresis.square.cv08
EndChar

StartChar: adieresis.square
Encoding: 65734 -1 372
Width: 600
GlyphClass: 1
Flags: W
LayerCount: 2
Fore
SplineSet
427 385 m 0
 437 443 402 479 333 479 c 0
 270 479 216 448 202 402 c 1
 119 402 l 1
 137 488 231 550 343 550 c 0
 459 550 527 484 511 384 c 2
 478 193 l 2
 463 109 460 47 466 0 c 1
 386 0 l 1
 382 22 381 51 384 86 c 1
 379 86 l 1
 338 25 274 -10 201 -10 c 0
 100 -10 40 57 56 154 c 0
 73 253 156 306 311 321 c 2
 362 326 l 2
 400 330 420 348 427 385 c 0
411 285 m 1
 397 276 380 271 360 268 c 2
 311 263 l 2
 204 250 152 218 141 156 c 0
 131 97 164 59 226 59 c 0
 306 59 382 124 397 210 c 2
 411 285 l 1
191 650 m 1
 212 771 l 1
 333 771 l 1
 313 650 l 1
 191 650 l 1
399 650 m 1
 420 771 l 1
 541 771 l 1
 521 650 l 1
 399 650 l 1
EndSplineSet
Validated: 33
Substitution2: "'cv08' +W1d7JlPYT1MA-08 +Z+VifgAA 7+Zv9O44ho" adieresis.square.cv08
Substitution2: "'cv01' +W1d7JlPYT1MA-01 +Z+VifgAA 0+Zv9O44ho" adieresis.square.cv01
EndChar

StartChar: adieresis.square.cv01
Encoding: 65735 -1 373
Width: 600
GlyphClass: 1
Flags: W
LayerCount: 2
Fore
SplineSet
394 97 m 1
 350 29 288 -10 215 -10 c 0
 90 -10 16 108 43 270 c 0
 70 431 183 550 309 550 c 0
 382 550 431 510 452 439 c 1
 457 439 l 1
 474 540 l 1
 553 540 l 1
 493 180 l 2
 485 129 477 63 470 0 c 1
 390 0 l 1
 392 34 394 65 398 97 c 1
 394 97 l 1
426 270 m 0
 446 390 400 474 314 474 c 0
 226 474 147 387 128 270 c 0
 108 153 157 66 245 66 c 0
 331 66 406 150 426 270 c 0
193 650 m 1
 214 771 l 1
 335 771 l 1
 315 650 l 1
 193 650 l 1
401 650 m 1
 422 771 l 1
 543 771 l 1
 523 650 l 1
 401 650 l 1
EndSplineSet
Validated: 33
EndChar

StartChar: adieresis.square.cv08
Encoding: 65736 -1 374
Width: 600
GlyphClass: 1
Flags: W
LayerCount: 2
Fore
SplineSet
390 0 m 1
 391 34 394 65 398 97 c 1
 394 97 l 1
 349 29 287 -10 215 -10 c 0
 89 -10 16 108 43 269 c 0
 70 431 183 550 309 550 c 0
 382 550 432 510 453 439 c 1
 457 439 l 1
 474 540 l 1
 553 540 l 1
 547 504 498 210 493 180 c 0
 485 129 477 63 470 0 c 1
 390 0 l 1
426 270 m 0
 446 390 400 474 314 474 c 0
 226 474 147 387 128 270 c 0
 108 153 157 66 245 66 c 0
 331 66 406 150 426 270 c 0
193 650 m 1
 214 771 l 1
 335 771 l 1
 315 650 l 1
 193 650 l 1
401 650 m 1
 422 771 l 1
 543 771 l 1
 523 650 l 1
 401 650 l 1
EndSplineSet
Validated: 33
EndChar

StartChar: ae
Encoding: 230 230 375
Width: 600
GlyphClass: 1
Flags: W
LayerCount: 2
Fore
SplineSet
100 -10 m 0
 20 -10 -25 54 -10 146 c 0
 8 250 93 317 209 317 c 2
 255 317 l 1
 260 343 l 2
 273 422 247 480 199 480 c 0
 164 480 126 448 114 402 c 1
 41 402 l 1
 61 487 131 550 207 550 c 0
 269 550 308 508 318 437 c 1
 322 437 l 1
 359 509 410 550 467 550 c 0
 562 550 607 441 581 284 c 2
 576 252 l 1
 325 252 l 1
 309 133 334 59 390 59 c 0
 428 59 468 92 482 138 c 1
 553 138 l 1
 528 52 455 -10 379 -10 c 0
 317 -10 278 33 265 109 c 1
 260 109 l 1
 223 34 165 -10 100 -10 c 0
337 317 m 1
 512 317 l 1
 526 419 503 481 454 481 c 0
 404 481 360 419 337 317 c 1
244 252 m 1
 197 252 l 2
 126 252 77 213 66 147 c 0
 57 95 77 59 116 59 c 0
 171 59 224 131 240 226 c 2
 244 252 l 1
EndSplineSet
Validated: 33
EndChar

StartChar: aeacute
Encoding: 509 509 376
Width: 600
GlyphClass: 1
Flags: W
LayerCount: 2
Fore
SplineSet
100 -10 m 0
 20 -10 -25 54 -10 146 c 0
 8 250 93 317 209 317 c 2
 255 317 l 1
 260 343 l 2
 273 422 247 480 199 480 c 0
 164 480 126 448 114 402 c 1
 41 402 l 1
 61 487 131 550 207 550 c 0
 269 550 308 508 318 437 c 1
 322 437 l 1
 359 509 410 550 467 550 c 0
 562 550 607 441 581 284 c 2
 576 252 l 1
 325 252 l 1
 309 133 334 59 390 59 c 0
 428 59 468 92 482 138 c 1
 553 138 l 1
 528 52 455 -10 379 -10 c 0
 317 -10 278 33 265 109 c 1
 260 109 l 1
 223 34 165 -10 100 -10 c 0
337 317 m 1
 512 317 l 1
 526 419 503 481 454 481 c 0
 404 481 360 419 337 317 c 1
244 252 m 1
 197 252 l 2
 126 252 77 213 66 147 c 0
 57 95 77 59 116 59 c 0
 171 59 224 131 240 226 c 2
 244 252 l 1
519 816 m 1
 373 631 l 1
 300 631 l 1
 408 816 l 1
 519 816 l 1
EndSplineSet
Validated: 33
EndChar

StartChar: agrave
Encoding: 224 224 377
Width: 600
GlyphClass: 1
Flags: W
LayerCount: 2
Fore
SplineSet
427 385 m 0
 437 443 402 479 333 479 c 0
 270 479 216 448 202 402 c 1
 119 402 l 1
 137 488 231 550 343 550 c 0
 459 550 527 484 511 384 c 2
 478 193 l 2
 463 109 460 47 466 0 c 1
 386 0 l 1
 382 22 381 51 384 86 c 1
 379 86 l 1
 338 25 274 -10 201 -10 c 0
 100 -10 40 57 56 154 c 0
 73 253 156 306 311 321 c 2
 362 326 l 2
 400 330 420 348 427 385 c 0
411 285 m 1
 397 276 380 271 360 268 c 2
 311 263 l 2
 204 250 152 218 141 156 c 0
 131 97 164 59 226 59 c 0
 306 59 382 124 397 210 c 2
 411 285 l 1
408 632 m 1
 335 632 l 1
 251 817 l 1
 362 817 l 1
 408 632 l 1
EndSplineSet
Validated: 33
Substitution2: "'cv08' +W1d7JlPYT1MA-08 +Z+VifgAA 7+Zv9O44ho" agrave.cv08
Substitution2: "'cv01' +W1d7JlPYT1MA-01 +Z+VifgAA 0+Zv9O44ho" agrave.cv01
EndChar

StartChar: agrave.cv01
Encoding: 65737 -1 378
Width: 600
GlyphClass: 1
Flags: W
LayerCount: 2
Fore
SplineSet
394 97 m 1
 350 29 288 -10 215 -10 c 0
 90 -10 16 108 43 270 c 0
 70 431 183 550 309 550 c 0
 382 550 431 510 452 439 c 1
 457 439 l 1
 474 540 l 1
 553 540 l 1
 493 180 l 2
 485 129 477 63 470 0 c 1
 390 0 l 1
 392 34 394 65 398 97 c 1
 394 97 l 1
426 270 m 0
 446 390 400 474 314 474 c 0
 226 474 147 387 128 270 c 0
 108 153 157 66 245 66 c 0
 331 66 406 150 426 270 c 0
410 632 m 1
 337 632 l 1
 253 817 l 1
 364 817 l 1
 410 632 l 1
EndSplineSet
Validated: 33
EndChar

StartChar: agrave.cv08
Encoding: 65738 -1 379
Width: 600
GlyphClass: 1
Flags: W
LayerCount: 2
Fore
SplineSet
390 0 m 1
 391 34 394 65 398 97 c 1
 394 97 l 1
 349 29 287 -10 215 -10 c 0
 89 -10 16 108 43 269 c 0
 70 431 183 550 309 550 c 0
 382 550 432 510 453 439 c 1
 457 439 l 1
 474 540 l 1
 553 540 l 1
 547 504 498 210 493 180 c 0
 485 129 477 63 470 0 c 1
 390 0 l 1
426 270 m 0
 446 390 400 474 314 474 c 0
 226 474 147 387 128 270 c 0
 108 153 157 66 245 66 c 0
 331 66 406 150 426 270 c 0
410 632 m 1
 337 632 l 1
 253 817 l 1
 364 817 l 1
 410 632 l 1
EndSplineSet
Validated: 33
EndChar

StartChar: alpha
Encoding: 945 945 380
Width: 600
GlyphClass: 1
Flags: W
LayerCount: 2
Fore
SplineSet
305 550 m 0
 385 550 438 501 457 407 c 1
 508 540 l 1
 592 540 l 1
 490 270 l 1
 502 0 l 1
 418 0 l 1
 411 133 l 1
 360 39 291 -10 212 -10 c 0
 87 -10 16 109 43 270 c 0
 70 432 181 550 305 550 c 0
395 220 m 2
 414 270 l 1
 412 320 l 2
 407 419 368 474 303 474 c 0
 221 474 148 388 128 270 c 0
 108 152 153 66 235 66 c 0
 300 66 357 121 395 220 c 2
EndSplineSet
Validated: 33
EndChar

StartChar: alphatonos
Encoding: 940 940 381
Width: 600
GlyphClass: 1
Flags: W
LayerCount: 2
Fore
SplineSet
305 550 m 0
 385 550 438 501 457 407 c 1
 508 540 l 1
 592 540 l 1
 490 270 l 1
 502 0 l 1
 418 0 l 1
 411 133 l 1
 360 39 291 -10 212 -10 c 0
 87 -10 16 109 43 270 c 0
 70 432 181 550 305 550 c 0
395 220 m 2
 414 270 l 1
 412 320 l 2
 407 419 368 474 303 474 c 0
 221 474 148 388 128 270 c 0
 108 152 153 66 235 66 c 0
 300 66 357 121 395 220 c 2
575 827 m 1
 474 625 l 1
 408 625 l 1
 475 827 l 1
 575 827 l 1
EndSplineSet
Validated: 33
EndChar

StartChar: uni2387
Encoding: 9095 9095 382
Width: 600
GlyphClass: 1
Flags: W
LayerCount: 2
Fore
SplineSet
480 628 m 1
 121 1 l 1
 -44 1 l 1
 -32 74 l 1
 84 74 l 1
 443 702 l 1
 661 702 l 1
 649 628 l 1
 480 628 l 1
544 1 m 1
 293 1 l 1
 305 74 l 1
 556 74 l 1
 544 1 l 1
EndSplineSet
Validated: 1
EndChar

StartChar: amacron
Encoding: 257 257 383
Width: 600
GlyphClass: 1
Flags: W
LayerCount: 2
Fore
SplineSet
427 385 m 0
 437 443 402 479 333 479 c 0
 270 479 216 448 202 402 c 1
 119 402 l 1
 137 488 231 550 343 550 c 0
 459 550 527 484 511 384 c 2
 478 193 l 2
 463 109 460 47 466 0 c 1
 386 0 l 1
 382 22 381 51 384 86 c 1
 379 86 l 1
 338 25 274 -10 201 -10 c 0
 100 -10 40 57 56 154 c 0
 73 253 156 306 311 321 c 2
 362 326 l 2
 400 330 420 348 427 385 c 0
411 285 m 1
 397 276 380 271 360 268 c 2
 311 263 l 2
 204 250 152 218 141 156 c 0
 131 97 164 59 226 59 c 0
 306 59 382 124 397 210 c 2
 411 285 l 1
205 670 m 1
 217 740 l 1
 525 740 l 1
 513 670 l 1
 205 670 l 1
EndSplineSet
Validated: 33
Substitution2: "'cv08' +W1d7JlPYT1MA-08 +Z+VifgAA 7+Zv9O44ho" amacron.cv08
Substitution2: "'cv01' +W1d7JlPYT1MA-01 +Z+VifgAA 0+Zv9O44ho" amacron.cv01
EndChar

StartChar: amacron.cv01
Encoding: 65739 -1 384
Width: 600
GlyphClass: 1
Flags: W
LayerCount: 2
Fore
SplineSet
394 97 m 1
 350 29 288 -10 215 -10 c 0
 90 -10 16 108 43 270 c 0
 70 431 183 550 309 550 c 0
 382 550 431 510 452 439 c 1
 457 439 l 1
 474 540 l 1
 553 540 l 1
 493 180 l 2
 485 129 477 63 470 0 c 1
 390 0 l 1
 392 34 394 65 398 97 c 1
 394 97 l 1
426 270 m 0
 446 390 400 474 314 474 c 0
 226 474 147 387 128 270 c 0
 108 153 157 66 245 66 c 0
 331 66 406 150 426 270 c 0
207 670 m 1
 219 740 l 1
 527 740 l 1
 515 670 l 1
 207 670 l 1
EndSplineSet
Validated: 33
EndChar

StartChar: amacron.cv08
Encoding: 65740 -1 385
Width: 600
GlyphClass: 1
Flags: W
LayerCount: 2
Fore
SplineSet
390 0 m 1
 391 34 394 65 398 97 c 1
 394 97 l 1
 349 29 287 -10 215 -10 c 0
 89 -10 16 108 43 269 c 0
 70 431 183 550 309 550 c 0
 382 550 432 510 453 439 c 1
 457 439 l 1
 474 540 l 1
 553 540 l 1
 547 504 498 210 493 180 c 0
 485 129 477 63 470 0 c 1
 390 0 l 1
426 270 m 0
 446 390 400 474 314 474 c 0
 226 474 147 387 128 270 c 0
 108 153 157 66 245 66 c 0
 331 66 406 150 426 270 c 0
207 670 m 1
 219 740 l 1
 527 740 l 1
 515 670 l 1
 207 670 l 1
EndSplineSet
Validated: 33
EndChar

StartChar: ampersand
Encoding: 38 38 386
Width: 600
GlyphClass: 1
Flags: W
LayerCount: 2
Fore
SplineSet
430 0 m 1
 368 87 l 1
 299 22 223 -14 150 -14 c 0
 46 -14 -18 60 -1 161 c 0
 12 238 69 311 164 373 c 1
 154 387 l 2
 115 443 98 499 107 554 c 0
 122 644 203 710 300 710 c 0
 396 710 455 644 440 555 c 0
 429 489 380 427 301 377 c 2
 278 363 l 1
 385 214 l 1
 413 254 440 300 463 352 c 1
 547 352 l 1
 513 275 473 208 429 152 c 1
 537 0 l 1
 430 0 l 1
169 62 m 0
 220 62 275 92 327 145 c 1
 205 315 l 1
 135 271 94 220 85 166 c 0
 74 105 109 62 169 62 c 0
191 550 m 0
 185 514 198 476 226 436 c 2
 237 420 l 1
 267 439 l 2
 319 473 351 512 358 553 c 0
 366 600 338 635 289 635 c 0
 240 635 199 599 191 550 c 0
EndSplineSet
Validated: 33
EndChar

StartChar: aogonek
Encoding: 261 261 387
Width: 600
GlyphClass: 1
Flags: W
LayerCount: 2
Fore
SplineSet
430 -200 m 1
 418 -203 404 -205 388 -205 c 0
 317 -205 276 -162 286 -101 c 0
 293 -56 326 -17 384 13 c 1
 382 33 382 57 384 86 c 1
 379 86 l 1
 338 25 274 -10 201 -10 c 0
 100 -10 40 57 56 154 c 0
 73 253 156 306 311 321 c 2
 362 326 l 2
 400 330 420 348 427 385 c 0
 437 443 402 479 333 479 c 0
 270 479 216 448 202 402 c 1
 119 402 l 1
 137 488 231 550 343 550 c 0
 459 550 527 484 511 384 c 2
 478 193 l 2
 463 109 460 47 466 0 c 1
 402 -23 367 -52 361 -87 c 0
 356 -120 378 -142 413 -142 c 0
 421 -142 431 -141 440 -139 c 1
 430 -200 l 1
411 285 m 1
 397 276 380 271 360 268 c 2
 311 263 l 2
 204 250 152 218 141 156 c 0
 131 97 164 59 226 59 c 0
 306 59 382 124 397 210 c 2
 411 285 l 1
EndSplineSet
Validated: 33
Substitution2: "'cv08' +W1d7JlPYT1MA-08 +Z+VifgAA 7+Zv9O44ho" aogonek.cv08
Substitution2: "'cv01' +W1d7JlPYT1MA-01 +Z+VifgAA 0+Zv9O44ho" aogonek.cv01
EndChar

StartChar: aogonek.cv01
Encoding: 65741 -1 388
Width: 600
GlyphClass: 1
Flags: W
LayerCount: 2
Fore
SplineSet
394 97 m 1
 350 29 288 -10 215 -10 c 0
 90 -10 16 108 43 270 c 0
 70 431 183 550 309 550 c 0
 382 550 431 510 452 439 c 1
 457 439 l 1
 474 540 l 1
 553 540 l 1
 493 180 l 2
 485 129 477 63 470 0 c 1
 406 -23 371 -52 365 -87 c 0
 360 -120 382 -142 417 -142 c 0
 425 -142 435 -141 444 -139 c 1
 434 -200 l 1
 422 -203 408 -205 392 -205 c 0
 321 -205 280 -162 290 -101 c 0
 298 -55 331 -16 391 14 c 1
 393 43 395 69 398 97 c 1
 394 97 l 1
426 270 m 0
 446 390 400 474 314 474 c 0
 226 474 147 387 128 270 c 0
 108 153 157 66 245 66 c 0
 331 66 406 150 426 270 c 0
EndSplineSet
Validated: 33
EndChar

StartChar: aogonek.cv08
Encoding: 65742 -1 389
Width: 600
GlyphClass: 1
Flags: W
LayerCount: 2
Fore
SplineSet
434 -200 m 1
 422 -203 408 -205 392 -205 c 0
 321 -205 280 -162 290 -101 c 0
 298 -55 331 -16 391 14 c 1
 392 42 395 69 398 97 c 1
 394 97 l 1
 349 29 287 -10 215 -10 c 0
 89 -10 16 108 43 269 c 0
 70 431 183 550 309 550 c 0
 382 550 432 510 453 439 c 1
 457 439 l 1
 474 540 l 1
 553 540 l 1
 493 180 l 2
 485 129 477 63 470 0 c 1
 406 -23 371 -52 365 -87 c 0
 360 -120 382 -142 417 -142 c 0
 425 -142 435 -141 444 -139 c 1
 434 -200 l 1
426 270 m 0
 446 390 400 474 314 474 c 0
 226 474 147 387 128 270 c 0
 108 153 157 66 245 66 c 0
 331 66 406 150 426 270 c 0
EndSplineSet
Validated: 33
EndChar

StartChar: uniF8FF
Encoding: 63743 63743 390
Width: 600
GlyphClass: 1
Flags: W
LayerCount: 2
Fore
SplineSet
0 0 m 1
 0 700 l 1
 600 700 l 1
 600 0 l 1
 0 0 l 1
360 175 m 1
 360 471 l 1
 362 471 l 1
 425 250 l 1
 467 250 l 1
 531 471 l 1
 533 471 l 1
 533 175 l 1
 576 175 l 1
 576 525 l 1
 510 525 l 1
 447 306 l 1
 445 306 l 1
 383 525 l 1
 316 525 l 1
 316 175 l 1
 360 175 l 1
278 265 m 1
 233 265 l 1
 226 234 200 213 166 213 c 0
 113 213 78 267 78 350 c 0
 78 433 112 488 165 488 c 0
 197 488 223 469 229 440 c 1
 274 440 l 1
 266 493 221 530 165 530 c 0
 86 530 31 457 31 350 c 0
 31 244 86 170 165 170 c 0
 223 170 270 210 278 265 c 1
EndSplineSet
Validated: 1
EndChar

StartChar: approxequal
Encoding: 8776 8776 391
Width: 600
GlyphClass: 1
Flags: W
LayerCount: 2
Fore
SplineSet
63 339 m 1
 68 373 l 2
 84 467 150 529 234 529 c 0
 359 529 346 392 424 392 c 0
 460 392 485 421 496 479 c 2
 502 509 l 1
 578 509 l 1
 572 475 l 2
 557 381 491 319 407 319 c 0
 281 319 294 456 217 456 c 0
 181 456 156 426 145 369 c 2
 139 339 l 1
 63 339 l 1
25 111 m 1
 30 145 l 2
 46 239 111 301 195 301 c 0
 321 301 307 164 386 164 c 0
 422 164 446 193 458 251 c 2
 464 281 l 1
 540 281 l 1
 535 247 l 2
 519 153 453 91 369 91 c 0
 243 91 256 228 179 228 c 0
 143 228 118 198 107 141 c 2
 101 111 l 1
 25 111 l 1
EndSplineSet
Validated: 1
Substitution2: "+U1VOAGb/Y2IA +Z+VifgAA 54+Zv9O44ho" approxequal.case
EndChar

StartChar: approxequal.case
Encoding: 65743 -1 392
Width: 600
GlyphClass: 1
Flags: W
LayerCount: 2
Fore
SplineSet
70 379 m 1
 75 413 l 2
 91 507 157 569 241 569 c 0
 366 569 353 432 431 432 c 0
 467 432 492 461 503 519 c 2
 509 549 l 1
 585 549 l 1
 579 515 l 2
 564 421 498 359 414 359 c 0
 288 359 301 496 224 496 c 0
 188 496 163 466 152 409 c 2
 146 379 l 1
 70 379 l 1
32 151 m 1
 37 185 l 2
 53 279 118 341 202 341 c 0
 328 341 314 204 393 204 c 0
 429 204 453 233 465 291 c 2
 471 321 l 1
 547 321 l 1
 542 287 l 2
 526 193 460 131 376 131 c 0
 250 131 263 268 186 268 c 0
 150 268 125 238 114 181 c 2
 108 151 l 1
 32 151 l 1
EndSplineSet
Validated: 1
Substitution2: "+U1VOAGb/Y2IA +Z+VifgAA 54+Zv9O44ho" approxequal
EndChar

StartChar: aring
Encoding: 229 229 393
Width: 600
GlyphClass: 1
Flags: W
LayerCount: 2
Fore
SplineSet
427 385 m 0
 437 443 402 479 333 479 c 0
 270 479 216 448 202 402 c 1
 119 402 l 1
 137 488 231 550 343 550 c 0
 459 550 527 484 511 384 c 2
 478 193 l 2
 463 109 460 47 466 0 c 1
 386 0 l 1
 382 22 381 51 384 86 c 1
 379 86 l 1
 338 25 274 -10 201 -10 c 0
 100 -10 40 57 56 154 c 0
 73 253 156 306 311 321 c 2
 362 326 l 2
 400 330 420 348 427 385 c 0
411 285 m 1
 397 276 380 271 360 268 c 2
 311 263 l 2
 204 250 152 218 141 156 c 0
 131 97 164 59 226 59 c 0
 306 59 382 124 397 210 c 2
 411 285 l 1
254 729 m 0
 264 793 322 843 388 843 c 0
 454 843 497 793 486 728 c 0
 475 664 415 613 350 613 c 0
 285 613 243 664 254 729 c 0
360 670 m 0
 392 670 420 694 426 728 c 0
 431 762 412 786 380 786 c 0
 347 786 319 762 313 728 c 0
 308 694 327 670 360 670 c 0
EndSplineSet
Validated: 33
Substitution2: "'cv08' +W1d7JlPYT1MA-08 +Z+VifgAA 7+Zv9O44ho" aring.cv08
Substitution2: "'cv01' +W1d7JlPYT1MA-01 +Z+VifgAA 0+Zv9O44ho" aring.cv01
EndChar

StartChar: aring.cv01
Encoding: 65744 -1 394
Width: 600
GlyphClass: 1
Flags: W
LayerCount: 2
Fore
SplineSet
394 97 m 1
 350 29 288 -10 215 -10 c 0
 90 -10 16 108 43 270 c 0
 70 431 183 550 309 550 c 0
 382 550 431 510 452 439 c 1
 457 439 l 1
 474 540 l 1
 553 540 l 1
 493 180 l 2
 485 129 477 63 470 0 c 1
 390 0 l 1
 392 34 394 65 398 97 c 1
 394 97 l 1
426 270 m 0
 446 390 400 474 314 474 c 0
 226 474 147 387 128 270 c 0
 108 153 157 66 245 66 c 0
 331 66 406 150 426 270 c 0
256 729 m 0
 266 793 324 843 390 843 c 0
 456 843 499 793 488 728 c 0
 477 664 417 613 352 613 c 0
 287 613 245 664 256 729 c 0
362 670 m 0
 394 670 422 694 428 728 c 0
 433 762 414 786 382 786 c 0
 349 786 321 762 315 728 c 0
 310 694 329 670 362 670 c 0
EndSplineSet
Validated: 33
EndChar

StartChar: aring.cv08
Encoding: 65745 -1 395
Width: 600
GlyphClass: 1
Flags: W
LayerCount: 2
Fore
SplineSet
390 0 m 1
 391 34 394 65 398 97 c 1
 394 97 l 1
 349 29 287 -10 215 -10 c 0
 89 -10 16 108 43 269 c 0
 70 431 183 550 309 550 c 0
 382 550 432 510 453 439 c 1
 457 439 l 1
 474 540 l 1
 553 540 l 1
 547 504 498 210 493 180 c 0
 485 129 477 63 470 0 c 1
 390 0 l 1
426 270 m 0
 446 390 400 474 314 474 c 0
 226 474 147 387 128 270 c 0
 108 153 157 66 245 66 c 0
 331 66 406 150 426 270 c 0
256 729 m 0
 266 793 324 843 390 843 c 0
 456 843 499 793 488 728 c 0
 477 664 417 613 352 613 c 0
 287 613 245 664 256 729 c 0
362 670 m 0
 394 670 422 694 428 728 c 0
 433 762 414 786 382 786 c 0
 349 786 321 762 315 728 c 0
 310 694 329 670 362 670 c 0
EndSplineSet
Validated: 33
EndChar

StartChar: aringacute
Encoding: 507 507 396
Width: 600
GlyphClass: 1
Flags: W
LayerCount: 2
Fore
SplineSet
427 385 m 0
 437 443 402 479 333 479 c 0
 270 479 216 448 202 402 c 1
 119 402 l 1
 137 488 231 550 343 550 c 0
 459 550 527 484 511 384 c 2
 478 193 l 2
 463 109 460 47 466 0 c 1
 386 0 l 1
 382 22 381 51 384 86 c 1
 379 86 l 1
 338 25 274 -10 201 -10 c 0
 100 -10 40 57 56 154 c 0
 73 253 156 306 311 321 c 2
 362 326 l 2
 400 330 420 348 427 385 c 0
540 977 m 1
 429 836 l 1
 472 821 496 780 488 729 c 0
 477 664 417 613 352 613 c 0
 287 613 245 664 255 729 c 0
 264 778 300 819 346 835 c 1
 429 977 l 1
 540 977 l 1
411 285 m 1
 397 276 380 271 360 268 c 2
 311 263 l 2
 204 250 152 218 141 156 c 0
 131 97 164 59 226 59 c 0
 306 59 382 124 397 210 c 2
 411 285 l 1
361 670 m 0
 394 670 422 694 428 728 c 0
 433 762 414 786 381 786 c 0
 349 786 321 762 315 728 c 0
 310 694 329 670 361 670 c 0
EndSplineSet
Validated: 33
Substitution2: "'cv08' +W1d7JlPYT1MA-08 +Z+VifgAA 7+Zv9O44ho" aringacute.cv08
Substitution2: "'cv01' +W1d7JlPYT1MA-01 +Z+VifgAA 0+Zv9O44ho" aringacute.cv01
EndChar

